<svg width="37" height="33" viewBox="0 0 37 33" fill="none" xmlns="http://www.w3.org/2000/svg">
<g clip-path="url(#clip0_341_327)">
<path d="M0 12.7617V3.09375C0 1.03125 1.13904 0 3.41711 0H33.032C35.3101 0 36.4491 1.03125 36.4491 3.09375V12.7617L36.4207 12.8906L36.4491 13.0969V27.9727C36.3922 29.9492 35.2531 30.9375 33.032 30.9375H3.41711C1.19599 30.9375 0.0569518 29.9492 0 27.9727V13.0969L0.0284759 12.8906L0 12.7617ZM35.2816 12.9938V12.7875L35.3101 12.375V3.09375L35.2816 2.60391C35.1108 1.55547 34.3609 1.03125 33.032 1.03125H3.41711C2.08823 1.03125 1.34786 1.55547 1.19599 2.60391L1.13904 3.09375V12.375L1.16751 12.7875V12.9938L1.13904 13.4062V27.8438C1.13904 29.2188 1.89839 29.9062 3.41711 29.9062H33.032C34.5507 29.9062 35.3101 29.2188 35.3101 27.8438V13.4062L35.2816 12.9938Z" fill="#9696A3"/>
<path d="M35.2813 12.9938L35.3097 13.4062V27.8438C35.3097 29.2188 34.5504 29.9062 33.0317 29.9062H3.41674C1.89803 29.9062 1.13867 29.2188 1.13867 27.8438V13.4062L1.16715 12.9938V12.7875L1.13867 12.375V3.09375L1.19562 2.60391C1.3475 1.55547 2.08787 1.03125 3.41674 1.03125H33.0317C34.3605 1.03125 35.1104 1.55547 35.2813 2.60391L35.3097 3.09375V12.375L35.2813 12.7875V12.9938ZM3.41674 2.0625C2.79027 2.0625 2.42958 2.28594 2.33466 2.73281L2.30618 2.83594L2.27771 3.09375V12.375L2.30618 12.6586V12.7875V12.9938V13.1227L2.27771 13.4062V27.8438C2.27771 28.5312 2.65739 28.875 3.41674 28.875H33.0317C33.791 28.875 34.1707 28.5312 34.1707 27.8438V13.4062V13.1227L34.1422 12.9938V12.7875L34.1707 12.6586V12.375V3.09375L34.1422 2.73281L34.1707 2.75859C34.0378 2.29453 33.6581 2.0625 33.0317 2.0625H3.41674Z" fill="white"/>
<path d="M3.41638 2.0625H33.0313C33.6578 2.0625 34.0375 2.29453 34.1703 2.75859L34.1419 2.73281L34.1703 3.09375V12.375V12.6586L34.1419 12.7875V12.9938L34.1703 13.1227V13.4062V27.8438C34.1703 28.5312 33.7907 28.875 33.0313 28.875H3.41638C2.65702 28.875 2.27734 28.5312 2.27734 27.8438V13.4062L2.30582 13.1227V12.9938V12.7875V12.6586L2.27734 12.375V3.09375L2.30582 2.83594L2.3343 2.73281C2.42922 2.28594 2.78991 2.0625 3.41638 2.0625ZM14.8922 3.09375H14.8067H3.41638V12.375V12.4523L3.44486 12.6586V12.7875V12.9938V13.1227V13.3031L3.41638 13.4062V27.8438H14.8067H14.9776H33.0313V13.4062V13.2773L33.0028 12.9938V12.7875L33.0313 12.5297V12.375V3.09375H14.8922ZM31.8638 12.9164L31.8923 13.3547V13.4062V26.8125H4.55541V13.4578L4.58389 13.1227V12.9938V12.7875V12.6586V12.6328L4.55541 12.375V4.125H31.8923V12.375V12.4266C31.8543 12.5813 31.8448 12.7273 31.8638 12.8648V12.9164Z" fill="#F8F4F0"/>
<path d="M31.8654 12.9164V12.8648C31.8464 12.7273 31.8559 12.5813 31.8939 12.4266V12.375V4.125H4.557V12.375L4.58548 12.6328V12.6586V12.7875V12.9938V13.1227L4.557 13.4578V26.8125H31.8939V13.4062V13.3547L31.8654 12.9164ZM14.8938 3.09375H33.0329V12.375V12.5297L33.0044 12.7875V12.9938L33.0329 13.2773V13.4062V27.8438H14.9792H14.8083H3.41797V13.4062L3.44644 13.3031V13.1227V12.9938V12.7875V12.6586L3.41797 12.4523V12.375V3.09375H14.8083H14.8938Z" fill="#FFBE4E"/>
<path d="M36.4491 12.7617V13.0969L36.4207 12.8906L36.4491 12.7617ZM0 13.0969V12.7617L0.0284759 12.8906L0 13.0969Z" fill="#FF0000"/>
<path d="M36.4491 27.9727V29.9062C36.4491 31.9688 35.3101 33 33.032 33H3.41711C1.13904 33 0 31.9688 0 29.9062V27.9727C0.0569518 29.9492 1.19599 30.9375 3.41711 30.9375H33.032C35.2531 30.9375 36.3922 29.9492 36.4491 27.9727Z" fill="#747487"/>
<g clip-path="url(#clip1_341_327)">
<path d="M18.9929 21.2695V21.218L23.8054 12.5039L23.8338 12.4781L23.8908 12.0398L23.8623 11.8852L23.606 11.55L23.5776 11.5242C23.4067 11.4039 23.2169 11.3438 23.008 11.3438H13.4117L12.8422 11.55L12.8706 11.5242C12.6998 11.6445 12.5954 11.7906 12.5574 11.9625C12.5194 12.1516 12.5479 12.332 12.6428 12.5039L17.4268 21.218L17.3983 21.1922C17.5312 21.3984 17.721 21.5445 17.9678 21.6305H18.5373H18.5658L18.5943 21.6047L18.9929 21.2695ZM24.8305 12.968L20.0181 21.682C19.8093 22.0945 19.4581 22.3953 18.9645 22.5844C18.4709 22.7391 17.9868 22.7391 17.5122 22.5844C17.0186 22.3953 16.6484 22.0945 16.4016 21.682L11.6177 12.968C11.4089 12.5898 11.3519 12.1859 11.4468 11.7563C11.5418 11.3438 11.7791 11 12.1587 10.725C12.5574 10.45 12.975 10.3125 13.4117 10.3125H23.008C23.4826 10.3125 23.9098 10.45 24.2895 10.725C24.6881 11 24.9159 11.3438 24.9729 11.7563C25.1058 12.1859 25.0583 12.5898 24.8305 12.968Z" fill="#6A4608"/>
<path d="M18.9928 21.2695L18.5942 21.6047L18.5657 21.6305H18.5372H17.9677C17.7209 21.5445 17.5311 21.3984 17.3982 21.1922L17.4267 21.218L12.6427 12.5039C12.5478 12.332 12.5193 12.1516 12.5573 11.9625C12.5953 11.7906 12.6997 11.6445 12.8705 11.5242L12.842 11.55L13.4116 11.3438H23.0079C23.2168 11.3438 23.4066 11.4039 23.5775 11.5242L23.6059 11.55L23.8622 11.8852L23.8907 12.0398L23.8337 12.4781L23.8053 12.5039L18.9928 21.218V21.2695ZM18.224 20.3156L22.6093 12.375H13.8672L18.224 20.3156Z" fill="#FFBE4E"/>
<path d="M18.224 20.3156L13.8672 12.375H22.6093L18.224 20.3156Z" fill="#FFB22E"/>
</g>
</g>
<defs>
<clipPath id="clip0_341_327">
<rect width="36.4491" height="33" fill="white"/>
</clipPath>
<clipPath id="clip1_341_327">
<rect width="13.6684" height="12.375" fill="white" transform="translate(11.3906 10.3125)"/>
</clipPath>
</defs>
</svg>
