<svg width="67" height="67" viewBox="0 0 67 67" fill="none" xmlns="http://www.w3.org/2000/svg">
<g clip-path="url(#clip0_670_1322)">
<path d="M62.8125 54.4375V12.5625C62.8125 6.97917 60.0208 4.1875 54.4375 4.1875H12.5625C6.97917 4.1875 4.1875 6.97917 4.1875 12.5625V54.4375C4.1875 60.0208 6.97917 62.8125 12.5625 62.8125H54.4375C60.0208 62.8125 62.8125 60.0208 62.8125 54.4375ZM12.5625 0H54.4375C62.8125 0 67 4.1875 67 12.5625V54.4375C67 62.8125 62.8125 67 54.4375 67H12.5625C4.1875 67 0 62.8125 0 54.4375V12.5625C0 4.1875 4.1875 0 12.5625 0Z" fill="#6A4608"/>
<path d="M62.8125 54.4375C62.8125 60.0208 60.0208 62.8125 54.4375 62.8125H12.5625C6.97917 62.8125 4.1875 60.0208 4.1875 54.4375V12.5625C4.1875 6.97917 6.97917 4.1875 12.5625 4.1875H54.4375C60.0208 4.1875 62.8125 6.97917 62.8125 12.5625V54.4375ZM58.625 12.5625C58.625 9.77083 57.2292 8.375 54.4375 8.375H12.5625C9.77083 8.375 8.375 9.77083 8.375 12.5625V54.4375C8.375 57.2292 9.77083 58.625 12.5625 58.625H54.4375C57.2292 58.625 58.625 57.2292 58.625 54.4375V12.5625Z" fill="white"/>
<path d="M58.625 12.5625V54.4375C58.625 57.2292 57.2292 58.625 54.4375 58.625H12.5625C9.77083 58.625 8.375 57.2292 8.375 54.4375V12.5625C8.375 9.77083 9.77083 8.375 12.5625 8.375H54.4375C57.2292 8.375 58.625 9.77083 58.625 12.5625Z" fill="#F3F9F3"/>
<path d="M13.2832 44.3598C13.2832 45.7348 13.8294 47.0535 14.8017 48.0258C15.774 48.9981 17.0927 49.5443 18.4677 49.5443C19.8427 49.5443 21.1615 48.9981 22.1337 48.0258C23.106 47.0535 23.6523 45.7348 23.6523 44.3598C23.6523 42.9848 23.106 41.6661 22.1337 40.6938C21.1615 39.7215 19.8427 39.1753 18.4677 39.1753C17.0927 39.1753 15.774 39.7215 14.8017 40.6938C13.8294 41.6661 13.2832 42.9848 13.2832 44.3598Z" fill="black" stroke="black" stroke-width="1.3333" stroke-linecap="round" stroke-linejoin="round"/>
<path d="M34.0215 42.6315C34.0215 44.0066 34.5677 45.3253 35.54 46.2976C36.5123 47.2698 37.831 47.8161 39.206 47.8161C40.581 47.8161 41.8997 47.2698 42.872 46.2976C43.8443 45.3253 44.3905 44.0066 44.3905 42.6315C44.3905 41.2565 43.8443 39.9378 42.872 38.9655C41.8997 37.9932 40.581 37.447 39.206 37.447C37.831 37.447 36.5123 37.9932 35.54 38.9655C34.5677 39.9378 34.0215 41.2565 34.0215 42.6315Z" fill="black" stroke="black" stroke-width="1.3333" stroke-linecap="round" stroke-linejoin="round"/>
<path d="M44.3904 18.4373L23.6523 23.6218V30.5345L44.3904 25.35V18.4373Z" fill="black"/>
<path d="M23.6523 44.3599V30.5345M23.6523 30.5345V23.6218L44.3904 18.4373V25.35M23.6523 30.5345L44.3904 25.35M44.3904 42.6317V25.35" stroke="black" stroke-width="1.3333" stroke-linecap="round" stroke-linejoin="round"/>
</g>
<defs>
<clipPath id="clip0_670_1322">
<rect width="67" height="67" fill="white"/>
</clipPath>
</defs>
</svg>
