<svg width="85" height="85" viewBox="0 0 85 85" fill="none" xmlns="http://www.w3.org/2000/svg">
<g clip-path="url(#clip0_486_354)">
<path d="M79.6875 69.0625V15.9375C79.6875 8.85417 76.1458 5.3125 69.0625 5.3125H15.9375C8.85417 5.3125 5.3125 8.85417 5.3125 15.9375V69.0625C5.3125 76.1458 8.85417 79.6875 15.9375 79.6875H69.0625C76.1458 79.6875 79.6875 76.1458 79.6875 69.0625ZM15.9375 0H69.0625C79.6875 0 85 5.3125 85 15.9375V69.0625C85 79.6875 79.6875 85 69.0625 85H15.9375C5.3125 85 0 79.6875 0 69.0625V15.9375C0 5.3125 5.3125 0 15.9375 0Z" fill="#6A4608"/>
<path d="M79.6875 69.0625C79.6875 76.1458 76.1458 79.6875 69.0625 79.6875H15.9375C8.85417 79.6875 5.3125 76.1458 5.3125 69.0625V15.9375C5.3125 8.85417 8.85417 5.3125 15.9375 5.3125H69.0625C76.1458 5.3125 79.6875 8.85417 79.6875 15.9375V69.0625ZM74.375 15.9375C74.375 12.3958 72.6042 10.625 69.0625 10.625H15.9375C12.3958 10.625 10.625 12.3958 10.625 15.9375V69.0625C10.625 72.6042 12.3958 74.375 15.9375 74.375H69.0625C72.6042 74.375 74.375 72.6042 74.375 69.0625V15.9375Z" fill="white"/>
<path d="M74.375 15.9375V69.0625C74.375 72.6042 72.6042 74.375 69.0625 74.375H15.9375C12.3958 74.375 10.625 72.6042 10.625 69.0625V15.9375C10.625 12.3958 12.3958 10.625 15.9375 10.625H69.0625C72.6042 10.625 74.375 12.3958 74.375 15.9375Z" fill="#F3F9F3"/>
<path d="M36.7891 21.6484L42.5 27.3594L48.2109 21.6484H48.3438C50.3802 19.612 52.8594 18.5938 55.7812 18.5938H55.9141C58.7474 18.5938 61.2266 19.612 63.3516 21.6484V21.7812C65.388 23.8177 66.4062 26.2969 66.4062 29.2188V29.3516C66.4062 32.1849 65.388 34.6641 63.3516 36.7891L57.6406 42.5L63.3516 48.2109V48.3438C65.388 50.3802 66.4062 52.8594 66.4062 55.7812V55.9141C66.4062 58.7474 65.388 61.2266 63.3516 63.3516C61.2266 65.388 58.7474 66.4062 55.9141 66.4062H55.7812C52.8594 66.4062 50.3802 65.388 48.3438 63.3516H48.2109L42.5 57.6406L36.7891 63.3516C34.6641 65.388 32.1849 66.4062 29.3516 66.4062H29.2188C26.2969 66.4062 23.8177 65.388 21.7812 63.3516H21.6484C19.612 61.2266 18.5938 58.7474 18.5938 55.9141V55.7812C18.5938 52.8594 19.612 50.3802 21.6484 48.3438V48.2109L27.3594 42.5L21.6484 36.7891C19.612 34.6641 18.5938 32.1849 18.5938 29.3516V29.2188C18.5938 26.2969 19.612 23.8177 21.6484 21.7812L21.7812 21.6484C23.8177 19.612 26.2969 18.5938 29.2188 18.5938H29.3516C32.1849 18.5938 34.6641 19.612 36.7891 21.6484ZM33.0703 59.6328L42.5 50.0703L52.0625 59.6328C53.0365 60.6068 54.276 61.0938 55.7812 61.0938C57.2865 61.0938 58.5703 60.6068 59.6328 59.6328C60.6068 58.5703 61.0938 57.2865 61.0938 55.7812C61.0938 54.276 60.6068 53.0365 59.6328 52.0625L50.0703 42.5L59.6328 33.0703C60.6068 32.0078 61.0938 30.724 61.0938 29.2188C61.0938 27.7135 60.6068 26.474 59.6328 25.5C58.5703 24.4375 57.2865 23.9062 55.7812 23.9062C54.276 23.9062 53.0365 24.4375 52.0625 25.5L42.5 34.9297L33.0703 25.5C32.0078 24.4375 30.724 23.9062 29.2188 23.9062C27.7135 23.9062 26.474 24.4375 25.5 25.5C24.4375 26.474 23.9062 27.7135 23.9062 29.2188C23.9062 30.724 24.4375 32.0078 25.5 33.0703L34.9297 42.5L25.5 52.0625C24.4375 53.0365 23.9062 54.276 23.9062 55.7812C23.9062 57.2865 24.4375 58.5703 25.5 59.6328C26.474 60.6068 27.7135 61.0938 29.2188 61.0938C30.724 61.0938 32.0078 60.6068 33.0703 59.6328Z" fill="#482111"/>
<path d="M33.0703 59.6328C32.0078 60.6068 30.724 61.0938 29.2188 61.0938C27.7135 61.0938 26.474 60.6068 25.5 59.6328C24.4375 58.5703 23.9062 57.2865 23.9062 55.7812C23.9062 54.276 24.4375 53.0365 25.5 52.0625L34.9297 42.5L25.5 33.0703C24.4375 32.0078 23.9062 30.724 23.9062 29.2188C23.9062 27.7135 24.4375 26.474 25.5 25.5C26.474 24.4375 27.7135 23.9062 29.2188 23.9062C30.724 23.9062 32.0078 24.4375 33.0703 25.5L42.5 34.9297L52.0625 25.5C53.0365 24.4375 54.276 23.9062 55.7812 23.9062C57.2865 23.9062 58.5703 24.4375 59.6328 25.5C60.6068 26.474 61.0938 27.7135 61.0938 29.2188C61.0938 30.724 60.6068 32.0078 59.6328 33.0703L50.0703 42.5L59.6328 52.0625C60.6068 53.0365 61.0938 54.276 61.0938 55.7812C61.0938 57.2865 60.6068 58.5703 59.6328 59.6328C58.5703 60.6068 57.2865 61.0938 55.7812 61.0938C54.276 61.0938 53.0365 60.6068 52.0625 59.6328L42.5 50.0703L33.0703 59.6328Z" fill="#F73636"/>
</g>
<defs>
<clipPath id="clip0_486_354">
<rect width="85" height="85" fill="white"/>
</clipPath>
</defs>
</svg>
