<svg width="39" height="39" viewBox="0 0 39 39" fill="none" xmlns="http://www.w3.org/2000/svg">
<path d="M13.1511 2.08593L12.6136 3.1534H5.44734C4.12606 3.1534 3.05859 4.22088 3.05859 5.54215C3.05859 6.86342 4.12606 7.9309 5.44734 7.9309H34.1123C35.4336 7.9309 36.5011 6.86343 36.5011 5.54215C36.5011 4.22087 35.4336 3.1534 34.1123 3.1534H26.9461L26.4086 2.08593C26.0055 1.27226 25.1769 0.764648 24.2737 0.764648H15.286C14.3828 0.764648 13.5542 1.27226 13.1511 2.08593ZM34.1123 10.3196H5.44734L7.02989 35.6255C7.14933 37.5141 8.71695 38.9846 10.6056 38.9846H28.9541C30.8427 38.9846 32.4104 37.5141 32.5298 35.6255L34.1123 10.3196Z" fill="black" fill-opacity="0.5"/>
</svg>
