<svg width="133" height="133" viewBox="0 0 133 133" fill="none" xmlns="http://www.w3.org/2000/svg">
<g clip-path="url(#clip0_269_208)">
<path d="M28.2621 28.4703L27.5348 28.9898C19.153 37.718 14.304 47.9701 12.9879 59.7461V60.0578L12.5723 64.318V64.5258L12.6762 65.5648V66.0844C13.5074 78.0682 18.6335 88.4935 28.0543 97.3602C38.6527 107.266 51.4678 112.219 66.4996 112.219C81.4621 112.219 94.2772 107.266 104.945 97.3602C114.366 88.5628 119.526 78.2068 120.427 66.2922C120.081 64.976 120.115 63.6945 120.531 62.4477L120.219 59.7461H120.323C118.868 47.6237 113.638 37.1984 104.633 28.4703C93.9655 17.8026 81.2543 12.4688 66.4996 12.4688C51.6064 12.4688 38.8952 17.768 28.366 28.3664L28.2621 28.4703ZM25.3527 25.3531C36.7132 13.9927 50.4288 8.3125 66.4996 8.3125C82.4319 8.3125 96.1129 14.0273 107.543 25.457C117.241 34.9471 122.851 46.2036 124.375 59.2266L124.687 63.175C124.271 64.0062 124.271 64.8375 124.687 65.6688L124.583 66.0844V66.2922C123.683 79.3844 118.072 90.7448 107.75 100.373C96.3207 111.041 82.5704 116.375 66.4996 116.375C50.3595 116.375 36.5746 111.041 25.1449 100.373C14.8928 90.7448 9.35117 79.3844 8.51992 66.2922V66.0844L8.41602 64.5258V64.318L8.83164 59.3305V59.2266C10.2863 46.2036 15.7587 34.9125 25.2488 25.3531V25.457L25.3527 25.3531Z" fill="#DADCE7"/>
<path d="M25.3527 25.3531L25.2488 25.457V25.3531C15.7587 34.9125 10.2863 46.2036 8.83164 59.2266V59.3305L8.41602 64.318V64.5258L8.51992 66.0844V66.2922C9.35117 79.3844 14.8928 90.7448 25.1449 100.373C36.5746 111.041 50.3595 116.375 66.4996 116.375C82.5704 116.375 96.3207 111.041 107.75 100.373C118.072 90.7448 123.683 79.3844 124.583 66.2922V66.0844L124.687 65.6688C124.271 64.8375 124.271 64.0062 124.687 63.175L124.375 59.2266C122.851 46.2036 117.24 34.9471 107.543 25.457C96.1129 14.0273 82.4319 8.3125 66.4996 8.3125C50.4288 8.3125 36.7131 13.9927 25.3527 25.3531ZM28.2621 28.4703L28.366 28.3664C38.8952 17.768 51.6064 12.4688 66.4996 12.4688C81.2543 12.4688 93.9655 17.8026 104.633 28.4703C113.638 37.1984 118.868 47.6237 120.323 59.7461H120.219L120.531 62.4477C120.115 63.6945 120.081 64.976 120.427 66.2922C119.526 78.2068 114.366 88.5628 104.945 97.3602C94.2772 107.266 81.4621 112.219 66.4996 112.219C51.4678 112.219 38.6527 107.266 28.0543 97.3602C18.6335 88.4935 13.5074 78.0682 12.6762 66.0844V65.5648L12.5723 64.5258V64.318L12.9879 60.0578V59.7461C14.304 47.9701 19.153 37.718 27.5348 28.9898L28.2621 28.4703ZM4.25977 64.5258V64.318L4.67539 58.707C6.19935 44.7836 12.0527 32.6958 22.2355 22.4438L22.3395 22.3398C34.6004 10.2174 49.3204 4.15625 66.4996 4.15625C83.6095 4.15625 98.2603 10.2521 110.452 22.4438C120.843 32.6958 126.834 44.7836 128.428 58.707L128.843 64.318V64.5258L128.739 66.5C127.77 80.7005 121.708 92.9961 110.556 103.387C98.3642 114.816 83.6788 120.531 66.4996 120.531C49.2512 120.531 34.4965 114.816 22.2355 103.387C11.2215 92.9961 5.26419 80.7005 4.36367 66.5L4.25977 64.5258Z" fill="#FBAE42"/>
<path d="M4.25977 64.5258L4.36367 66.5C5.26419 80.7005 11.2215 92.9961 22.2355 103.387C34.4965 114.816 49.2512 120.531 66.4996 120.531C83.6788 120.531 98.3642 114.816 110.556 103.387C121.708 92.9961 127.77 80.7005 128.739 66.5L128.843 64.5258V64.318L128.428 58.707C126.834 44.7836 120.843 32.6958 110.452 22.4438C98.2603 10.2521 83.6095 4.15625 66.4996 4.15625C49.3204 4.15625 34.6004 10.2174 22.3395 22.3398L22.2355 22.4438C12.0527 32.6958 6.19935 44.7836 4.67539 58.707L4.25977 64.318V64.5258ZM0.103516 64.4219L0.519141 58.2914C2.18164 43.3982 8.45065 30.4445 19.3262 19.4305C32.4184 6.47682 48.1428 0 66.4996 0C84.7871 0 100.408 6.47682 113.361 19.4305C124.445 30.4445 130.852 43.3982 132.584 58.2914L133 64.4219V65.8766L132.896 66.5C131.926 81.8781 125.414 95.1781 113.361 106.4C100.408 118.592 84.7871 124.688 66.4996 124.688C48.1428 124.688 32.4184 118.592 19.3262 106.4C7.48086 95.1781 1.10794 81.8781 0.207422 66.5L0.103516 64.4219Z" fill="#9696A3"/>
<path d="M0.103906 64.4219L0.207813 66.5C1.10833 81.8781 7.48125 95.1781 19.3266 106.4C32.4188 118.592 48.1432 124.688 66.5 124.688C84.7875 124.688 100.408 118.592 113.362 106.4C125.415 95.1781 131.926 81.8781 132.896 66.5L133 65.8766V66.5C133 84.8568 126.454 100.512 113.362 113.466C100.408 126.489 84.7875 133 66.5 133C48.1432 133 32.4188 126.489 19.3266 113.466C6.44219 100.512 0 84.8568 0 66.5L0.103906 64.4219Z" fill="#747487"/>
<g clip-path="url(#clip1_269_208)">
<path d="M89.8983 59.0073L58.6846 41.1034L58.3108 40.8903L57.2828 40.464H57.0959L56.8155 40.5706L56.4417 40.6771L55.7875 40.8903H55.6941L55.5072 40.9968L55.1333 41.4231L54.9464 41.6363L54.4792 42.3823L54.1054 43.7677L54.2923 44.5137V44.6202L59.8061 60.1795C60.1799 61.2452 60.1799 62.3109 59.8061 63.3767L54.2923 78.9359V79.0425L54.1988 80.1082V80.2148L54.853 81.9199L55.1333 82.2396L55.2268 82.3462L56.6286 83.0922H56.909H57.2828L58.3108 82.7725L58.6846 82.4528L89.2441 65.1884L89.9917 64.7621L90.9263 63.8029L91.1132 63.4832L91.487 62.8438V61.0321L91.1132 60.073L91.0197 59.8598L90.7394 59.6467L90.3656 59.2204L89.8983 59.0073ZM50.8345 77.3374L56.3483 61.7781L50.8345 46.2188L50.3672 43.7677C50.3672 41.8494 50.8345 40.3574 51.769 39.2917L52.3297 38.5457L54.0119 37.0537L55.2268 36.6275L55.7875 36.4143L57.0959 36.2012H57.2828C58.4042 36.2012 59.4322 36.5564 60.3668 37.2669L91.5805 55.1707L91.8608 55.2773L93.3561 56.5561L94.2906 57.835L95.1317 60.1795V63.5898L94.0103 66.1475C93.5119 67.0001 92.7954 67.746 91.8608 68.3855L90.9263 69.0249L60.3668 86.2893C59.4322 86.9998 58.4042 87.355 57.2828 87.355H56.909L55.881 87.2485C54.3857 86.8932 53.2331 86.2183 52.4232 85.2236L51.9559 84.6908C51.146 83.483 50.6475 82.2041 50.4606 80.8542C50.2737 79.6464 50.3983 78.4741 50.8345 77.3374Z" fill="#432315"/>
<path d="M89.8984 59.0071L90.3657 59.2203L90.7395 59.6466L91.0199 59.8597L91.1133 60.0728L91.4871 61.032V62.8437L91.1133 63.4831L90.9264 63.8028L89.9919 64.7619L89.2442 65.1882L58.6847 82.4527L58.3109 82.7724L57.2829 83.0921H56.9091H56.6287L55.2269 82.3461L55.1335 82.2395L54.8531 81.9198L54.1989 80.2147V80.1081L54.2924 79.0424V78.9358L59.8062 63.3765C60.18 62.3108 60.18 61.2451 59.8062 60.1794L54.2924 44.6201V44.5135L54.1055 43.7676L54.4793 42.3821L54.9466 41.6361L55.1335 41.423L55.5073 40.9967L55.6942 40.8901H55.7876L56.4418 40.677L56.8156 40.5704L57.096 40.4639H57.2829L58.3109 40.8901L58.6847 41.1033L89.8984 59.0071ZM63.264 58.5809C64.0116 60.7123 64.0116 62.8437 63.264 64.9751L58.7782 77.657L86.721 61.8845L58.7782 45.899L63.264 58.5809Z" fill="#432315"/>
<path d="M63.2631 58.5808L58.7773 45.8989L86.7201 61.8845L58.7773 77.6569L63.2631 64.975C64.0108 62.8436 64.0108 60.7122 63.2631 58.5808Z" fill="#432315"/>
</g>
</g>
<defs>
<clipPath id="clip0_269_208">
<rect width="133" height="133" fill="white"/>
</clipPath>
<clipPath id="clip1_269_208">
<rect width="44.858" height="51.1538" fill="white" transform="translate(50.3672 36.2012)"/>
</clipPath>
</defs>
</svg>
