<svg width="384" height="128" viewBox="0 0 384 128" fill="none" xmlns="http://www.w3.org/2000/svg">
<path d="M0 108.5V11.9C0.0666667 3.96667 4.06667 0 12 0H372C380 0 384 3.96667 384 11.9V108.5C383.8 116.167 379.8 120 372 120H12C4.2 120 0.2 116.167 0 108.5ZM373 4.1L12 4H11.8L10.8 4.1C6.26667 4.43334 4 7.03334 4 11.9V108C4 113.333 6.66667 116 12 116H372C377.334 116 380 113.333 380 108V11.9C380 6.96667 377.667 4.36667 373 4.1Z" fill="#D18F20"/>
<path d="M372.998 4.1C377.665 4.36667 379.998 6.96667 379.998 11.9V108C379.998 113.333 377.332 116 371.998 116H11.9981C6.66472 116 3.99805 113.333 3.99805 108V11.9C3.99805 7.03334 6.26472 4.43333 10.7981 4.1L11.7981 4H11.9981L372.998 4.1ZM7.99805 108C7.99805 110.667 9.33138 112 11.9981 112H371.998C374.665 112 375.998 110.667 375.998 108V64.9C375.998 62.1386 373.76 59.9 370.998 59.9H12.998C10.2366 59.9 7.99805 62.1386 7.99805 64.9V108Z" fill="#FFB331"/>
<path d="M384 108.5V116C384 124 380 128 372 128H12C4 128 0 124 0 116V108.5C0.2 116.167 4.2 120 12 120H372C379.8 120 383.8 116.167 384 108.5Z" fill="#6A4608"/>
<path d="M8 108V64.8999C8 62.1385 10.2386 59.8999 13 59.8999H371C373.762 59.8999 376 62.1385 376 64.8999V108C376 110.667 374.667 112 372 112H12C9.33333 112 8 110.667 8 108Z" fill="#D19123"/>
</svg>
