<svg width="133" height="133" viewBox="0 0 133 133" fill="none" xmlns="http://www.w3.org/2000/svg">
<g clip-path="url(#clip0_269_178)">
<path d="M28.2621 28.4703L27.5348 28.9898C19.153 37.718 14.304 47.9701 12.9879 59.7461V60.0578L12.5723 64.318V64.5258L12.6762 65.5648V66.0844C13.5074 78.0682 18.6335 88.4935 28.0543 97.3602C38.6527 107.266 51.4678 112.219 66.4996 112.219C81.4621 112.219 94.2772 107.266 104.945 97.3602C114.366 88.5628 119.526 78.2068 120.427 66.2922C120.081 64.976 120.115 63.6945 120.531 62.4477L120.219 59.7461H120.323C118.868 47.6237 113.638 37.1984 104.633 28.4703C93.9655 17.8026 81.2543 12.4688 66.4996 12.4688C51.6064 12.4688 38.8952 17.768 28.366 28.3664L28.2621 28.4703ZM25.3527 25.3531C36.7132 13.9927 50.4288 8.3125 66.4996 8.3125C82.4319 8.3125 96.1129 14.0273 107.543 25.457C117.241 34.9471 122.851 46.2036 124.375 59.2266L124.687 63.175C124.271 64.0062 124.271 64.8375 124.687 65.6688L124.583 66.0844V66.2922C123.683 79.3844 118.072 90.7448 107.75 100.373C96.3207 111.041 82.5704 116.375 66.4996 116.375C50.3595 116.375 36.5746 111.041 25.1449 100.373C14.8928 90.7448 9.35117 79.3844 8.51992 66.2922V66.0844L8.41602 64.5258V64.318L8.83164 59.3305V59.2266C10.2863 46.2036 15.7587 34.9125 25.2488 25.3531V25.457L25.3527 25.3531Z" fill="#DADCE7"/>
<path d="M25.3527 25.3531L25.2488 25.457V25.3531C15.7587 34.9125 10.2863 46.2036 8.83164 59.2266V59.3305L8.41602 64.318V64.5258L8.51992 66.0844V66.2922C9.35117 79.3844 14.8928 90.7448 25.1449 100.373C36.5746 111.041 50.3595 116.375 66.4996 116.375C82.5704 116.375 96.3207 111.041 107.75 100.373C118.072 90.7448 123.683 79.3844 124.583 66.2922V66.0844L124.687 65.6688C124.271 64.8375 124.271 64.0062 124.687 63.175L124.375 59.2266C122.851 46.2036 117.24 34.9471 107.543 25.457C96.1129 14.0273 82.4319 8.3125 66.4996 8.3125C50.4288 8.3125 36.7131 13.9927 25.3527 25.3531ZM28.2621 28.4703L28.366 28.3664C38.8952 17.768 51.6064 12.4688 66.4996 12.4688C81.2543 12.4688 93.9655 17.8026 104.633 28.4703C113.638 37.1984 118.868 47.6237 120.323 59.7461H120.219L120.531 62.4477C120.115 63.6945 120.081 64.976 120.427 66.2922C119.526 78.2068 114.366 88.5628 104.945 97.3602C94.2772 107.266 81.4621 112.219 66.4996 112.219C51.4678 112.219 38.6527 107.266 28.0543 97.3602C18.6335 88.4935 13.5074 78.0682 12.6762 66.0844V65.5648L12.5723 64.5258V64.318L12.9879 60.0578V59.7461C14.304 47.9701 19.153 37.718 27.5348 28.9898L28.2621 28.4703ZM4.25977 64.5258V64.318L4.67539 58.707C6.19935 44.7836 12.0527 32.6958 22.2355 22.4438L22.3395 22.3398C34.6004 10.2174 49.3204 4.15625 66.4996 4.15625C83.6095 4.15625 98.2603 10.2521 110.452 22.4438C120.843 32.6958 126.834 44.7836 128.428 58.707L128.843 64.318V64.5258L128.739 66.5C127.77 80.7005 121.708 92.9961 110.556 103.387C98.3642 114.816 83.6788 120.531 66.4996 120.531C49.2512 120.531 34.4965 114.816 22.2355 103.387C11.2215 92.9961 5.26419 80.7005 4.36367 66.5L4.25977 64.5258Z" fill="#FBAE42"/>
<path fill-rule="evenodd" clip-rule="evenodd" d="M61.4729 39.6085C63.2816 38.2575 65.7844 38.2575 67.5932 39.6085L69.8194 41.2713C76.3589 46.1558 81.9607 52.1467 86.3632 58.9633L87.0776 60.0691C88.5036 62.2771 86.8904 65.1637 84.2303 65.1637H81.8987C82.0336 68.2118 81.8643 71.2693 81.3908 74.2917C80.9206 77.2952 78.2925 79.512 75.202 79.512H68.7489V68.5793C68.7489 66.2896 66.8613 64.4335 64.5329 64.4335C62.2045 64.4335 60.3169 66.2896 60.3169 68.5793V79.512H53.864C50.7737 79.512 48.1455 77.2952 47.6752 74.2917C47.2018 71.2693 47.0325 68.2118 47.1674 65.1637H44.8353C42.1752 65.1637 40.5621 62.2771 41.9882 60.069L42.7024 58.9631C47.1049 52.1466 52.7071 46.1558 59.2463 41.2715L61.4729 39.6085Z" fill="#432315"/>
<path d="M4.25977 64.5258L4.36367 66.5C5.26419 80.7005 11.2215 92.9961 22.2355 103.387C34.4965 114.816 49.2512 120.531 66.4996 120.531C83.6788 120.531 98.3642 114.816 110.556 103.387C121.708 92.9961 127.77 80.7005 128.739 66.5L128.843 64.5258V64.318L128.428 58.707C126.834 44.7836 120.843 32.6958 110.452 22.4438C98.2603 10.2521 83.6095 4.15625 66.4996 4.15625C49.3204 4.15625 34.6004 10.2174 22.3395 22.3398L22.2355 22.4438C12.0527 32.6958 6.19935 44.7836 4.67539 58.707L4.25977 64.318V64.5258ZM0.103516 64.4219L0.519141 58.2914C2.18164 43.3982 8.45065 30.4445 19.3262 19.4305C32.4184 6.47682 48.1428 0 66.4996 0C84.7871 0 100.408 6.47682 113.361 19.4305C124.445 30.4445 130.852 43.3982 132.584 58.2914L133 64.4219V65.8766L132.896 66.5C131.926 81.8781 125.414 95.1781 113.361 106.4C100.408 118.592 84.7871 124.688 66.4996 124.688C48.1428 124.688 32.4184 118.592 19.3262 106.4C7.48086 95.1781 1.10794 81.8781 0.207422 66.5L0.103516 64.4219Z" fill="#9696A3"/>
<path d="M0.103906 64.4219L0.207813 66.5C1.10833 81.8781 7.48125 95.1781 19.3266 106.4C32.4188 118.592 48.1432 124.688 66.5 124.688C84.7875 124.688 100.408 118.592 113.362 106.4C125.415 95.1781 131.926 81.8781 132.896 66.5L133 65.8766V66.5C133 84.8568 126.454 100.512 113.362 113.466C100.408 126.489 84.7875 133 66.5 133C48.1432 133 32.4188 126.489 19.3266 113.466C6.44219 100.512 0 84.8568 0 66.5L0.103906 64.4219Z" fill="#747487"/>
</g>
<defs>
<clipPath id="clip0_269_178">
<rect width="133" height="133" fill="white"/>
</clipPath>
</defs>
</svg>
