<svg width="264" height="88" viewBox="0 0 264 88" fill="none" xmlns="http://www.w3.org/2000/svg">
<g clip-path="url(#clip0_341_341)">
<path d="M256.438 2.81875L8.25 2.75H8.1125L7.425 2.81875C4.30833 3.04792 2.75 4.83542 2.75 8.18125V74.25C2.75 77.9167 4.58333 79.75 8.25 79.75H255.75C259.417 79.75 261.25 77.9167 261.25 74.25V8.18125C261.25 4.78958 259.646 3.00208 256.438 2.81875ZM0 74.5938V8.18125C0.0458333 2.72708 2.79583 0 8.25 0H255.75C261.25 0 264 2.72708 264 8.18125V74.5938C263.862 79.8646 261.112 82.5 255.75 82.5H8.25C2.8875 82.5 0.1375 79.8646 0 74.5938Z" fill="#D18F20"/>
<path d="M256.3 5.56875L8.3875 5.5L7.7 5.56875H7.63125C6.21042 5.70625 5.5 6.57708 5.5 8.18125V74.25C5.5 76.0833 6.41667 77 8.25 77H255.75C257.583 77 258.5 76.0833 258.5 74.25V8.18125C258.5 6.57708 257.767 5.70625 256.3 5.56875ZM256.438 2.81875C259.646 3.00208 261.25 4.78958 261.25 8.18125V74.25C261.25 77.9167 259.417 79.75 255.75 79.75H8.25C4.58333 79.75 2.75 77.9167 2.75 74.25V8.18125C2.75 4.83542 4.30833 3.04792 7.425 2.81875L8.1125 2.75H8.25L256.438 2.81875Z" fill="#FFBE4E"/>
<path d="M256.3 5.56875C257.767 5.70625 258.5 6.57708 258.5 8.18125V74.25C258.5 76.0833 257.583 77 255.75 77H8.25C6.41667 77 5.5 76.0833 5.5 74.25V8.18125C5.5 6.57708 6.21042 5.70625 7.63125 5.56875H7.7L8.3875 5.5L256.3 5.56875Z" fill="url(#paint0_linear_341_341)"/>
<path d="M264 74.5938V79.75C264 85.25 261.25 88 255.75 88H8.25C2.75 88 0 85.25 0 79.75V74.5938C0.1375 79.8646 2.8875 82.5 8.25 82.5H255.75C261.112 82.5 263.862 79.8646 264 74.5938Z" fill="#6A4608"/>
</g>
<defs>
<linearGradient id="paint0_linear_341_341" x1="132" y1="2.81875" x2="132" y2="79.6812" gradientUnits="userSpaceOnUse">
<stop stop-color="#FFAA18"/>
<stop offset="1" stop-color="#FFBC4A"/>
</linearGradient>
<clipPath id="clip0_341_341">
<rect width="264" height="88" fill="white"/>
</clipPath>
</defs>
</svg>
