<svg width="133" height="133" viewBox="0 0 133 133" fill="none" xmlns="http://www.w3.org/2000/svg">
<path d="M28.2638 28.4703L27.5365 28.9898C19.1548 37.718 14.3059 47.9701 12.9898 59.7461V60.0578L12.5742 64.318V64.5258L12.6781 65.5648V66.0844C13.5093 78.0682 18.6353 88.4935 28.056 97.3602C38.6543 107.266 51.4693 112.219 66.5009 112.219C81.4632 112.219 94.2781 107.266 104.946 97.3602C114.366 88.5628 119.527 78.2068 120.428 66.2922C120.081 64.976 120.116 63.6945 120.531 62.4477L120.22 59.7461H120.324C118.869 47.6237 113.639 37.1984 104.634 28.4703C93.9664 17.8026 81.2554 12.4688 66.5009 12.4688C51.6078 12.4688 38.8968 17.768 28.3677 28.3664L28.2638 28.4703ZM25.3545 25.3531C36.7148 13.9927 50.4302 8.3125 66.5009 8.3125C82.433 8.3125 96.1138 14.0273 107.543 25.457C117.241 34.9471 122.852 46.2036 124.376 59.2266L124.688 63.175C124.272 64.0062 124.272 64.8375 124.688 65.6688L124.584 66.0844V66.2922C123.683 79.3844 118.072 90.7448 107.751 100.373C96.3216 111.041 82.5715 116.375 66.5009 116.375C50.361 116.375 36.5762 111.041 25.1467 100.373C14.8947 90.7448 9.35311 79.3844 8.52187 66.2922V66.0844L8.41797 64.5258V64.318L8.83359 59.3305V59.2266C10.2883 46.2036 15.7606 34.9125 25.2506 25.3531V25.457L25.3545 25.3531Z" fill="#DADCE7"/>
<path d="M25.3544 25.3531L25.2505 25.457V25.3531C15.7605 34.9125 10.2882 46.2036 8.83354 59.2266V59.3305L8.41792 64.318V64.5258L8.52182 66.0844V66.2922C9.35306 79.3844 14.8947 90.7448 25.1466 100.373C36.5762 111.041 50.3609 116.375 66.5008 116.375C82.5714 116.375 96.3215 111.041 107.751 100.373C118.072 90.7448 123.683 79.3844 124.584 66.2922V66.0844L124.688 65.6687C124.272 64.8375 124.272 64.0063 124.688 63.175L124.376 59.2266C122.852 46.2036 117.241 34.9471 107.543 25.457C96.1137 14.0273 82.4329 8.3125 66.5008 8.3125C50.4302 8.3125 36.7147 13.9927 25.3544 25.3531ZM28.2638 28.4703L28.3677 28.3664C38.8967 17.768 51.6078 12.4688 66.5008 12.4688C81.2553 12.4688 93.9663 17.8026 104.634 28.4703C113.639 37.1984 118.869 47.6237 120.324 59.7461H120.22L120.531 62.4477C120.116 63.6945 120.081 64.976 120.427 66.2922C119.527 78.2068 114.366 88.5628 104.946 97.3602C94.2781 107.266 81.4631 112.219 66.5008 112.219C51.4692 112.219 38.6543 107.266 28.056 97.3602C18.6352 88.4935 13.5093 78.0682 12.678 66.0844V65.5648L12.5741 64.5258V64.318L12.9897 60.0578V59.7461C14.3059 47.9701 19.1548 37.718 27.5364 28.9898L28.2638 28.4703ZM4.26172 64.5258V64.318L4.67734 58.707C6.20128 44.7836 12.0546 32.6958 22.2373 22.4438L22.3412 22.3398C34.602 10.2174 49.3218 4.15625 66.5008 4.15625C83.6105 4.15625 98.2611 10.2521 110.453 22.4438C120.843 32.6958 126.835 44.7836 128.428 58.707L128.844 64.318V64.5258L128.74 66.5C127.77 80.7005 121.709 92.9961 110.557 103.387C98.365 114.816 83.6798 120.531 66.5008 120.531C49.2526 120.531 34.4981 114.816 22.2373 103.387C11.2234 92.9961 5.26613 80.7005 4.36562 66.5L4.26172 64.5258Z" fill="#FBAE42"/>
<path d="M4.26167 64.5258L4.36557 66.5C5.26608 80.7005 11.2233 92.9961 22.2372 103.387C34.498 114.816 49.2525 120.531 66.5007 120.531C83.6797 120.531 98.3649 114.816 110.556 103.387C121.709 92.9961 127.77 80.7005 128.74 66.5L128.844 64.5258V64.318L128.428 58.707C126.835 44.7836 120.843 32.6958 110.453 22.4438C98.261 10.2521 83.6104 4.15625 66.5007 4.15625C49.3218 4.15625 34.6019 10.2174 22.3411 22.3398L22.2372 22.4438C12.0545 32.6958 6.20123 44.7836 4.67729 58.707L4.26167 64.318V64.5258ZM0.105469 64.4219L0.521089 58.2914C2.18357 43.3982 8.4525 30.4445 19.3279 19.4305C32.4199 6.47682 48.1442 0 66.5007 0C84.788 0 100.408 6.47682 113.362 19.4305C124.445 30.4445 130.853 43.3982 132.584 58.2914L133 64.4219V65.8766L132.896 66.5C131.926 81.8781 125.415 95.1781 113.362 106.4C100.408 118.592 84.788 124.688 66.5007 124.688C48.1442 124.688 32.4199 118.592 19.3279 106.4C7.48272 95.1781 1.10988 81.8781 0.209374 66.5L0.105469 64.4219Z" fill="#9696A3"/>
<path d="M0.103905 64.4219L0.20781 66.5C1.10832 81.8781 7.48116 95.1781 19.3263 106.4C32.4184 118.592 48.1426 124.688 66.4992 124.688C84.7865 124.688 100.407 118.592 113.36 106.4C125.413 95.1781 131.925 81.8781 132.894 66.5L132.998 65.8766V66.5C132.998 84.8568 126.452 100.512 113.36 113.466C100.407 126.489 84.7865 133 66.4992 133C48.1426 133 32.4184 126.489 19.3263 113.466C6.44211 100.512 0 84.8568 0 66.5L0.103905 64.4219Z" fill="#747487"/>
<path d="M53.0732 42.7349C57.6763 39.7105 63.2295 38.2916 68.7949 38.7065C73.2733 39.0405 77.5514 40.5473 81.1641 43.0376V42.3032C81.1642 41.3048 81.5839 40.3649 82.3008 39.6851L82.4375 39.562C83.1347 38.9629 84.0296 38.6393 84.9463 38.6392C85.9243 38.6392 86.878 39.007 87.5928 39.6851L87.7236 39.8149C88.3606 40.4821 88.7294 41.367 88.7295 42.3032V52.0425C88.7295 53.0411 88.3095 53.9806 87.5928 54.6606V54.6616C86.8782 55.3392 85.925 55.7065 84.9473 55.7065H74.6084C73.6306 55.7065 72.6775 55.3391 71.9629 54.6616L71.9619 54.6606C71.2451 53.9804 70.8262 53.0406 70.8262 52.0425C70.8262 51.0443 71.2451 50.1045 71.9619 49.4243L71.9629 49.4233C72.6775 48.7459 73.6306 48.3784 74.6084 48.3784H75.6992C73.6192 47.1558 71.2646 46.3637 68.79 46.0835C64.8715 45.6399 60.9177 46.5072 57.6133 48.5259C54.31 50.5437 51.8698 53.5797 50.6924 57.0962C49.5156 60.611 49.6682 64.403 51.125 67.8257C52.5825 71.25 55.2616 74.1039 58.7207 75.8794C62.1811 77.6553 66.1941 78.2341 70.0645 77.5093L70.4258 77.438C74.1495 76.6605 77.4778 74.7159 79.875 71.9321C82.3476 69.0602 83.677 65.4737 83.6523 61.7915V61.7817C83.6523 60.7835 84.0709 59.8428 84.7881 59.1626C85.5026 58.4851 86.4562 58.1167 87.4346 58.1167C88.4129 58.1167 89.3657 58.4853 90.0801 59.1626C90.7971 59.8426 91.2168 60.7831 91.2168 61.7817C91.2159 67.1352 89.2651 72.3128 85.7119 76.4409C82.1604 80.5673 77.2276 83.3917 71.7559 84.4536C66.2848 85.5153 60.5929 84.7537 55.6377 82.2925C50.6814 79.8306 46.755 75.8123 44.541 70.8999C42.3263 65.9859 41.9678 60.4914 43.5293 55.3511C45.0904 50.2126 48.4686 45.76 53.0732 42.7349Z" fill="#432315" stroke="#432315" stroke-width="3"/>
</svg>
