<svg width="144" height="144" viewBox="0 0 144 144" fill="none" xmlns="http://www.w3.org/2000/svg">
<g clip-path="url(#clip0_251_907)">
<path d="M30.6008 30.825L29.8133 31.3875C20.7383 40.8375 15.4883 51.9375 14.0633 64.6875V65.025L13.6133 69.6375V69.8625L13.7258 70.9875V71.55C14.6258 84.525 20.1758 95.8125 30.3758 105.412C41.8508 116.137 55.7258 121.5 72.0008 121.5C88.2008 121.5 102.076 116.137 113.626 105.412C123.826 95.8875 129.413 84.675 130.388 71.775C130.013 70.35 130.051 68.9625 130.501 67.6125L130.163 64.6875H130.276C128.701 51.5625 123.038 40.275 113.288 30.825C101.738 19.275 87.9758 13.5 72.0008 13.5C55.8758 13.5 42.1133 19.2375 30.7133 30.7125L30.6008 30.825ZM27.4508 27.45C39.7508 15.15 54.6008 9 72.0008 9C89.2508 9 104.063 15.1875 116.438 27.5625C126.938 37.8375 133.013 50.025 134.663 64.125L135.001 68.4C134.551 69.3 134.551 70.2 135.001 71.1L134.888 71.55V71.775C133.913 85.95 127.838 98.25 116.663 108.675C104.288 120.225 89.4008 126 72.0008 126C54.5258 126 39.6008 120.225 27.2258 108.675C16.1258 98.25 10.1258 85.95 9.22578 71.775V71.55L9.11328 69.8625V69.6375L9.56328 64.2375V64.125C11.1383 50.025 17.0633 37.8 27.3383 27.45V27.5625L27.4508 27.45Z" fill="#DADCE7"/>
<path d="M27.4508 27.45L27.3383 27.5625V27.45C17.0633 37.8 11.1383 50.025 9.56328 64.125V64.2375L9.11328 69.6375V69.8625L9.22578 71.55V71.775C10.1258 85.95 16.1258 98.25 27.2258 108.675C39.6008 120.225 54.5258 126 72.0008 126C89.4008 126 104.288 120.225 116.663 108.675C127.838 98.25 133.913 85.95 134.888 71.775V71.55L135.001 71.1C134.551 70.2 134.551 69.3 135.001 68.4L134.663 64.125C133.013 50.025 126.938 37.8375 116.438 27.5625C104.063 15.1875 89.2508 9 72.0008 9C54.6008 9 39.7508 15.15 27.4508 27.45ZM30.6008 30.825L30.7133 30.7125C42.1133 19.2375 55.8758 13.5 72.0008 13.5C87.9758 13.5 101.738 19.275 113.288 30.825C123.038 40.275 128.701 51.5625 130.276 64.6875H130.163L130.501 67.6125C130.051 68.9625 130.013 70.35 130.388 71.775C129.413 84.675 123.826 95.8875 113.626 105.412C102.076 116.137 88.2008 121.5 72.0008 121.5C55.7258 121.5 41.8508 116.137 30.3758 105.412C20.1758 95.8125 14.6258 84.525 13.7258 71.55V70.9875L13.6133 69.8625V69.6375L14.0633 65.025V64.6875C15.4883 51.9375 20.7383 40.8375 29.8133 31.3875L30.6008 30.825ZM4.61328 69.8625V69.6375L5.06328 63.5625C6.71328 48.4875 13.0508 35.4 24.0758 24.3L24.1883 24.1875C37.4633 11.0625 53.4008 4.5 72.0008 4.5C90.5258 4.5 106.388 11.1 119.588 24.3C130.838 35.4 137.326 48.4875 139.051 63.5625L139.501 69.6375V69.8625L139.388 72C138.338 87.375 131.776 100.688 119.701 111.938C106.501 124.312 90.6008 130.5 72.0008 130.5C53.3258 130.5 37.3508 124.312 24.0758 111.938C12.1508 100.688 5.70078 87.375 4.72578 72L4.61328 69.8625Z" fill="#FBAE42"/>
<path d="M63 48.5H55.5C53.8431 48.5 52.5 49.8431 52.5 51.5V84.5C52.5 86.1569 53.8431 87.5 55.5 87.5H63C64.6568 87.5 66 86.1569 66 84.5V51.5C66 49.8431 64.6568 48.5 63 48.5Z" fill="black" stroke="white" stroke-linecap="round" stroke-linejoin="round"/>
<path d="M88.5 48.5H81C79.3432 48.5 78 49.8431 78 51.5V84.5C78 86.1569 79.3432 87.5 81 87.5H88.5C90.1569 87.5 91.5 86.1569 91.5 84.5V51.5C91.5 49.8431 90.1569 48.5 88.5 48.5Z" fill="black" stroke="white" stroke-linecap="round" stroke-linejoin="round"/>
<path d="M4.61328 69.8625L4.72578 72C5.70078 87.375 12.1508 100.688 24.0758 111.938C37.3508 124.312 53.3258 130.5 72.0008 130.5C90.6008 130.5 106.501 124.312 119.701 111.938C131.776 100.688 138.338 87.375 139.388 72L139.501 69.8625V69.6375L139.051 63.5625C137.326 48.4875 130.838 35.4 119.588 24.3C106.388 11.1 90.5258 4.5 72.0008 4.5C53.4008 4.5 37.4633 11.0625 24.1883 24.1875L24.0758 24.3C13.0508 35.4 6.71328 48.4875 5.06328 63.5625L4.61328 69.6375V69.8625ZM0.113281 69.75L0.563281 63.1125C2.36328 46.9875 9.15078 32.9625 20.9258 21.0375C35.1008 7.0125 52.1258 0 72.0008 0C91.8008 0 108.713 7.0125 122.738 21.0375C134.738 32.9625 141.676 46.9875 143.551 63.1125L144.001 69.75V71.325L143.888 72C142.838 88.65 135.788 103.05 122.738 115.2C108.713 128.4 91.8008 135 72.0008 135C52.1258 135 35.1008 128.4 20.9258 115.2C8.10078 103.05 1.20078 88.65 0.225781 72L0.113281 69.75Z" fill="#9696A3"/>
<path d="M0.1125 69.75L0.225 72C1.2 88.65 8.1 103.05 20.925 115.2C35.1 128.4 52.125 135 72 135C91.8 135 108.713 128.4 122.737 115.2C135.788 103.05 142.838 88.65 143.887 72L144 71.325V72C144 91.875 136.913 108.825 122.737 122.85C108.713 136.95 91.8 144 72 144C52.125 144 35.1 136.95 20.925 122.85C6.975 108.825 0 91.875 0 72L0.1125 69.75Z" fill="#747487"/>
</g>
<defs>
<clipPath id="clip0_251_907">
<rect width="144" height="144" fill="white"/>
</clipPath>
</defs>
</svg>
