<svg width="129" height="123" viewBox="0 0 129 123" fill="none" xmlns="http://www.w3.org/2000/svg">
<g clip-path="url(#clip0_656_1280)">
<path d="M27.4133 26.3297L26.7078 26.8102C18.5781 34.882 13.875 44.3633 12.5984 55.2539V55.5422L12.1953 59.482V59.6742L12.2961 60.6352V61.1156C13.1023 72.1984 18.0742 81.8398 27.2117 90.0398C37.4914 99.2008 49.9211 103.781 64.5008 103.781C79.0133 103.781 91.443 99.2008 101.79 90.0398C110.927 81.9039 115.933 72.3266 116.806 61.3078C116.47 60.0906 116.504 58.9055 116.907 57.7523L116.605 55.2539H116.705C115.295 44.043 110.222 34.4016 101.488 26.3297C91.1406 16.4641 78.8117 11.5312 64.5008 11.5312C50.0555 11.5312 37.7266 16.432 27.5141 26.2336L27.4133 26.3297ZM24.5914 23.4469C35.6102 12.9406 48.9133 7.6875 64.5008 7.6875C79.9539 7.6875 93.2234 12.9727 104.309 23.543C113.716 32.3195 119.158 42.7297 120.636 54.7734L120.938 58.425C120.535 59.1937 120.535 59.9625 120.938 60.7313L120.838 61.1156V61.3078C119.964 73.4156 114.522 83.9219 104.511 92.8266C93.425 102.692 80.0883 107.625 64.5008 107.625C48.8461 107.625 35.4758 102.692 24.3898 92.8266C14.4461 83.9219 9.07109 73.4156 8.26484 61.3078V61.1156L8.16406 59.6742V59.482L8.56719 54.8695V54.7734C9.97812 42.7297 15.2859 32.2875 24.4906 23.4469V23.543L24.5914 23.4469Z" fill="#DADCE7"/>
<path d="M24.5914 23.4469L24.4906 23.543V23.4469C15.2859 32.2875 9.97813 42.7297 8.56719 54.7734V54.8695L8.16406 59.482V59.6742L8.26484 61.1156V61.3078C9.07109 73.4156 14.4461 83.9219 24.3898 92.8266C35.4758 102.692 48.8461 107.625 64.5008 107.625C80.0883 107.625 93.425 102.692 104.511 92.8266C114.522 83.9219 119.964 73.4156 120.838 61.3078V61.1156L120.938 60.7313C120.535 59.9625 120.535 59.1937 120.938 58.425L120.636 54.7734C119.158 42.7297 113.716 32.3195 104.309 23.543C93.2234 12.9727 79.9539 7.6875 64.5008 7.6875C48.9133 7.6875 35.6102 12.9406 24.5914 23.4469ZM27.4133 26.3297L27.5141 26.2336C37.7266 16.432 50.0555 11.5312 64.5008 11.5312C78.8117 11.5312 91.1406 16.4641 101.487 26.3297C110.222 34.4016 115.295 44.043 116.705 55.2539H116.605L116.907 57.7523C116.504 58.9055 116.47 60.0906 116.806 61.3078C115.933 72.3266 110.927 81.9039 101.79 90.0398C91.443 99.2008 79.0133 103.781 64.5008 103.781C49.9211 103.781 37.4914 99.2008 27.2117 90.0398C18.0742 81.8398 13.1023 72.1984 12.2961 61.1156V60.6352L12.1953 59.6742V59.482L12.5984 55.5422V55.2539C13.875 44.3633 18.5781 34.882 26.7078 26.8102L27.4133 26.3297ZM4.13281 59.6742V59.482L4.53594 54.293C6.01406 41.4164 11.6914 30.2375 21.568 20.7563L21.6687 20.6602C33.5609 9.44922 47.8383 3.84375 64.5008 3.84375C81.0961 3.84375 95.3063 9.48125 107.131 20.7563C117.209 30.2375 123.021 41.4164 124.566 54.293L124.97 59.482V59.6742L124.869 61.5C123.928 74.6328 118.049 86.0039 107.232 95.6133C95.407 106.184 81.1633 111.469 64.5008 111.469C47.7711 111.469 33.4602 106.184 21.568 95.6133C10.8852 86.0039 5.10703 74.6328 4.23359 61.5L4.13281 59.6742Z" fill="#FBAE42"/>
<path d="M4.13281 59.6742L4.23359 61.5C5.10703 74.6328 10.8852 86.0039 21.568 95.6133C33.4602 106.184 47.7711 111.469 64.5008 111.469C81.1633 111.469 95.407 106.184 107.232 95.6133C118.049 86.0039 123.928 74.6328 124.869 61.5L124.97 59.6742V59.482L124.566 54.293C123.021 41.4164 117.209 30.2375 107.131 20.7563C95.3063 9.48125 81.0961 3.84375 64.5008 3.84375C47.8383 3.84375 33.5609 9.44922 21.6688 20.6602L21.568 20.7563C11.6914 30.2375 6.01406 41.4164 4.53594 54.293L4.13281 59.482V59.6742ZM0.101562 59.5781L0.504688 53.9086C2.11719 40.1352 8.19766 28.1555 18.7461 17.9695C31.4445 5.98984 46.6961 0 64.5008 0C82.2383 0 97.3891 5.98984 109.953 17.9695C120.703 28.1555 126.918 40.1352 128.598 53.9086L129.001 59.5781V60.9234L128.9 61.5C127.959 75.7219 121.644 88.0219 109.953 98.4C97.3891 109.675 82.2383 115.312 64.5008 115.312C46.6961 115.312 31.4445 109.675 18.7461 98.4C7.25703 88.0219 1.07578 75.7219 0.202344 61.5L0.101562 59.5781Z" fill="#9696A3"/>
<path d="M0.100781 59.5781L0.201563 61.5C1.075 75.7219 7.25625 88.0219 18.7453 98.4C31.4438 109.675 46.6953 115.312 64.5 115.312C82.2375 115.312 97.3883 109.675 109.952 98.4C121.643 88.0219 127.959 75.7219 128.899 61.5L129 60.9234V61.5C129 78.4766 122.651 92.9547 109.952 104.934C97.3883 116.978 82.2375 123 64.5 123C46.6953 123 31.4438 116.978 18.7453 104.934C6.24844 92.9547 0 78.4766 0 61.5L0.100781 59.5781Z" fill="#747487"/>
<g clip-path="url(#clip1_656_1280)">
<path fill-rule="evenodd" clip-rule="evenodd" d="M39.3354 31.5933C40.3895 29.3858 42.6997 27.8065 45.2886 27.8216H83.7104L83.7007 27.8217L83.7178 29.9135V27.8216H83.7104C86.2991 27.8065 88.6093 29.3858 89.6637 31.5933L89.6676 31.6018L93.6455 40.0319H35.3534L39.3314 31.6018L39.3354 31.5933ZM33.7852 45.2615H95.2137V50.9728C95.2137 52.0769 94.8 53.1733 94.0049 54.0122C93.2033 54.8582 92.0655 55.3797 90.826 55.3797H38.1729C36.9333 55.3797 35.7955 54.8582 34.9938 54.0122C34.1988 53.1733 33.7852 52.0769 33.7852 50.9728V45.2615ZM38.1729 62.7399C38.1729 61.5846 39.1552 60.6481 40.3668 60.6481H88.6321C89.8436 60.6481 90.826 61.5846 90.826 62.7399V82.2093C90.826 83.3188 90.3635 84.3831 89.5408 85.1676C88.7181 85.9524 87.6019 86.393 86.4382 86.393H80.9294V70.5377C80.9294 70.2942 80.8188 70.0607 80.6218 69.8884C80.4248 69.7164 80.158 69.6195 79.8794 69.6195H71.1369C70.8584 69.6195 70.5914 69.7164 70.3945 69.8884C70.1976 70.0607 70.087 70.2942 70.087 70.5377V86.393H42.5607C41.3969 86.393 40.2809 85.9524 39.458 85.1676C38.6352 84.3831 38.1729 83.3188 38.1729 82.2093V62.7399ZM44.763 69.6583V74.9335C44.763 76.0886 45.7452 77.0253 46.9568 77.0253H60.1816C61.3932 77.0253 62.3755 76.0886 62.3755 74.9335V69.6583C62.3755 68.5031 61.3932 67.5665 60.1816 67.5665H46.9568C45.7452 67.5665 44.763 68.5031 44.763 69.6583Z" fill="white"/>
</g>
</g>
<defs>
<clipPath id="clip0_656_1280">
<rect width="129" height="123" fill="white"/>
</clipPath>
<clipPath id="clip1_656_1280">
<rect width="61.4286" height="58.5714" fill="white" transform="translate(33.7852 27.8215)"/>
</clipPath>
</defs>
</svg>
