<svg width="64" height="64" viewBox="0 0 64 64" fill="none" xmlns="http://www.w3.org/2000/svg">
<g clip-path="url(#clip0_341_349)">
<path d="M13.6008 13.7L13.2508 13.95C9.21745 18.15 6.88411 23.0833 6.25078 28.75V28.9L6.05078 30.95V31.05L6.10078 31.55V31.8C6.50078 37.5667 8.96745 42.5833 13.5008 46.85C18.6008 51.6167 24.7674 54 32.0008 54C39.2008 54 45.3674 51.6167 50.5008 46.85C55.0341 42.6167 57.5174 37.6333 57.9508 31.9C57.7841 31.2667 57.8008 30.65 58.0008 30.05L57.8508 28.75H57.9008C57.2008 22.9167 54.6841 17.9 50.3508 13.7C45.2174 8.56667 39.1008 6 32.0008 6C24.8341 6 18.7174 8.55 13.6508 13.65L13.6008 13.7ZM12.2008 12.2C17.6674 6.73333 24.2674 4 32.0008 4C39.6674 4 46.2508 6.75 51.7508 12.25C56.4174 16.8167 59.1174 22.2333 59.8508 28.5L60.0008 30.4C59.8008 30.8 59.8008 31.2 60.0008 31.6L59.9508 31.8V31.9C59.5174 38.2 56.8174 43.6667 51.8508 48.3C46.3508 53.4333 39.7341 56 32.0008 56C24.2341 56 17.6008 53.4333 12.1008 48.3C7.16745 43.6667 4.50078 38.2 4.10078 31.9V31.8L4.05078 31.05V30.95L4.25078 28.55V28.5C4.95078 22.2333 7.58411 16.8 12.1508 12.2V12.25L12.2008 12.2Z" fill="#DADCE7"/>
<path d="M12.2008 12.2L12.1508 12.25V12.2C7.58411 16.8 4.95078 22.2333 4.25078 28.5V28.55L4.05078 30.95V31.05L4.10078 31.8V31.9C4.50078 38.2 7.16745 43.6667 12.1008 48.3C17.6008 53.4333 24.2341 56 32.0008 56C39.7341 56 46.3508 53.4333 51.8508 48.3C56.8174 43.6667 59.5174 38.2 59.9508 31.9V31.8L60.0008 31.6C59.8008 31.2 59.8008 30.8 60.0008 30.4L59.8508 28.5C59.1174 22.2333 56.4174 16.8167 51.7508 12.25C46.2508 6.75 39.6674 4 32.0008 4C24.2674 4 17.6674 6.73333 12.2008 12.2ZM13.6008 13.7L13.6508 13.65C18.7174 8.55 24.8341 6 32.0008 6C39.1008 6 45.2174 8.56667 50.3508 13.7C54.6841 17.9 57.2008 22.9167 57.9008 28.75H57.8508L58.0008 30.05C57.8008 30.65 57.7841 31.2667 57.9508 31.9C57.5174 37.6333 55.0341 42.6167 50.5008 46.85C45.3674 51.6167 39.2008 54 32.0008 54C24.7674 54 18.6008 51.6167 13.5008 46.85C8.96745 42.5833 6.50078 37.5667 6.10078 31.8V31.55L6.05078 31.05V30.95L6.25078 28.9V28.75C6.88411 23.0833 9.21745 18.15 13.2508 13.95L13.6008 13.7ZM2.05078 31.05V30.95L2.25078 28.25C2.98411 21.55 5.80078 15.7333 10.7008 10.8L10.7508 10.75C16.6508 4.91667 23.7341 2 32.0008 2C40.2341 2 47.2841 4.93333 53.1508 10.8C58.1508 15.7333 61.0341 21.55 61.8008 28.25L62.0008 30.95V31.05L61.9508 32C61.4841 38.8333 58.5675 44.75 53.2008 49.75C47.3341 55.25 40.2674 58 32.0008 58C23.7008 58 16.6008 55.25 10.7008 49.75C5.40078 44.75 2.53411 38.8333 2.10078 32L2.05078 31.05Z" fill="#FBAE42"/>
<path d="M35.5317 21.4393C35.9693 21.1896 36.5116 21.1868 36.9525 21.4312C37.3936 21.6761 37.6663 22.1317 37.6663 22.6249V37.0624C37.6663 37.5662 37.382 38.0302 36.9261 38.2709C36.4707 38.5111 35.9159 38.4905 35.4804 38.2172L23.4388 30.6547C23.0265 30.3957 22.7809 29.947 22.7913 29.4705C22.8019 28.9939 23.0668 28.5559 23.49 28.3142L35.5317 21.4393Z" fill="#2E0F07"/>
<path d="M2.05078 31.05L2.10078 32C2.53411 38.8333 5.40078 44.75 10.7008 49.75C16.6008 55.25 23.7008 58 32.0008 58C40.2674 58 47.3341 55.25 53.2008 49.75C58.5675 44.75 61.4841 38.8333 61.9508 32L62.0008 31.05V30.95L61.8008 28.25C61.0341 21.55 58.1508 15.7333 53.1508 10.8C47.2841 4.93333 40.2341 2 32.0008 2C23.7341 2 16.6508 4.91667 10.7508 10.75L10.7008 10.8C5.80078 15.7333 2.98411 21.55 2.25078 28.25L2.05078 30.95V31.05ZM0.0507812 31L0.250781 28.05C1.05078 20.8833 4.06745 14.65 9.30078 9.35C15.6008 3.11667 23.1674 0 32.0008 0C40.8008 0 48.3174 3.11667 54.5508 9.35C59.8841 14.65 62.9674 20.8833 63.8008 28.05L64.0008 31V31.7L63.9508 32C63.4841 39.4 60.3508 45.8 54.5508 51.2C48.3174 57.0667 40.8008 60 32.0008 60C23.1674 60 15.6008 57.0667 9.30078 51.2C3.60078 45.8 0.534115 39.4 0.100781 32L0.0507812 31Z" fill="#9696A3"/>
<path d="M0.05 31L0.1 32C0.533333 39.4 3.6 45.8 9.3 51.2C15.6 57.0667 23.1667 60 32 60C40.8 60 48.3167 57.0667 54.55 51.2C60.35 45.8 63.4833 39.4 63.95 32L64 31.7V32C64 40.8333 60.85 48.3667 54.55 54.6C48.3167 60.8667 40.8 64 32 64C23.1667 64 15.6 60.8667 9.3 54.6C3.1 48.3667 0 40.8333 0 32L0.05 31Z" fill="#747487"/>
</g>
<defs>
<clipPath id="clip0_341_349">
<rect width="64" height="64" fill="white"/>
</clipPath>
</defs>
</svg>
