<svg width="236" height="233" viewBox="0 0 236 233" fill="none" xmlns="http://www.w3.org/2000/svg">
<g filter="url(#filter0_d_684_13)">
<g filter="url(#filter1_d_684_13)">
<path d="M94.7549 88.81L110.786 61.9975C111.849 60.3075 113.317 59.1375 115.192 58.4875L118.005 58L120.911 58.4875C122.724 59.1375 124.13 60.34 125.13 62.095L141.067 88.81L171.724 96.3175L175.474 98.365L176.317 99.2425C177.442 100.738 178.005 102.428 178.005 104.313C178.005 106.198 177.38 107.855 176.13 109.285L155.505 134.148L157.942 166.323C158.13 168.208 157.63 169.963 156.442 171.588C155.255 173.083 153.724 174.123 151.849 174.708L146.411 174.318L118.005 162.228L89.5987 174.318L83.9737 174.708C82.0362 174.123 80.5049 173.083 79.3799 171.588C78.2549 169.963 77.7862 168.208 77.9737 166.323L80.3174 134.148L59.8799 109.285C58.6299 107.855 58.0049 106.198 58.0049 104.313C57.9424 102.428 58.4737 100.738 59.5987 99.2425C60.7862 97.7475 62.3174 96.7725 64.1924 96.3175L94.7549 88.81ZM170.505 98.2675L170.036 98.0725L139.38 90.565C137.38 90.045 135.817 88.9075 134.692 87.1525V87.055L119.036 60.8275L118.661 60.2425L118.474 60.0475H118.005H117.63C117.38 60.1125 117.192 60.2425 117.067 60.4375L101.13 87.055V87.1525C100.005 88.9075 98.4737 90.045 96.5362 90.565H96.4424L65.8799 98.0725L65.5049 98.2675L65.5987 98.365L86.0362 123.228C87.3487 124.853 87.9424 126.738 87.8174 128.882L85.4737 160.96V161.058L85.8487 161.253H86.8799L87.0674 161.155L115.192 149.163L118.005 148.578L120.911 149.163H120.817L149.13 161.253H149.224L149.786 161.35L150.442 160.96V160.863L148.005 128.882C147.817 126.738 148.411 124.853 149.786 123.228L170.411 98.4625V98.365H170.505V98.2675L170.599 98.365V98.17L170.505 98.2675Z" fill="#FFC649"/>
</g>
<path d="M170.506 98.2674V98.3649H170.412V98.4624L118.006 113.477L65.5996 98.3649L65.5059 98.2674L65.8809 98.0724L96.4434 90.5649H96.5371C98.4746 90.0449 100.006 88.9074 101.131 87.1524V87.0549L117.068 60.4374C117.193 60.2424 117.381 60.1124 117.631 60.0474H118.006H118.475L118.662 60.2424L119.037 60.8274L134.693 87.0549V87.1524C135.818 88.9074 137.381 90.0449 139.381 90.5649L170.037 98.0724L170.506 98.2674Z" fill="url(#paint0_linear_684_13)"/>
<path d="M170.506 98.2674L170.6 98.1699V98.3649L170.506 98.2674ZM170.412 98.4624L149.787 123.227C148.412 124.852 147.818 126.737 148.006 128.882L150.443 160.862V160.96L118.006 113.477L85.4746 160.96L87.8184 128.882C87.9434 126.737 87.3496 124.852 86.0371 123.227L65.5996 98.3649L118.006 113.477L170.412 98.4624Z" fill="#FFC649"/>
<path d="M150.443 160.96L149.787 161.35L149.225 161.253H149.131L120.818 149.163H120.912L118.006 148.578L115.193 149.163L87.0684 161.155L86.8809 161.253H85.8496L85.4746 161.058V160.96L118.006 113.478L150.443 160.96Z" fill="url(#paint1_linear_684_13)"/>
</g>
<defs>
<filter id="filter0_d_684_13" x="0" y="0" width="236.006" height="232.708" filterUnits="userSpaceOnUse" color-interpolation-filters="sRGB">
<feFlood flood-opacity="0" result="BackgroundImageFix"/>
<feColorMatrix in="SourceAlpha" type="matrix" values="0 0 0 0 0 0 0 0 0 0 0 0 0 0 0 0 0 0 127 0" result="hardAlpha"/>
<feOffset/>
<feGaussianBlur stdDeviation="29"/>
<feComposite in2="hardAlpha" operator="out"/>
<feColorMatrix type="matrix" values="0 0 0 0 1 0 0 0 0 0.792157 0 0 0 0 0.141176 0 0 0 0.33 0"/>
<feBlend mode="normal" in2="BackgroundImageFix" result="effect1_dropShadow_684_13"/>
<feBlend mode="normal" in="SourceGraphic" in2="effect1_dropShadow_684_13" result="shape"/>
</filter>
<filter id="filter1_d_684_13" x="44" y="48" width="148.006" height="144.708" filterUnits="userSpaceOnUse" color-interpolation-filters="sRGB">
<feFlood flood-opacity="0" result="BackgroundImageFix"/>
<feColorMatrix in="SourceAlpha" type="matrix" values="0 0 0 0 0 0 0 0 0 0 0 0 0 0 0 0 0 0 127 0" result="hardAlpha"/>
<feOffset dy="4"/>
<feGaussianBlur stdDeviation="7"/>
<feComposite in2="hardAlpha" operator="out"/>
<feColorMatrix type="matrix" values="0 0 0 0 0 0 0 0 0 0 0 0 0 0 0 0 0 0 0.25 0"/>
<feBlend mode="normal" in2="BackgroundImageFix" result="effect1_dropShadow_684_13"/>
<feBlend mode="normal" in="SourceGraphic" in2="effect1_dropShadow_684_13" result="shape"/>
</filter>
<linearGradient id="paint0_linear_684_13" x1="117.537" y1="61.4124" x2="117.537" y2="127.712" gradientUnits="userSpaceOnUse">
<stop stop-color="#FFC649"/>
<stop offset="1" stop-color="#FFC649"/>
</linearGradient>
<linearGradient id="paint1_linear_684_13" x1="115" y1="36" x2="118" y2="153" gradientUnits="userSpaceOnUse">
<stop stop-color="#FFC649"/>
<stop offset="0.506763" stop-color="#FFC649"/>
<stop offset="1" stop-color="#FFC649"/>
</linearGradient>
</defs>
</svg>
