<svg width="92" height="92" viewBox="0 0 92 92" fill="none" xmlns="http://www.w3.org/2000/svg">
<g clip-path="url(#clip0_343_786)">
<path d="M89.125 8.625L89.0531 7.25938C88.6219 4.33646 86.7292 2.875 83.375 2.875H8.625C5.27083 2.875 3.40208 4.33646 3.01875 7.25938L2.875 8.625V83.375C2.875 87.2083 4.79167 89.125 8.625 89.125H83.375C87.2083 89.125 89.125 87.2083 89.125 83.375V8.625ZM0 83.7344V8.625C0 2.875 2.875 0 8.625 0H83.375C89.125 0 92 2.875 92 8.625V83.7344C91.8562 89.2448 88.9812 92 83.375 92H8.625C3.01875 92 0.14375 89.2448 0 83.7344Z" fill="#9696A3"/>
<path d="M8.625 5.75C7.04375 5.75 6.13333 6.37292 5.89375 7.61875L5.82188 7.90625L5.75 8.625V83.375C5.75 85.2917 6.70833 86.25 8.625 86.25H39.4594H40.25H83.375C85.2917 86.25 86.25 85.2917 86.25 83.375V8.625L86.1781 7.61875L86.25 7.69062C85.9146 6.39687 84.9563 5.75 83.375 5.75H8.625ZM89.125 8.625V83.375C89.125 87.2083 87.2083 89.125 83.375 89.125H8.625C4.79167 89.125 2.875 87.2083 2.875 83.375V8.625L3.01875 7.25938C3.40208 4.33646 5.27083 2.875 8.625 2.875H83.375C86.7292 2.875 88.6219 4.33646 89.0531 7.25938L89.125 8.625ZM8.625 8.625H83.375V83.375H40.25H39.4594H8.625V8.625Z" fill="white"/>
<path d="M8.625 8.625V83.375H39.4594H40.25H83.375V8.625H8.625ZM8.625 5.75H83.375C84.9563 5.75 85.9146 6.39687 86.25 7.69062L86.1781 7.61875L86.25 8.625V83.375C86.25 85.2917 85.2917 86.25 83.375 86.25H40.25H39.4594H8.625C6.70833 86.25 5.75 85.2917 5.75 83.375V8.625L5.82188 7.90625L5.89375 7.61875C6.13333 6.37292 7.04375 5.75 8.625 5.75Z" fill="#DADCE7"/>
</g>
<defs>
<clipPath id="clip0_343_786">
<rect width="92" height="92" fill="white"/>
</clipPath>
</defs>
</svg>
