<svg width="74" height="213" viewBox="0 0 74 213" fill="none" xmlns="http://www.w3.org/2000/svg">
<path d="M71.7237 5.11713L69.3945 4.35087L70.8278 1.41052e-05L73.1569 0.766273L71.7237 5.11713ZM1.97284 212.938L-0.000272577 195.412L0.0452499 195.454L0.0923463 195.497L0.138235 195.541L0.185333 195.584L0.230851 195.626L0.278274 195.668L0.323797 195.711L0.371371 195.752L0.417737 195.794L0.465156 195.836L0.511478 195.876L0.559062 195.918L0.605219 195.959L0.652792 196L0.699641 196.041L0.747543 196.081L0.793864 196.121L0.842086 196.161L0.888399 196.201L0.936621 196.241L0.983952 196.279L1.03217 196.319L1.07897 196.358L1.12719 196.397L1.17589 196.436L1.2227 196.474L1.27139 196.512L1.31904 196.55L1.36774 196.588L1.41534 196.625L1.46404 196.663L1.51201 196.699L1.56072 196.738L1.60831 196.774L1.65734 196.811L1.70542 196.846L1.75444 196.883L1.80257 196.919L1.85207 196.955L1.89999 196.99L1.94949 197.026L1.99741 197.061L2.0474 197.095L2.09584 197.131L2.14583 197.165L2.19423 197.199L2.24421 197.233L2.29403 197.268L2.34244 197.301L2.39242 197.335L2.44167 197.368L2.49197 197.402L2.54086 197.434L2.59116 197.467L2.63988 197.5L2.69018 197.533L2.73992 197.565L2.79069 197.596L2.83942 197.629L2.89068 197.659L2.94042 197.691L2.99103 197.723L3.04072 197.753L3.09151 197.785L3.14261 197.815L3.19213 197.846L3.2434 197.876L3.29345 197.906L3.34503 197.936L3.39504 197.965L3.4463 197.995L3.4963 198.024L3.54772 198.053L3.59873 198.081L3.65032 198.11L3.70033 198.139L3.75223 198.167L3.8043 198.195L3.85462 198.223L3.90669 198.251L3.95802 198.277L4.01008 198.305L4.06089 198.332L4.11327 198.359L4.16408 198.385L4.21647 198.412L4.2678 198.438L4.32066 198.464L4.37146 198.49L4.42417 198.516L4.47703 198.541L4.52832 198.566L4.58103 198.592L4.63317 198.616L4.68603 198.641L4.73763 198.665L4.79098 198.689L4.84311 198.713L4.8963 198.738L4.94838 198.76L5.00157 198.785L5.05523 198.807L5.10717 198.83L5.16083 198.853L5.21344 198.876L5.26711 198.899L5.30263 198.913L6.33765 195.77L8.66756 196.537L7.63287 199.68L7.66999 199.689L7.72549 199.703L7.78236 199.716L7.83765 199.729L7.89452 199.742L7.94997 199.754L8.06371 199.78L8.12001 199.791L8.17736 199.803L8.23265 199.815L8.29 199.827L8.34609 199.837L8.40344 199.849L8.46112 199.859L8.51741 199.871L8.57508 199.881L8.63134 199.891L8.74668 199.912L8.80325 199.921L8.86108 199.931L8.91818 199.94L8.97633 199.949L9.03274 199.958L9.09137 199.966L9.14953 199.975L9.20642 199.983L9.26457 199.992L9.32216 199.999L9.38063 200.007L9.43926 200.015L9.49663 200.021L9.5551 200.03L9.61247 200.036L9.67143 200.042L9.72933 200.049L9.84724 200.062L9.90509 200.067L9.96404 200.074L10.0219 200.078L10.0812 200.084L10.1406 200.089L10.1988 200.095L10.2587 200.098L10.3164 200.104L10.3762 200.108L10.4361 200.112L10.4943 200.115L10.554 200.12L10.6132 200.122L10.673 200.126L10.733 200.13L10.7917 200.132L10.8519 200.135L10.9106 200.137L10.9706 200.14L11.0314 200.142L11.0904 200.144L11.1511 200.146L11.2101 200.147L11.3312 200.151L11.3906 200.15L11.4514 200.152L11.5112 200.152L11.6333 200.153L11.6927 200.153L11.7541 200.152L11.814 200.152L11.875 200.151L11.9364 200.15L11.9967 200.149L12.0582 200.148L12.118 200.147L12.1798 200.145L12.2413 200.143L12.302 200.141L12.3633 200.139L12.4251 200.137L12.4864 200.133L12.5482 200.131L12.6088 200.127L12.6706 200.125L12.7329 200.122L12.794 200.118L12.8562 200.113L12.9174 200.109L12.98 200.105L13.0424 200.101L13.1034 200.096L13.1661 200.091L13.2276 200.086L13.2906 200.081L13.3529 200.076L13.4148 200.07L13.4779 200.064L13.5409 200.058L13.6024 200.052L13.6655 200.045L13.7279 200.038L13.791 200.032L13.8539 200.025L13.9163 200.017L13.9798 200.01L1.97284 212.938ZM10.8171 190.01L8.48688 189.244L9.92091 184.894L12.2501 185.661L10.8171 190.01ZM14.3993 179.135L12.0705 178.369L13.5034 174.018L15.8339 174.785L14.3993 179.135ZM17.9835 168.258L15.6532 167.492L17.0856 163.142L19.4164 163.909L17.9835 168.258ZM21.5655 157.383L19.2353 156.616L20.6698 152.265L22.9986 153.033L21.5655 157.383ZM25.1482 146.506L22.8188 145.74L24.252 141.39L26.5822 142.156L25.1482 146.506ZM28.7313 135.631L26.4011 134.864L27.8345 130.513L30.1644 131.28L28.7313 135.631ZM32.314 124.753L29.9836 123.987L31.4178 119.637L33.747 120.404L32.314 124.753ZM35.896 113.878L33.5674 113.112L34.9998 108.762L37.329 109.528L35.896 113.878ZM39.4798 103.003L37.1496 102.236L38.5824 97.8851L40.9133 98.6514L39.4798 103.003ZM43.0624 92.1259L40.7321 91.3593L42.1647 87.0088L44.4955 87.7755L43.0624 92.1259ZM46.6447 81.2496L44.3156 80.4833L45.7487 76.133L48.0779 76.8992L46.6447 81.2496ZM50.2287 70.3738L47.8978 69.6075L49.3311 65.2566L51.6613 66.0232L50.2287 70.3738ZM53.8109 59.4979L51.4801 58.7312L52.9134 54.3803L55.2435 55.1474L53.8109 59.4979ZM57.3933 48.6216L55.0625 47.8548L56.4956 43.5045L58.8259 44.2711L57.3933 48.6216ZM60.9757 37.7453L58.6465 36.979L60.0791 32.6285L62.4098 33.3953L60.9757 37.7453ZM64.5591 26.8693L62.2288 26.1027L63.6614 21.7522L65.9922 22.5189L64.5591 26.8693ZM68.1414 15.993L65.8112 15.2264L67.2438 10.8758L69.5746 11.6426L68.1414 15.993Z" fill="white"/>
</svg>
