<svg width="376" height="296" viewBox="0 0 376 296" fill="none" xmlns="http://www.w3.org/2000/svg">
<path d="M2.52279 111.22C6.40793 99.1201 14.7647 88.6955 25.219 80.5379C46.1589 64.1981 76.0714 57.3536 102.962 63.0315C104.344 56.9227 107.137 50.8294 110.214 45.3837C113.846 38.9553 118.461 32.9411 123.802 27.5851C143.031 8.3165 171.488 -2.39815 200.105 1.37302C227.051 4.92278 252.464 20.0862 264.766 42.3745C264.82 42.3013 264.895 42.2322 264.985 42.1751C274.923 35.9242 287.267 33.22 299.242 33.9541C320.938 35.284 340.77 47.0695 349.148 65.4959C353.336 74.7071 354.532 84.9133 353.033 94.7596C352.277 99.7395 350.748 104.604 348.548 109.216C348.051 110.264 347.51 111.323 346.928 112.383C352.186 115.462 356.757 119.999 360.505 124.327C365.203 129.759 368.94 135.92 371.529 142.417C380.834 165.781 373.246 192.521 353.371 209.502C343.258 218.141 330.358 224 316.568 225.806C303.109 227.565 287.809 226.315 276.126 219.585C276.032 219.533 275.983 219.464 275.92 219.403C275.444 219.802 274.967 220.201 274.486 220.596C269.355 224.808 263.826 228.62 257.982 231.98C235.379 244.957 208.567 250.94 181.911 248.8C168.179 247.699 154.516 244.331 142.073 238.954C131.894 234.549 122.491 228.615 115.658 220.47C108.52 225.504 100.064 228.989 91.2051 230.64C69.7416 234.64 47.546 226.705 34.5593 210.746C24.3528 198.203 19.6858 178.147 31.067 165.357C30.1998 165.105 29.3458 164.816 28.5052 164.514C25.2457 163.35 22.1321 161.784 19.3389 159.868C13.8287 156.092 9.33721 151.122 6.13893 145.583C-0.024026 134.916 -1.18555 122.772 2.52279 111.22Z" fill="#AAAAAA"/>
<path d="M13.7921 145.647C16.8612 149.942 20.7456 153.682 25.4355 156.54C27.7134 157.931 30.1021 159.102 32.6774 159.973C33.8399 160.367 35.002 160.663 36.1553 160.971C36.7976 160.734 37.361 160.971 37.6394 161.404C38.6005 161.692 39.5573 162.013 40.4833 162.464C42.4425 163.41 40.4005 165.756 38.9902 166.028C37.3567 166.346 35.722 166.294 34.1089 166.04C28.7303 172.235 27.4817 180.832 28.7491 188.55C31.5754 205.746 47.317 220.152 65.198 225.292C81.6933 230.036 99.8844 226.38 113.264 216.802C113.418 216.344 113.931 215.989 114.462 215.927C116.213 214.595 117.883 213.175 119.441 211.642C121.613 209.499 125.497 211.691 123.182 214.086C121.567 215.757 119.794 217.287 117.946 218.74C126.557 227.008 137.541 233.08 149.14 237.269C173.827 246.18 202.203 247.451 227.617 240.241C239.026 237.005 249.866 232.19 259.68 225.988C264.524 222.928 269.148 219.552 273.419 215.853C277.734 212.118 281.503 208.008 285.41 203.937C287.493 201.77 290.908 203.81 289.018 206.292C285.812 210.502 281.85 214.313 277.726 217.866C284.794 219.958 291.99 221.774 299.432 222.321C306.794 222.863 314.161 222.267 321.342 220.719C346.284 215.338 365.066 196.023 369.179 173.213C371.191 162.04 369.246 150.56 364.169 140.261C361.633 135.114 358.25 130.306 354.247 125.994C352.284 123.881 350.161 121.906 347.872 120.082C346.592 119.06 345.24 118.125 343.893 117.185C342.634 118.903 341.233 120.509 339.648 121.884C337.497 123.752 334.325 122.077 336.179 119.618C337.531 117.826 338.86 116.075 340.114 114.295C338.947 112.755 340.645 110.386 342.62 110.432C343.441 109.039 344.2 107.602 344.851 106.076C346.899 101.278 348.123 96.1261 348.499 90.9975C349.857 72.4169 340.699 54.3376 322.803 44.7668C305.668 35.603 283.504 35.673 265.625 43.3245C265.518 43.3694 265.42 43.39 265.326 43.3984C265.488 43.7019 265.672 43.989 265.825 44.2966C266.212 45.0573 264.638 45.9137 264.153 45.1614C256.454 33.1814 245.434 23.15 232.227 16.182C208.905 3.8732 180.351 1.44348 155.653 11.8983C143.706 16.9561 133.192 24.6479 124.992 33.9978C120.921 38.6361 117.473 43.698 114.699 49.0657C112.556 53.2152 111.114 57.4476 109.856 61.7928C110.46 62.2083 110.744 62.9248 110.238 63.8425C109.657 64.8983 109.044 65.8974 108.35 66.8969C106.657 69.3385 101.87 69.4315 102.42 65.8101L102.425 65.7939C88.284 64.0091 73.6115 64.8242 59.9538 68.5907C35.8464 75.2416 12.8586 92.1718 7.55944 115.463C5.20047 125.872 7.39821 136.707 13.7921 145.647Z" fill="white"/>
<path d="M7.57693 115.447C10.4598 102.767 18.5964 91.9788 29.2915 83.7028C22.0707 91.8982 17.7053 101.949 18.2334 112.964C19.2945 135.148 39.1621 158.768 64.5776 160.009C64.2405 160.703 63.9213 161.409 63.6424 162.14C58.0776 176.779 66.0598 193.269 81.342 199.865C91.244 204.141 102.958 204.008 113.523 202.186C123.047 200.541 132.367 197.538 140.726 193.044C144.525 200.704 150.634 207.347 157.86 212.742C166.931 219.517 177.831 224.507 189.237 227.071C202.086 229.958 215.7 229.159 228.486 226.376C241.156 223.618 252.826 218.642 263.468 211.862C272.025 206.41 281.294 199.079 282.145 189.057C289.721 192.376 298.308 193.393 306.976 191.718C318.267 189.536 328.304 183.35 335.27 175.058C341.328 167.839 343.357 158.976 342.006 150.047C339.535 133.713 325.981 116.491 306.629 116.126C311.91 114.143 316.867 111.463 321.233 108.072C328.943 102.08 334.579 93.9019 336.415 84.7881C338.291 75.4553 336.156 66.1035 331.243 57.8269C328.117 52.5601 323.7 47.2124 318.428 42.6903C319.918 43.3258 321.394 44.0018 322.821 44.7631C340.717 54.3338 349.87 72.4131 348.516 90.9937C348.14 96.1223 346.916 101.274 344.869 106.072C344.217 107.598 343.459 109.035 342.637 110.428C340.663 110.382 338.965 112.751 340.131 114.291C338.878 116.075 337.548 117.822 336.197 119.614C334.342 122.077 337.519 123.748 339.665 121.881C341.246 120.505 342.647 118.9 343.91 117.181C345.257 118.121 346.609 119.057 347.89 120.078C350.178 121.902 352.306 123.877 354.265 125.991C358.263 130.302 361.646 135.11 364.187 140.257C369.268 150.556 371.209 162.036 369.196 173.21C365.083 196.019 346.301 215.331 321.359 220.716C314.178 222.264 306.812 222.86 299.45 222.317C292.012 221.77 284.812 219.954 277.744 217.862C281.867 214.31 285.829 210.498 289.035 206.289C290.925 203.806 287.511 201.766 285.428 203.934C281.516 208.004 277.751 212.114 273.436 215.85C269.166 219.548 264.537 222.92 259.697 225.984C249.888 232.186 239.048 237.001 227.635 240.237C202.216 247.448 173.844 246.177 149.158 237.265C137.559 233.08 126.575 227.005 117.963 218.736C119.812 217.283 121.584 215.753 123.2 214.082C125.519 211.687 121.63 209.495 119.458 211.638C117.905 213.171 116.23 214.592 114.48 215.923C113.948 215.985 113.436 216.34 113.281 216.798C99.9019 226.376 81.7108 230.028 65.2156 225.288C47.3345 220.148 31.593 205.743 28.7666 188.546C27.4993 180.829 28.7478 172.232 34.1265 166.037C35.7395 166.291 37.3698 166.342 39.0077 166.024C40.4136 165.752 42.4601 163.411 40.5008 162.461C39.5749 162.01 38.6181 161.693 37.6569 161.4C37.3786 160.967 36.8151 160.73 36.1728 160.967C35.0195 160.659 33.8574 160.363 32.6949 159.97C30.1196 159.095 27.7309 157.923 25.4531 156.536C20.7632 153.678 16.8787 149.938 13.8096 145.644C7.40236 136.707 5.20462 125.872 7.57693 115.447Z" fill="#EEEEEE"/>
<path d="M73.9934 252.987C76.5527 249.075 81.1611 246.283 85.9112 244.427C85.857 244.257 85.8922 244.083 86.1061 243.952C96.6865 237.44 110.115 235.928 122.212 239.568C132.999 242.811 145 252.215 143.082 263.659C140.801 277.285 122.916 278.966 110.887 279.708C97.8711 280.513 82.7791 280.061 74.949 269.002C71.5253 264.162 70.6698 258.065 73.9934 252.987Z" fill="#AAAAAA"/>
<path d="M76.0931 265.581C81.2739 276.41 95.0869 277.778 106.527 277.266C117.399 276.78 133.856 276.753 139.085 266.007C143.942 256.032 133.308 246.445 124.123 242.711C113.788 238.51 101.405 238.644 91.0984 242.894C92.2512 243.06 93.0777 244.496 91.7488 245.08C86.9953 247.184 81.8159 248.826 78.2289 252.551C74.6908 256.231 73.9569 261.113 76.0931 265.581Z" fill="white"/>
<path d="M78.224 252.551C81.811 248.826 86.9859 247.184 91.7439 245.081C91.8599 245.031 91.9356 244.966 92.0203 244.905C89.2679 247.148 87.3215 250.06 87.0966 253.583C86.6041 261.205 92.8645 267.706 100.473 270.035C111.792 273.503 126.884 271.163 136.024 264.035C137.796 262.655 139.198 261.033 140.143 259.259C140.459 261.447 140.189 263.713 139.076 266.007C133.847 276.757 117.39 276.784 106.517 277.266C95.082 277.778 81.269 276.41 76.0837 265.581C73.9475 261.114 74.6815 256.231 78.224 252.551Z" fill="#EDEDED"/>
<path d="M40.0905 282.624C44.8664 277.85 53.6344 275.628 60.3797 277.522C65.9741 277.135 71.8133 277.857 75.0133 282.584C76.6065 284.938 76.8046 288.066 75.2496 290.471C73.7567 292.774 70.8492 294.04 68.1004 294.678C60.8624 296.36 52.6174 296.043 45.4967 294.056C42.9398 293.343 40.2159 292.096 38.8064 289.932C37.1949 287.457 38.0564 284.654 40.0905 282.624Z" fill="#AAAAAA"/>
<path d="M41.0891 287.918C41.4528 289.83 43.9166 290.782 45.7136 291.311C51.2523 292.939 57.5273 293.08 63.2455 292.319C67.3478 291.774 73.876 290.184 72.5195 285.162C71.2262 280.356 65.6545 279.539 60.6575 279.621C60.4702 279.698 60.265 279.748 60.0104 279.736C59.5548 279.714 59.0992 279.707 58.6437 279.696C57.7775 279.748 56.947 279.807 56.197 279.871C55.9648 279.892 55.7592 279.828 55.5802 279.739C51.9144 279.934 48.3979 280.699 45.1666 282.631C43.317 283.736 40.6482 285.601 41.0891 287.918Z" fill="white"/>
<path d="M54.3665 289.556C58.9125 289.504 64.0737 289.098 68.0815 287.009C69.8424 286.092 71.2132 284.668 71.4576 282.982C71.9241 283.596 72.2927 284.316 72.5189 285.163C73.8709 290.184 67.3472 291.774 63.2449 292.319C57.5222 293.08 51.2517 292.943 45.713 291.312C43.916 290.783 41.4522 289.83 41.0885 287.918C40.993 287.412 41.0629 286.934 41.2221 286.475C44.2955 289.416 50.3206 289.602 54.3665 289.556Z" fill="#EDEDED"/>
</svg>
