<svg width="882" height="762" viewBox="0 0 882 762" fill="none" xmlns="http://www.w3.org/2000/svg">
<path d="M431.984 207.396L193.223 101.186C189.814 99.6693 186.035 99.19 182.356 99.8074L112.88 111.465L13.1137 117.873C11.7672 117.96 10.6441 118.935 10.369 120.256L8.59254 128.787C8.1998 130.673 8.0962 132.608 8.28531 134.525L10.2897 154.847C10.6455 158.454 12.0259 161.885 14.268 164.733L20.5415 172.704C20.6802 172.88 20.7557 173.098 20.7557 173.322V215.38C20.7557 216.349 20.8732 217.315 21.1057 218.257L35.7157 277.414C36.4403 280.348 37.8546 283.067 39.8409 285.345L66.5601 315.988C67.8269 317.441 68.8652 319.078 69.6395 320.843L88.3378 363.475C88.9493 364.869 89.7261 366.184 90.6516 367.393L119.735 405.38C120.517 406.401 121.401 407.341 122.374 408.184L130.788 415.48C134.173 418.415 136.412 422.452 137.109 426.878L143.676 468.56C144.522 473.926 147.624 478.674 152.199 481.604L167.962 491.697C171.458 493.936 174.125 497.259 175.555 501.157L194.611 553.129L222.399 613.244C223.289 615.169 224.495 616.932 225.967 618.459L272.473 666.699C273.681 667.952 274.711 669.365 275.535 670.898L315.768 745.835C320.579 754.797 331.594 758.38 340.757 753.964L392.854 728.855C395.959 727.358 399.411 726.735 402.843 727.05L516.079 737.46C520.991 737.912 525.887 736.435 529.73 733.342L606.449 671.601C608.906 669.623 611.818 668.288 614.92 667.717L728.558 646.791C729.957 646.533 731.323 646.119 732.63 645.557L835.034 601.475C840.153 599.271 844.046 594.932 845.683 589.605L881.161 474.18C881.717 472.371 882 470.49 882 468.598V410.388C882 400.673 874.672 392.523 865.012 391.495L695.37 373.432C685.71 372.404 678.382 364.254 678.382 354.539V353.416C678.382 347.709 675.816 342.304 671.395 338.696L656.326 326.399C650.255 321.444 647.849 313.27 650.267 305.816L650.97 303.648C653.277 296.536 651.198 288.733 645.66 283.711L577.936 222.297C574.758 219.416 570.7 217.695 566.42 217.413L438.459 208.995C436.223 208.848 434.031 208.307 431.984 207.396Z" fill="url(#paint0_linear_853_1714)"/>
<path d="M96.9657 33.1649L125.84 57.1729C126.403 57.6407 126.289 58.5346 125.627 58.8465L14.4972 111.196C7.25318 114.609 5.32004 124.024 10.6334 130.015L25.2432 146.487C29.0033 150.727 28.5098 157.237 24.1533 160.861C20.1194 164.217 19.3519 170.114 22.3924 174.391L76.7758 250.884C79.0621 254.1 80.2905 257.948 80.2905 261.894V273.625C80.2905 280.087 83.5743 286.105 89.0078 289.602L118.716 308.722C121.692 310.638 124.075 313.347 125.594 316.544L140.753 348.445C142.29 351.68 142.882 355.283 142.46 358.84L138.914 388.702C138.276 394.077 139.96 399.47 143.545 403.525L187.775 453.567C189.768 455.823 191.197 458.52 191.944 461.436L212.231 540.643C213.048 543.836 214.682 546.761 216.972 549.131L262.19 595.931C263.4 597.184 264.432 598.597 265.258 600.131L305.474 674.872C310.288 683.817 321.286 687.394 330.44 682.992L382.547 657.934C385.646 656.443 389.092 655.822 392.517 656.136L505.741 666.522C510.646 666.972 515.533 665.5 519.373 662.416L596.075 600.824C598.531 598.852 601.439 597.521 604.538 596.952L718.151 576.076C719.548 575.82 720.911 575.407 722.216 574.847L824.494 530.916C829.669 528.694 833.591 524.29 835.202 518.894L872.207 394.929C875.345 384.418 868.955 373.441 858.266 370.979L750.021 346.046C746.615 345.261 743.491 343.552 740.993 341.107L680.148 281.533C676.497 277.959 674.44 273.066 674.44 267.957V257.818C674.44 252.104 671.868 246.693 667.437 243.085L652.422 230.857C646.336 225.902 643.923 217.714 646.35 210.25L647.02 208.187C649.335 201.066 647.251 193.249 641.699 188.225L574.022 126.989C570.846 124.116 566.792 122.399 562.518 122.119L434.581 113.721C432.349 113.574 430.161 113.035 428.117 112.128L190.443 6.63392C186.405 4.84143 181.868 4.51242 177.613 5.70349L98.075 27.9692C95.7464 28.6211 95.1063 31.6189 96.9657 33.1649Z" fill="url(#paint1_linear_853_1714)" stroke="#D3DDA4" stroke-width="10"/>
<defs>
<linearGradient id="paint0_linear_853_1714" x1="963.258" y1="685.729" x2="102.958" y2="683.516" gradientUnits="userSpaceOnUse">
<stop offset="0.0977397" stop-color="#432315"/>
<stop offset="0.187736" stop-color="#432315"/>
<stop offset="0.393978" stop-color="#432315"/>
</linearGradient>
<linearGradient id="paint1_linear_853_1714" x1="175.694" y1="10.3989" x2="468.569" y2="677.887" gradientUnits="userSpaceOnUse">
<stop offset="0.584369" stop-color="#458357"/>
<stop offset="1" stop-color="#005837"/>
</linearGradient>
</defs>
</svg>
