<svg width="99" height="83" viewBox="0 0 99 83" fill="none" xmlns="http://www.w3.org/2000/svg">
<path d="M18.7081 18.9693C18.7081 18.9693 84.8974 16.3278 88.8704 25.8132C92.8433 35.2987 90.0564 58.2798 86.7574 58.9461C83.4585 59.6125 58.5123 62.3492 58.5123 62.3492C58.5123 62.3492 56.9018 72.7165 54.1988 70.941C51.0511 68.8725 46.0413 62.5602 46.0413 62.5602C46.0413 62.5602 13.0348 62.8196 9.617 56.9831C6.19942 51.146 5.69089 16.5431 18.7081 18.9693Z" fill="#FBAE42"/>
<path d="M50.1975 22.3455C50.0999 22.3116 50.0286 22.2211 50.0253 22.1114C50.0207 21.9702 50.1313 21.8515 50.2732 21.8471C50.9187 21.8262 66.122 21.3459 70.4396 22.254C70.5821 22.2875 70.6673 22.4197 70.6375 22.5578C70.6082 22.6967 70.4726 22.785 70.3337 22.7557C66.0763 21.8597 50.4471 22.3538 50.2896 22.3593C50.2574 22.3604 50.2259 22.3553 50.1975 22.3455Z" fill="#FCFDFF"/>
<path d="M73.6688 23.3246C73.5693 23.2901 73.4972 23.1956 73.4968 23.084C73.4959 22.9426 73.6099 22.8266 73.7513 22.8257C73.8949 22.8248 77.3011 22.8136 79.378 23.9465C79.5028 24.0144 79.5479 24.1704 79.4802 24.2946C79.4119 24.4185 79.2564 24.4666 79.1322 24.3968C77.1732 23.3264 73.7884 23.3385 73.7545 23.3383C73.7247 23.3388 73.696 23.334 73.6688 23.3246Z" fill="#FCFDFF"/>
</svg>
