<svg width="403" height="86" viewBox="0 0 403 86" fill="none" xmlns="http://www.w3.org/2000/svg">
<g clip-path="url(#clip0_341_270)">
<path d="M15.5 0H390.5C398.833 0 403 2.6875 403 8.0625V77.9375C403 83.3125 398.833 86 390.5 86H15.5C7.16667 86 3 83.3125 3 77.9375V8.0625C3 2.6875 7.16667 0 15.5 0ZM390.5 2.6875H15.5C9.94444 2.6875 7.16667 4.47917 7.16667 8.0625V77.9375C7.16667 81.5208 9.94444 83.3125 15.5 83.3125H390.5C396.056 83.3125 398.833 81.5208 398.833 77.9375V8.0625C398.833 4.47917 396.056 2.6875 390.5 2.6875ZM390.5 5.375C393.278 5.375 394.667 6.27083 394.667 8.0625V77.9375C394.667 79.7292 393.278 80.625 390.5 80.625H15.5C12.7222 80.625 11.3333 79.7292 11.3333 77.9375V8.0625C11.3333 6.27083 12.7222 5.375 15.5 5.375H390.5ZM390.5 10.75V8.0625H15.5V10.75V77.9375H390.5V10.75Z" fill="#989AAF"/>
<path d="M390.501 10.75H15.5013V8.0625H390.501V10.75ZM390.501 2.6875C396.057 2.6875 398.835 4.47917 398.835 8.0625V77.9375C398.835 81.5208 396.057 83.3125 390.501 83.3125H15.5013C9.94575 83.3125 7.16797 81.5208 7.16797 77.9375V8.0625C7.16797 4.47917 9.94575 2.6875 15.5013 2.6875H390.501ZM390.501 5.375H15.5013C12.7235 5.375 11.3346 6.27083 11.3346 8.0625V77.9375C11.3346 79.7292 12.7235 80.625 15.5013 80.625H390.501C393.279 80.625 394.668 79.7292 394.668 77.9375V8.0625C394.668 6.27083 393.279 5.375 390.501 5.375Z" fill="#F8F4F0"/>
<path d="M390.5 10.75V77.9375H15.5V10.75H390.5Z" fill="white"/>
</g>
<defs>
<clipPath id="clip0_341_270">
<rect width="403" height="86" fill="white"/>
</clipPath>
</defs>
</svg>
