<svg width="114" height="57" viewBox="0 0 114 57" fill="none" xmlns="http://www.w3.org/2000/svg">
<path d="M80.3347 45.8039C82.8191 45.7154 85.0114 44.3257 87.0375 45.0138C88.7679 45.6015 88.6859 48.6157 88.6176 49.4484C88.4647 51.313 86.9759 51.5444 83.6479 51.946C80.3198 52.3476 69.1094 48.1156 69.1094 48.1156L73.0686 45.2914C73.0686 45.2914 77.8503 45.8924 80.3347 45.8039Z" fill="#B78337"/>
<path d="M6.66389 30.2214C6.66389 30.2214 5.12858 32.8384 4.38259 37.4862C3.63659 42.1339 1.91524 43.3963 2.20217 45.1177C2.4891 46.8391 1.28404 48.6179 0.423366 49.1343C-0.437312 49.6507 0.136435 49.8803 1.05456 49.9376C1.97269 49.9949 3.34978 48.5031 4.43993 46.9538C5.5302 45.4046 5.53019 43.1094 5.53019 42.0765C5.53019 41.0437 5.95815 36.8177 6.92045 35.4592C7.88275 34.1008 8.60082 28.9242 6.66389 30.2214Z" fill="#B78337"/>
<path d="M89.4728 5.16956C88.39 5.60049 87.0619 4.99424 86.7 4.83293C86.4175 4.7071 87.5533 6.06476 87.395 6.19813C86.9368 6.58435 86.2624 7.16425 85.984 7.54749C87.2314 7.33532 87.1551 8.59624 86.9952 8.82413C86.8353 9.05202 86.2807 9.30485 85.8191 9.26174C86.44 9.5612 86.7534 9.56067 86.8491 9.70434C86.9439 9.85035 85.9479 9.89708 85.4017 10.1997C86.6496 10.3085 86.2083 10.9357 86.1255 11.0843C86.0427 11.2329 85.4363 12.0927 83.4149 12.7327C84.6808 13.0562 85.8993 12.6471 85.9232 12.849C85.9685 13.0559 86.3932 14.6475 84.6726 13.6147C84.6593 14.0337 85.3404 14.7212 84.8681 14.9143C84.3956 15.1073 82.5353 15.7799 82.298 16.0307C82.0608 16.2816 84.1245 15.8372 84.3076 16.093C84.4978 16.331 82.113 17.2225 83.1491 17.27C83.9985 17.309 84.3208 17.3189 84.5922 17.6527C84.8635 17.9866 82.5489 18.8831 81.5038 19.0323C82.3238 19.3472 83.4791 19.2418 83.5866 19.7219C83.7091 20.2074 82.788 20.2527 82.1251 21.0089C83.6183 20.6877 83.6551 21.2443 83.5652 21.6001C83.4753 21.9558 82.4561 22.0348 81.1879 22.3092C82.6476 22.5138 83.5762 23.0158 83.2987 23.2727C83.0211 23.5296 81.1981 24.3936 80.2266 23.9469C81.498 25.3882 83.8913 25.6562 84.3798 25.4053C84.8682 25.1546 87.0772 16.6892 86.9619 16.6663C90.0212 11.4736 90.3043 10.1381 89.4728 5.16956Z" fill="#A04B11"/>
<path d="M112.027 9.10925C112.027 9.10925 112.229 9.87808 111.783 10.1605C111.338 10.4441 109.842 10.9294 108.669 10.8072C107.495 10.6873 107.171 10.7265 107.171 10.7265C107.171 10.7265 104.871 12.5339 103.207 13.5194C101.542 14.5027 98.3001 14.5431 97.2743 15.2981C96.2496 16.0531 96.1625 17.2584 95.879 17.9858C95.5976 18.7142 94.6705 22.0954 94.3063 23.9972C93.9431 25.8991 94.0631 28.4063 93.821 31.1577C93.5778 33.9091 92.3651 37.63 91.5963 39.1284C90.8275 40.6246 89.2495 42.7686 87.9146 43.376C86.5788 43.9835 85.2843 44.7512 84.0705 45.1558C82.8568 45.5615 78.2587 46.7635 76.8432 46.4397C76.7635 46.4216 67.3306 46.2655 67.3306 46.2655C67.3306 46.2655 65.5731 46.6425 63.4748 47.2255C60.9803 47.9168 58.0049 48.899 56.9238 49.8802C54.9359 51.6876 49.8314 51.6112 46.4152 51.6876C41.0791 51.8066 31.5251 46.6096 31.5251 46.6096L24.766 45.7611L14.714 45.0995L11.7045 44.9009C11.7045 44.9009 7.29334 40.7064 5.79393 36.9058C5.38721 35.8779 5.19501 34.8797 5.35961 34.0004C5.88844 31.1821 8.32976 25.3501 14.1395 22.5095C19.9492 19.6689 25.2418 17.8615 27.4367 16.1837C29.6317 14.5048 33.7636 8.17902 36.7327 7.27533C39.7018 6.37165 46.9313 6.50015 51.1927 10.2444C55.4531 13.9887 59.0678 16.2156 63.8443 17.167C68.6218 18.1206 72.9767 25.3756 74.1724 27.0279C74.9742 28.1355 75.7239 28.8587 77.0311 29.9843C77.8807 30.4696 79.6615 31.4816 80.7542 31.3807C80.7542 31.3807 82.3917 30.7775 83.4844 27.4368C83.8093 26.4428 84.1576 25.3129 84.4836 24.1788C85.2546 21.506 85.9119 18.8088 85.9119 17.7861C85.9119 16.3303 86.3122 12.6295 87.1012 10.3241C87.8902 8.01762 89.1273 5.58902 89.9163 4.55685C90.0926 4.32641 90.3145 4.05244 90.58 3.76679C91.4954 2.77497 92.9205 1.64296 94.7119 1.70456C97.0173 1.78632 99.4438 3.08079 99.4438 3.08079C99.4438 3.08079 100.375 3.40468 102.155 2.91939C103.936 2.43303 106.849 2.06879 108.224 2.2302C109.599 2.39267 110.287 2.83762 110.935 3.72856C111.581 4.61738 111.865 5.3862 112.309 5.83114C112.755 6.27714 112.957 7.49091 112.957 8.01656C112.957 8.5422 112.027 9.10925 112.027 9.10925Z" fill="#D9A54F"/>
<path d="M14.713 45.0998L11.7036 44.9012C11.7036 44.9012 7.29239 40.7066 5.79297 36.9061C6.38976 35.0456 7.36354 33.3837 8.38722 32.7285C8.38722 32.7285 14.8097 42.5915 15.1919 43.0503C15.3926 43.2903 15.0677 44.246 14.713 45.0998Z" fill="#B78337"/>
<path d="M107.912 10.1046L106.937 10.9084C106.438 11.289 105.827 12.0715 105.225 12.534C104.198 13.3236 102.979 13.883 101.474 14.6466C101.472 14.6468 101.471 14.6482 101.47 14.6484C99.5556 15.7257 97.4539 14.9366 96.2927 14.3665C95.1314 13.7964 94.3554 13.2642 93.7165 12.2242C92.9603 10.9931 92.7531 9.75101 92.5551 8.92824C92.4714 8.58089 92.494 7.8675 92.5502 7.3906C92.6122 6.86421 92.7106 6.58821 92.8106 6.52025C92.8758 6.47586 92.8693 6.75557 92.8675 7.15793C92.8651 7.70311 92.8712 8.47353 93.0764 8.96774C93.5789 10.1784 94.1207 11.4878 94.74 12.1021C95.2208 12.579 95.8434 13.1503 96.5591 13.4234C98.4068 14.1283 100.08 13.8473 100.905 13.5574C103.164 12.7631 106.235 10.2253 106.723 9.59406C107.237 8.92782 107.912 10.1046 107.912 10.1046Z" fill="#B78337"/>
<path d="M86.7994 21.0268C86.6313 23.2602 83.873 29.1639 84.1035 25.4743C84.8746 22.8014 85.9147 18.8081 85.9147 17.786C85.9147 16.33 86.3151 12.6289 87.1041 10.323C87.893 8.01704 89.1304 5.58792 89.9194 4.55627C90.0951 4.32552 90.3175 4.05187 90.5829 3.76611L91.1352 3.87006L91.8489 5.59981C91.6627 5.8757 90.3926 8.18429 89.2575 11.1573C87.5936 15.5156 87.0618 17.5401 86.7994 21.0268Z" fill="#B78337"/>
<path d="M68.4451 32.6673C65.826 36.4437 64.199 43.4513 63.471 47.2264C60.9762 47.9185 58.0008 48.8999 56.9201 49.8813C54.9321 51.6888 49.8277 51.6124 46.4112 51.6888C41.0749 51.8084 31.5211 46.6107 31.5211 46.6107L24.7623 45.762L22.8281 36.1962L24.1765 32.1508C24.1765 32.1508 24.2052 30.0493 24.7216 29.2496C25.238 28.4499 24.9798 31.8066 26.8734 33.1838C28.767 34.5608 34.1893 36.1102 38.4068 34.2166C42.6241 32.323 49.5098 25.3155 51.6615 29.2496C53.8133 33.1838 56.8257 32.7367 58.9775 31.583C61.1292 30.4295 64.658 26.212 64.9163 25.6956C65.1745 25.1792 72.1462 27.331 68.4451 32.6673Z" fill="#B78337"/>
<path d="M25.1719 36.7427C25.1719 36.7427 33.5063 41.5837 35.2454 42.5464C36.9846 43.5092 40.2468 48.3256 39.5077 51.6899C38.7686 55.0543 28.1537 49.1714 28.1537 49.1714L25.1719 36.7427Z" fill="#AF6D30"/>
<path d="M68.3627 50.9999C68.3627 50.9999 60.4809 48.6826 60.4805 53.0665C60.4804 54.0671 61.2099 55.5381 62.1753 55.5896C64.0619 55.6902 66.956 53.4324 67.8131 53.1015C69.1087 52.6013 72.4263 52.9605 74.1007 53.0368C75.5338 53.1021 79.4945 53.3163 81.0437 53.4062C82.593 53.4959 84.6012 53.0368 85.1751 52.5779C85.7488 52.1188 86.6096 50.9425 85.4046 48.4178C84.7294 47.0032 68.3627 50.9999 68.3627 50.9999Z" fill="#B78337"/>
<path d="M58.98 41.7885C58.98 41.7885 59.0223 47.1972 59.1256 48.3243C59.2031 49.1696 58.9058 51.6324 59.7149 51.9432C60.5239 52.2541 63.5109 52.0221 64.6591 51.6886C66.2393 51.2296 80.2951 51.6184 81.0698 52.1348C81.6357 52.5121 84.0301 52.9317 85.1741 52.5759C85.596 52.4448 85.8964 51.9891 85.9541 51.2781C86.0119 50.567 86.2939 49.2672 86.2456 48.2988C86.2034 47.4494 85.5463 46.2957 84.0793 45.9031C82.2698 45.4189 79.7213 46.2981 77.2965 46.2396C75.6593 46.2001 70.0214 46.0305 68.9024 46.0305C67.7835 46.0305 72.4068 44.8871 74.1283 42.8213C75.8496 40.7556 76.28 38.69 76.28 37.3129C76.28 35.9358 73.87 29.9614 72.5789 29.2476C71.2879 28.5337 63.5655 32.493 62.6498 35.5054C61.7341 38.5178 58.7217 37.485 58.8938 39.2064C59.0659 40.9277 58.98 41.7885 58.98 41.7885Z" fill="#D9A54F"/>
<path d="M69.4694 32.2135C70.5791 32.8271 72.6505 37.9621 72.6505 39.1457C72.6505 40.3293 72.2806 42.1048 70.8011 43.8802C70.653 44.0578 70.4803 44.2242 70.2908 44.3799C71.3639 44.0021 72.9345 43.359 73.755 42.3745C75.2345 40.5991 75.6044 38.8236 75.6044 37.64C75.6044 36.4564 73.5331 31.3213 72.4234 30.7079C71.8103 30.3689 69.5102 31.256 67.4414 32.5544C68.39 32.19 69.1536 32.039 69.4694 32.2135Z" fill="#EBBA75"/>
<path d="M83.8235 48.7207C83.4534 48.1392 80.5725 46.7384 79.0658 46.8177C77.6789 46.8906 69.106 46.8144 69.5267 48.0694C69.9759 49.4091 74.3931 48.5108 75.8996 48.4315C77.4063 48.3521 79.5392 48.987 80.2038 49.17C80.9083 49.3641 81.9368 49.602 82.3955 50.2106C82.8543 50.8192 83.7482 51.9872 84.2397 51.332C84.9533 50.3805 84.1936 49.3021 83.8235 48.7207Z" fill="#EBBA75"/>
<path d="M34.5565 48.7068C35.1059 48.7219 36.6118 48.8412 37.0287 48.9872C38.9867 49.6728 41.2071 51.5833 41.9729 52.7274C42.4844 53.4917 42.3297 54.6323 41.03 54.9381C40.2957 55.1109 38.9834 54.9663 38.7617 55.0528C38.5105 55.1509 39.3354 56.0264 38.8636 56.4035C38.2775 56.8724 36.7197 56.8405 34.9516 56.689C32.2756 56.4596 29.7139 54.9126 27.9936 53.8804C26.2733 52.8483 12.1663 52.4461 7.46445 52.0738C2.76263 51.7015 3.27415 48.4321 3.27415 48.4321L18.8132 47.4761C18.8132 47.4761 33.1128 48.6673 34.5565 48.7068Z" fill="#B78337"/>
<path d="M36.0835 49.9698C35.2687 48.4509 40.1463 51.1324 41.0128 52.192C41.5331 52.8284 41.0719 53.0663 40.4521 53.0918C39.8722 53.1156 39.0659 52.7291 37.929 52.4037C37.5014 52.2812 37.0625 52.4511 36.6802 52.4511C36.3446 52.4511 37.0248 53.1635 37.4488 53.6341C37.6372 53.8433 37.8897 54.1258 37.8653 54.1557C37.5935 54.4886 37.0958 54.5918 36.6483 54.7308C34.5777 55.3742 31.8542 53.847 31.6722 53.1427C31.4046 52.107 33.469 52.1487 34.1953 51.8429C34.9217 51.5371 36.5655 50.8682 36.0835 49.9698Z" fill="#D9A54F"/>
<path d="M35.027 49.9373C34.7533 50.5589 33.7575 51.1375 32.5776 51.5881L32.5764 51.5893C32.3534 51.6746 30.4061 52.2508 28.1539 52.1861C25.1051 52.0986 21.8773 51.4685 20.8542 51.343C19.7437 51.2068 12.0006 51.2374 7.39568 51.0775C3.82894 50.9535 2.95169 49.2773 3.38198 47.7281C3.81237 46.1789 8.46014 44.6295 9.2348 44.6295C9.9054 44.6295 13.5119 44.2599 14.2004 44.3806C13.5788 44.1212 11.151 42.7396 10.0094 41.2548C9.51323 40.6104 8.90126 39.6529 8.34535 38.6548C8.34535 38.6548 8.34418 38.6513 8.34057 38.6453C7.54923 37.2203 6.87503 35.7117 6.8248 34.9036C6.73868 33.5265 8.80441 29.7394 8.80441 29.7394C13.1653 23.8293 24.1249 30.4854 24.1823 32.1493C24.2396 33.8134 24.584 34.7888 26.7644 37.1988C28.9448 39.6088 32.1007 42.5926 33.4778 44.0271C34.8549 45.4617 35.6581 48.5029 35.027 49.9373Z" fill="#D9A54F"/>
<path d="M32.1114 44.2737C30.7343 42.8392 27.1352 40.1228 24.9547 37.7128C22.7743 35.3028 22.4301 34.3273 22.3726 32.6633C22.329 31.3966 15.9674 27.2379 11.0084 27.9315C10.172 28.3142 9.41847 28.8997 8.79864 29.7399C8.79864 29.7399 6.73291 33.527 6.81903 34.9041C6.82529 35.0055 6.84154 35.1179 6.8665 35.2398C7.17944 35.1494 7.56799 35.2023 7.99997 35.4026C8.3434 34.4482 9.41168 34.4327 10.6348 35.4206C12.1267 36.6255 13.7333 36.5682 15.4547 37.7158C17.1761 38.8634 22.9345 43.3581 23.7174 43.9128C24.5004 44.4675 27.1028 46.6096 27.734 45.5194C28.3652 44.4292 30.8167 46.2275 32.3086 47.5473C33.3746 48.4905 33.4885 45.7083 32.1114 44.2737Z" fill="#EBBA75"/>
<path d="M94.7693 7.0648C94.7693 7.0648 95.8312 8.23248 96.9521 8.1522C98.0731 8.07192 98.0812 6.75493 99.2925 6.28588C99.5739 6.17693 100.036 6.10462 100.048 5.96763C100.074 5.6515 99.6329 5.81632 99.2386 5.59639C99.0682 5.50125 98.8262 5.09994 98.7667 5.06872C97.9919 4.66169 97.3001 4.13765 96.4926 4.47863C95.6851 4.81961 95.4029 5.85634 95.0242 6.02869C94.5947 6.22419 94.2407 6.57155 94.7693 7.0648Z" fill="#B78337"/>
<path d="M96.25 6.00256C96.25 6.00256 96.4587 5.63014 97.0989 5.60349C97.7391 5.57684 98.1608 5.83244 98.2834 6.01148C98.4061 6.19052 97.8142 6.67496 97.3635 6.66254C96.9129 6.65 96.3728 6.35278 96.25 6.00256Z" fill="#5E431C"/>
<path d="M96.7122 5.93138C96.7238 5.83442 96.8117 5.76508 96.9087 5.77665C97.0056 5.78823 97.075 5.87616 97.0634 5.97312C97.0518 6.07007 96.9639 6.1394 96.8669 6.12783C96.77 6.11636 96.7006 6.02843 96.7122 5.93138Z" fill="white"/>
<path d="M97.1176 4.95739C97.6217 4.87382 97.8145 4.92904 98.179 5.21639C98.5231 5.4876 98.3758 5.7637 98.1888 5.76274C98.0018 5.76168 97.4285 5.56141 97.1396 5.57309C96.9722 5.57988 96.7258 5.5578 96.6798 5.44354C96.6151 5.28266 96.8228 5.00624 97.1176 4.95739Z" fill="#D9A54F"/>
<path d="M95.8609 6.7947C95.5371 6.69838 95.4068 6.94337 95.7288 7.26873C96.0508 7.59421 96.6897 7.79194 97.2187 7.7948C97.7475 7.79767 98.0572 7.5014 98.6113 7.02811C99.1654 6.55471 98.9183 6.52731 98.7313 6.68002C98.3737 6.97194 97.4809 7.29274 96.8441 7.23327C96.5067 7.20173 95.9924 6.83378 95.8609 6.7947Z" fill="#D9A54F"/>
<path d="M95.2236 6.76172C95.3423 6.76151 95.5503 6.84116 95.6876 6.94013C95.91 7.10047 96.184 7.27186 96.449 7.37954C96.6269 7.45175 96.9848 7.57567 97.2964 7.56877C97.6235 7.56144 98.088 7.40153 98.2934 7.30128C98.3002 7.29799 98.3336 7.31232 98.2716 7.36297C98.1621 7.45238 97.9121 7.63462 97.857 7.66244C97.5236 7.83054 97.0415 7.82979 96.6696 7.74611C96.4973 7.70735 96.3222 7.63631 96.1797 7.56347C95.902 7.4216 95.7546 7.3257 95.3571 7.01329C95.1926 6.88395 95.0942 6.76193 95.2236 6.76172Z" fill="#EBBA75"/>
<path d="M96.0857 5.22835C96.2184 5.08765 96.4405 4.91583 96.6091 4.82408C96.857 4.68911 97.1353 4.66288 97.4112 4.68369C97.7478 4.70907 98.6117 5.31065 98.6082 5.23897C98.6045 5.1624 98.2583 4.84915 98.0451 4.69995C97.8743 4.58038 97.4866 4.44158 97.2219 4.41811C96.9759 4.39634 96.5768 4.48395 96.6214 4.42746C96.6713 4.36428 97.1496 4.21922 97.4267 4.22899C97.6423 4.23653 97.9982 4.28707 98.1991 4.39506C98.3774 4.49085 98.5444 4.54883 98.7693 4.78712C99.1185 5.15709 99.538 5.53153 99.7617 5.63188C100.069 5.76951 100.177 5.78213 100.343 5.83363C100.556 5.89969 100.09 5.97551 99.7057 5.96351C99.4504 5.95554 99.1303 5.83099 98.9136 5.70377C98.6252 5.53461 98.3671 5.44147 98.2625 5.37404C97.7581 5.04909 97.06 4.92614 96.6029 5.13024C96.3507 5.2429 96.0039 5.62827 95.9041 5.66841C95.8232 5.7008 95.9195 5.40452 96.0857 5.22835Z" fill="#EBBA75"/>
<path d="M112.526 6.13903C112.725 6.29237 113.046 7.39813 113.047 7.85805C113.048 8.42989 112.691 8.75303 112.425 8.81526C112.183 8.87186 112.488 9.33261 112.473 9.56506C112.444 9.99885 112.158 10.2983 111.067 10.5796C110.45 10.7388 108.084 11.0085 107.17 10.7263C106.687 10.577 106.878 9.96063 106.588 9.65979C106.169 9.22643 105.346 8.38508 105.229 7.63325C105.112 6.88141 106.667 7.08922 107.079 7.11205C108.584 7.19541 110.037 6.81844 110.52 6.76779C111.067 6.71044 112.137 6.0733 112.526 6.13903Z" fill="#EBBA75"/>
<path d="M112.341 8.88481C112.341 8.88481 111.009 9.35088 110.16 9.14646C109.578 9.0065 107.631 7.72997 107.029 7.67613C106.717 7.64831 105.238 7.94926 105.633 7.94926C106.027 7.94926 106.907 7.93047 107.696 8.27368C108.485 8.61689 109.793 9.5177 110.282 9.66828C110.8 9.82788 112.27 9.6737 112.341 8.88481Z" fill="#B78337"/>
<path d="M96.1191 9.11271C95.1227 9.40229 95.8688 10.6604 96.5718 11.6059C97.8824 13.3686 99.0396 11.414 99.4727 10.7988C100.188 9.78223 102.002 8.63283 102.642 8.44752C103.513 8.19521 103.988 8.12778 104.301 7.7987C104.615 7.46951 103.856 7.42034 103.105 7.50551C102.339 7.59237 101.027 8.06024 100.145 8.54054C99.7796 8.73933 98.871 9.10251 98.1998 9.05356C97.2493 8.98411 96.5663 8.98273 96.1191 9.11271Z" fill="#EBBA75"/>
<path d="M109.583 4.10606C109.583 4.10606 108.129 3.38407 107.339 3.63659C107.252 3.6642 107.1 3.69457 107.051 3.75011C106.901 3.91948 106.812 4.31875 106.886 4.48653C107.049 4.85746 107.622 5.10298 108.406 4.94253C108.956 4.83007 109.791 4.721 110.33 4.84769C110.473 4.88135 110.576 4.82529 110.49 4.70603C110.258 4.38481 109.847 4.2113 109.583 4.10606Z" fill="#B78337"/>
<path d="M110.489 4.70599C110.257 4.38477 109.875 4.17324 109.556 4.05314C109.351 3.97615 108.931 3.6786 108.224 3.51815C107.88 3.4401 107.396 3.42725 107.145 3.63645C106.989 3.76653 106.947 4.03933 106.954 4.15784C106.979 4.56221 107.763 4.79032 108.56 4.70398C109.086 4.64685 109.852 4.71184 110.377 4.86783C110.413 4.87856 110.499 4.89958 110.517 4.82525C110.526 4.7866 110.516 4.74401 110.489 4.70599Z" fill="#EBBA75"/>
<path d="M93.0089 3.36758C93.0089 3.36758 92.9707 2.70623 92.55 1.98965C91.9918 1.03893 91.0885 0.51444 90.4279 0.285386C90.0687 0.160824 89.5737 -0.0260655 89.4524 0.00303089C89.1083 0.0856475 89.2877 1.62244 89.4248 2.92169C89.5619 4.22104 90.42 5.13916 91.077 5.38924C91.734 5.63922 91.9468 5.38554 92.1445 5.23167C92.3421 5.0778 92.4145 4.87783 92.673 4.28677C92.7816 4.03839 92.9014 3.45795 93.0089 3.36758Z" fill="#D9A54F"/>
<path d="M92.5541 1.98895C91.9959 1.03822 91.0926 0.513734 90.432 0.28468C90.1689 0.193462 89.8328 0.0686963 89.6242 0.0199546C89.5941 0.012946 89.4656 -0.00936333 89.554 0.0396969C89.6887 0.114349 90.0899 0.282561 90.2456 0.355833C90.8783 0.653274 91.7213 1.27004 92.1763 2.27428C92.5192 3.03121 92.4673 3.79408 92.5624 4.20865C92.6577 4.62322 92.9167 3.75776 92.9147 3.30624C92.9125 2.85333 92.9749 2.70553 92.5541 1.98895Z" fill="#EBBA75"/>
<path d="M109.789 4.50395C109.789 4.50395 108.649 3.9096 108.008 3.85416C107.367 3.79873 107.102 4.26693 107.905 4.29752C108.708 4.3281 109.789 4.50395 109.789 4.50395Z" fill="#5E431C"/>
<path d="M89.7715 0.613549C89.928 0.65284 91.0855 1.36453 90.8306 2.46255C90.5757 3.56056 90.8588 4.02461 91.255 4.48421C91.6512 4.9438 91.2021 4.99191 90.669 4.34818C90.136 3.70445 90.1564 3.54665 89.9628 2.7705C89.8673 2.38747 89.263 0.486014 89.7715 0.613549Z" fill="#B78337"/>
<path d="M39.4886 11.0448C41.4535 10.5296 46.5464 10.4123 49.0424 12.536C51.5385 14.6598 56.1768 17.8443 58.3763 18.1026C60.5758 18.3608 65.654 20.0822 66.5147 20.9429C67.3754 21.8035 61.2644 21.8897 60.0594 24.1274C58.8545 26.3653 54.6337 19.7378 53.0431 18.4468C51.4524 17.1559 42.415 24.1274 40.0052 24.1274C37.5953 24.1274 38.2838 17.0697 39.4888 16.0368C40.6936 15.004 37.1576 11.656 39.4886 11.0448Z" fill="#EBBA75"/>
<path d="M66.5932 35.5735C65.4097 36.7833 62.4651 42.9473 62.4651 44.3815C62.4651 45.8159 62.7234 49.9969 62.1208 50.5315C61.5183 51.0661 61.0174 49.5524 60.5794 48.1145C60.1413 46.6766 59.6403 40.76 60.5794 39.9312C61.5184 39.1024 64.5979 36.1761 65.3821 35.0571C66.1662 33.9382 67.6227 34.5212 66.5932 35.5735Z" fill="#B78337"/>
<path d="M13.0515 45.1007C11.3857 44.8132 8.38763 45.8037 7.39368 46.0331C6.39973 46.2625 4.48828 47.5622 4.48828 48.2504C4.48828 48.9385 7.54659 47.9296 8.76991 47.4783C9.99323 47.027 13.3574 46.7103 14.6571 46.7922C15.9569 46.8741 16.0386 45.6164 13.0515 45.1007Z" fill="#EBBA75"/>
</svg>
