<svg width="253" height="473" viewBox="0 0 253 473" fill="none" xmlns="http://www.w3.org/2000/svg">
<path d="M0 348.066L4.8125 339.326L2.0625 334.185L0 330.329V15.1669C0.0916667 5.05568 2.8875 0 8.3875 0H122.65L130.625 14.9098L138.462 0H244.475C250.067 0 252.908 5.05568 253 15.1669V69.9218L247.225 80.9755L244.475 86.1169L253 102.055V385.598L244.475 401.793L241.725 406.934L253 428.014V457.319C253 467.773 250.158 473 244.475 473H44.6875L38.6375 461.689L32.5875 473H8.3875C2.79583 473 0 467.773 0 457.319V402.307L7.7 387.911L4.95 382.77L0 373.516V348.066Z" fill="#F0FFF0"/>
</svg>
