<svg width="192" height="86" viewBox="0 0 192 86" fill="none" xmlns="http://www.w3.org/2000/svg">
<g clip-path="url(#clip0_341_301)">
<path d="M6 0H186C190 0 192 2.6875 192 8.0625V77.9375C192 83.3125 190 86 186 86H6C2 86 0 83.3125 0 77.9375V8.0625C0 2.6875 2 0 6 0ZM186 2.6875H6C3.33333 2.6875 2 4.47917 2 8.0625V77.9375C2 81.5208 3.33333 83.3125 6 83.3125H186C188.667 83.3125 190 81.5208 190 77.9375V8.0625C190 4.47917 188.667 2.6875 186 2.6875ZM186 5.375C187.333 5.375 188 6.27083 188 8.0625V77.9375C188 79.7292 187.333 80.625 186 80.625H6C4.66667 80.625 4 79.7292 4 77.9375V8.0625C4 6.27083 4.66667 5.375 6 5.375H186ZM186 10.75V8.0625H6V10.75V77.9375H186V10.75Z" fill="#989AAF"/>
<path d="M186 10.75H6V8.0625H186V10.75ZM186 2.6875C188.667 2.6875 190 4.47917 190 8.0625V77.9375C190 81.5208 188.667 83.3125 186 83.3125H6C3.33333 83.3125 2 81.5208 2 77.9375V8.0625C2 4.47917 3.33333 2.6875 6 2.6875H186ZM186 5.375H6C4.66667 5.375 4 6.27083 4 8.0625V77.9375C4 79.7292 4.66667 80.625 6 80.625H186C187.333 80.625 188 79.7292 188 77.9375V8.0625C188 6.27083 187.333 5.375 186 5.375Z" fill="#DADCE7"/>
<path d="M186 10.75V77.9375H6V10.75H186Z" fill="white"/>
</g>
<defs>
<clipPath id="clip0_341_301">
<rect width="192" height="86" fill="white"/>
</clipPath>
</defs>
</svg>
