<svg width="1089" height="811" viewBox="0 0 1089 811" fill="none" xmlns="http://www.w3.org/2000/svg">
<g filter="url(#filter0_ddd_463_124)">
<path d="M595.612 0H1048.58C1072.86 0 1085 8.87363 1085 26.6211V118.704L1048.58 146.198L1085 173.256V654.62L1036.83 690.842L1085 726.628V776.379C1085 794.126 1072.86 803 1048.58 803H194.938L169.087 783.798L143.237 803H39.8375C15.9458 803 4 794.126 4 776.379V682.986L36.9 658.547L4 634.108V590.903L24.5625 576.065L4 560.791V26.6211C4 8.87363 15.9458 0 39.8375 0H528.05L562.125 25.3119L595.612 0Z" fill="#F7F4E8"/>
</g>
<defs>
<filter id="filter0_ddd_463_124" x="0" y="0" width="1089" height="811" filterUnits="userSpaceOnUse" color-interpolation-filters="sRGB">
<feFlood flood-opacity="0" result="BackgroundImageFix"/>
<feColorMatrix in="SourceAlpha" type="matrix" values="0 0 0 0 0 0 0 0 0 0 0 0 0 0 0 0 0 0 127 0" result="hardAlpha"/>
<feOffset dy="4"/>
<feGaussianBlur stdDeviation="2"/>
<feComposite in2="hardAlpha" operator="out"/>
<feColorMatrix type="matrix" values="0 0 0 0 0 0 0 0 0 0 0 0 0 0 0 0 0 0 0.25 0"/>
<feBlend mode="normal" in2="BackgroundImageFix" result="effect1_dropShadow_463_124"/>
<feColorMatrix in="SourceAlpha" type="matrix" values="0 0 0 0 0 0 0 0 0 0 0 0 0 0 0 0 0 0 127 0" result="hardAlpha"/>
<feOffset dy="4"/>
<feGaussianBlur stdDeviation="2"/>
<feComposite in2="hardAlpha" operator="out"/>
<feColorMatrix type="matrix" values="0 0 0 0 0 0 0 0 0 0 0 0 0 0 0 0 0 0 0.25 0"/>
<feBlend mode="normal" in2="effect1_dropShadow_463_124" result="effect2_dropShadow_463_124"/>
<feColorMatrix in="SourceAlpha" type="matrix" values="0 0 0 0 0 0 0 0 0 0 0 0 0 0 0 0 0 0 127 0" result="hardAlpha"/>
<feOffset dy="4"/>
<feGaussianBlur stdDeviation="2"/>
<feComposite in2="hardAlpha" operator="out"/>
<feColorMatrix type="matrix" values="0 0 0 0 0 0 0 0 0 0 0 0 0 0 0 0 0 0 0.25 0"/>
<feBlend mode="normal" in2="effect2_dropShadow_463_124" result="effect3_dropShadow_463_124"/>
<feBlend mode="normal" in="SourceGraphic" in2="effect3_dropShadow_463_124" result="shape"/>
</filter>
</defs>
</svg>
