<svg width="1083" height="809" viewBox="0 0 1083 809" fill="none" xmlns="http://www.w3.org/2000/svg">
<g clip-path="url(#clip0_851_1324)">
<path d="M0 40C0 17.9086 17.9086 0 40 0H1043C1065.09 0 1083 17.9086 1083 40V769C1083 791.091 1065.09 809 1043 809H40C17.9086 809 0 791.091 0 769V40Z" fill="#F7F4E8"/>
</g>
<defs>
<clipPath id="clip0_851_1324">
<path d="M0 40C0 17.9086 17.9086 0 40 0H1043C1065.09 0 1083 17.9086 1083 40V769C1083 791.091 1065.09 809 1043 809H40C17.9086 809 0 791.091 0 769V40Z" fill="white"/>
</clipPath>
</defs>
</svg>
