<svg width="42" height="49" viewBox="0 0 42 49" fill="none" xmlns="http://www.w3.org/2000/svg">
<path d="M10.6201 22.1252C10.6201 22.1252 10.3061 23.5987 9.77855 24.2193C9.25098 24.8399 8.84265 25.6499 8.51016 25.8336C8.17768 26.0173 8.01229 27.1199 7.49262 27.5897C6.97295 28.0595 6.63821 28.2863 6.63821 28.2863C6.63821 28.2863 6.39786 29.1765 6.05418 29.9842C5.71049 30.792 4.60807 33.3469 4.60807 33.3469L3.84216 39.4172L4.88521 42.8434C4.88521 42.8434 6.16886 42.9921 6.20866 43.4639C6.24852 43.9357 5.35312 44.182 5.00586 44.2372C4.6586 44.2923 3.1458 44.4097 2.7633 44.3155C2.38079 44.2213 2.67454 43.5443 2.71873 43.1126C2.76287 42.6809 2.82638 42.4206 2.65725 42.2975C2.48812 42.1743 2.69346 41.9521 2.64325 40.857C2.59304 39.7619 2.47719 39.5079 2.48058 39.4432C2.48396 39.3786 2.74756 37.9961 2.61721 36.8361C2.48686 35.6761 2.42951 34.3777 2.27144 33.9877C2.11337 33.5976 1.77063 32.8653 1.87269 32.5606C1.97476 32.2559 2.88587 31.2993 2.91975 30.6528C2.95362 30.0064 6.53122 18.4181 6.53122 18.4181L7.73628 17.6018L10.6201 22.1252Z" fill="#AF6D30"/>
<path d="M29.5811 22.6894C29.3349 22.87 28.8958 23.4445 28.8744 23.9107C28.8617 24.1859 28.6707 24.9334 28.4715 25.5981C28.3337 26.0594 28.192 26.4801 28.1023 26.6768C27.8834 27.1576 26.4291 29.8538 26.0628 31.0925C25.6966 32.3312 25.5789 33.7548 25.5938 34.292C25.6087 34.8292 25.3898 35.31 25.2126 35.7254C25.0348 36.1402 24.7277 38.086 24.6462 38.8201C24.5647 39.5542 24.6754 41.9592 24.8648 42.3612C25.0536 42.7632 25.2784 43.1855 25.3137 43.7435C25.349 44.3015 26.0403 44.6644 26.7134 44.9635C27.3864 45.2626 27.751 46.1102 27.6977 46.3056C27.6592 46.448 27.5697 46.6835 27.1706 46.8713C27.0223 46.941 26.8306 47.005 26.5823 47.0544C25.6687 47.2368 24.5621 46.9958 23.4454 46.9488C22.3286 46.9018 22.1798 46.4553 22.1559 46.0905C22.132 45.7258 22.9625 45.073 22.9693 44.9437C22.9761 44.8144 22.8239 44.4326 22.6411 44.2239C22.4584 44.0153 22.4945 43.3257 22.5876 43.1934C22.6806 43.0611 22.897 41.8061 22.8673 41.1404C22.8376 40.4747 22.804 37.8305 22.6961 37.4256C22.5882 37.0208 22.378 36.1033 22.2587 35.5053C22.1394 34.9073 22.2991 33.9123 22.3581 33.6092C22.417 33.306 22.7515 32.262 22.7786 31.7449C22.8057 31.2278 22.9109 29.6325 23.1387 28.5707C23.244 28.079 23.4602 27.4214 23.6625 26.8342C23.8973 26.1533 24.114 25.5669 24.1207 25.4394C24.1331 25.2023 23.6823 24.3578 23.6823 24.3578L27.7253 21.4822L27.9749 21.3044C27.9749 21.3044 28.0709 21.3668 28.2158 21.4651C28.4612 21.6316 28.8482 21.9012 29.151 22.147C29.4566 22.395 29.6769 22.6191 29.5811 22.6894Z" fill="#D9A54F"/>
<path d="M29.5776 22.6893C29.3314 22.8699 28.8923 23.4444 28.8708 23.9106C28.8582 24.1858 28.6671 24.9333 28.4679 25.598C27.8887 25.4474 27.3051 25.2999 27.1252 25.2661C26.7338 25.1932 25.1313 26.4977 24.5772 26.8021C24.0232 27.1058 23.659 26.8341 23.659 26.8341C23.8938 26.1532 24.1105 25.5668 24.1171 25.4393C24.1296 25.2022 23.6788 24.3577 23.6788 24.3577L27.7217 21.4821L28.2123 21.465C28.4576 21.6315 28.8447 21.9011 29.1475 22.1469C29.4531 22.3949 29.6734 22.619 29.5776 22.6893Z" fill="#B78337"/>
<path d="M29.5776 22.6881C29.3314 22.8688 28.8923 23.4433 28.8709 23.9095C28.8494 24.3756 28.3177 26.1949 28.0987 26.6756C27.8798 27.1565 26.4256 29.8526 26.0593 31.0913C25.693 32.3301 25.5754 33.7536 25.5903 34.2908C25.6052 34.828 25.3863 35.3088 25.209 35.7242C25.0312 36.1391 24.7242 38.0848 24.6427 38.8189C24.5611 39.553 24.6719 41.958 24.8613 42.36C25.05 42.7621 25.2748 43.1843 25.3102 43.7423C25.3455 44.3003 26.0367 44.6633 26.7098 44.9623C27.383 45.2614 27.7474 46.109 27.6942 46.3045C27.6557 46.4468 27.5661 46.6823 27.1671 46.8701C27.1806 46.5566 27.0632 46.434 26.6409 45.8681C26.2186 45.3022 24.9769 45.1735 24.5286 45.1031C24.0803 45.0327 23.6568 44.4883 23.7373 44.1844C23.8178 43.8805 24.5033 43.9425 24.2488 43.0482C23.9944 42.1537 24.0915 40.3007 24.0312 39.8081C23.9709 39.3156 24.0978 38.5369 24.1646 38.0829C24.2315 37.6289 24.0442 37.5064 23.8284 37.1053C23.6127 36.7042 23.4002 35.8298 23.4694 35.3327C23.5385 34.8356 24.2997 33.8627 24.4925 33.4688C24.6854 33.075 25.3707 32.3198 25.1097 32.3719C24.8486 32.4241 24.0568 33.5701 24.2348 33.0477C24.4129 32.5253 24.7157 31.6759 24.7087 30.988C24.7017 30.3 24.9828 29.0427 25.0761 29.7277C25.1694 30.4127 25.6245 30.7624 25.8221 30.3469C26.0197 29.9313 26.0111 29.1359 26.1731 28.0979C26.3351 27.0599 27.4513 24.4149 27.652 24.1104C28.1548 23.346 28.7695 22.5909 29.1474 22.1458C29.4532 22.3937 29.6734 22.6179 29.5776 22.6881Z" fill="#B78337"/>
<path d="M41.4881 2.48639C41.4093 2.758 41.0905 3.09175 40.9441 3.21515C40.8703 3.27749 40.7439 3.41989 40.6233 3.5866C40.6233 3.5866 40.6232 3.58718 40.6232 3.58777C40.6226 3.58837 40.6226 3.58896 40.6226 3.58896C40.5046 3.75319 40.3943 3.94046 40.3491 4.09615C40.2573 4.4112 40.1984 5.12301 40.2218 5.49857C40.2451 5.87413 40.184 6.62902 40.0939 6.91179C40.051 7.04591 39.9073 7.28874 39.7622 7.52557C39.602 7.78744 39.4385 8.0429 39.4053 8.14022C39.3418 8.32526 39.2421 8.99547 39.2115 9.16859C39.181 9.34171 39.212 11.8283 38.9743 12.6683C38.7366 13.5082 38.0538 15.0375 37.71 15.4367C37.3663 15.8358 37.0919 16.9638 37.0455 17.4386C36.9991 17.9134 35.9793 19.7125 35.6968 20.1741C35.4144 20.6356 34.5317 21.8708 33.6455 22.3535C32.8454 22.7894 30.6479 22.9875 29.7588 22.9217L29.7582 22.9217C29.6629 22.9149 29.5827 22.9052 29.5206 22.8918C28.882 22.7564 28.2683 22.4875 27.925 22.4672C27.5817 22.4469 27.0245 22.6062 26.818 22.85C26.6115 23.0938 25.1851 24.0254 24.7437 24.2344C24.5543 24.324 24.1675 24.5395 23.7675 24.7912L23.7669 24.7918C23.2352 25.1258 22.6805 25.5234 22.5322 25.774C22.2724 26.2133 22.3214 26.9213 22.2694 27.5038C22.2173 28.0863 22.0265 28.5447 21.8937 29.173C21.7615 29.8014 21.3782 30.9546 21.2911 31.7965C21.2039 32.6383 21.3416 34.1175 21.3588 34.6115C21.3759 35.1056 21.1389 35.9312 20.8157 36.7597C20.4925 37.5883 20.0989 38.5269 19.9459 39.3925C19.7929 40.2581 19.7785 41.3556 19.8308 41.9989C19.8832 42.6423 20.0025 43.2403 20.2205 43.5984C20.4385 43.9564 20.2708 44.6935 20.2549 44.9951C20.2391 45.2968 21.1646 46.2108 21.6707 46.3652C22.1767 46.5196 22.0547 47.2981 21.6176 47.3779C21.4419 47.4103 21.078 47.4523 20.6501 47.4828C20.0139 47.5295 19.2367 47.5512 18.7257 47.4789C17.8711 47.3581 16.8087 47.0942 16.8144 46.9864C16.82 46.8787 16.8119 46.2122 17.1103 45.8577C17.4087 45.5031 17.6493 45.4302 17.4891 44.7906C17.3289 44.1509 17.5086 43.3919 17.5618 43.1965C17.6152 43.001 18.0598 41.4299 18.1413 40.6957C18.2229 39.9616 18.1428 37.9284 18.0383 37.4589C17.9338 36.9893 17.7703 36.823 17.7937 36.6501C17.8171 36.4773 17.8541 36.0458 17.7761 35.8908C17.6981 35.7358 17.468 35.199 17.5624 34.7656C17.6569 34.3321 17.7889 32.908 17.878 32.3027C17.9672 31.6974 18.1272 30.2866 18.1066 29.8572C18.0861 29.4278 17.9933 27.6388 17.9849 27.2519C17.9765 26.8651 18.0088 25.975 18.0178 25.8026C18.0269 25.6301 17.5049 26.0069 17.0796 25.6346C16.6543 25.2623 15.7675 25.2072 15.4769 25.0023C15.1863 24.7974 14.985 24.532 14.1655 24.2882C13.346 24.0444 12.4093 23.8477 12.0158 23.6893C11.6224 23.531 10.5046 22.6811 10.5046 22.6811C10.5046 22.6811 7.94882 19.9744 7.44173 19.2465C7.38948 19.1712 7.34385 19.1179 7.30316 19.0835C7.30316 19.0835 7.30319 19.0829 7.30205 19.0823C6.95417 18.7844 7.03103 19.9072 6.9644 20.688C6.89003 21.5598 6.45877 24.3123 6.55383 24.6895C6.64883 25.0668 6.06074 26.98 5.8641 27.4456C5.66751 27.9114 5.35003 29.0408 5.23367 29.6184C5.11731 30.196 4.80943 33.3325 4.84888 33.6752C4.88833 34.0179 4.73595 35.8299 4.74963 36.1162C4.76331 36.4025 4.4624 37.2159 4.49884 37.6161C4.53528 38.0163 4.75534 40.525 4.83491 41.0599C4.91448 41.5948 5.12006 42.1898 5.26311 42.3354C5.40616 42.481 5.73206 43.2438 5.74119 43.4801C5.75031 43.7164 6.24185 44.1939 6.77079 44.369C7.29968 44.544 7.31347 45.1028 7.26129 45.2766C7.20915 45.4505 6.11165 45.4458 6.11165 45.4458C6.11165 45.4458 5.31615 45.8392 4.75329 45.9019C4.19037 45.9646 3.25074 46.234 3.34932 45.5853C3.4479 44.9367 3.55335 44.5674 3.48403 44.2472C3.41472 43.927 3.41801 43.4538 3.47231 42.8281C3.5266 42.2025 3.57949 40.3725 3.33056 38.9618C3.08164 37.551 2.76816 36.5511 2.52846 35.7852C2.28881 35.0193 2.00262 34.3195 2.02069 33.9748C2.03876 33.63 2.40522 33.2086 2.48652 31.6572C2.56782 30.1058 2.62075 28.6845 2.46735 27.9156C2.31395 27.1467 1.85841 25.571 1.86048 24.7107C1.86255 23.8503 1.82575 22.088 1.81186 21.1206C1.79798 20.1533 1.5274 18.3346 1.59873 17.7945C1.67006 17.2543 1.84905 15.8931 2.62846 14.984C3.40791 14.075 3.88842 13.5426 4.49825 12.9831C4.49825 12.9831 5.88252 11.759 6.3469 11.1119C6.81128 10.4648 8.74347 9.73773 9.16406 9.37893C9.41131 9.16778 10.0796 8.32658 10.7396 7.44798C10.7409 7.44613 10.7416 7.44494 10.7416 7.44494C11.2024 6.83144 11.6594 6.20071 11.9656 5.75389C12.2827 5.29177 12.7522 4.798 13.2476 4.35896C13.9172 3.76623 14.6347 3.27341 15.0896 3.09259C15.5714 2.90132 16.2176 2.61887 16.8885 2.68449C17.3192 2.72682 17.7603 2.91213 18.1752 3.35766C19.0984 4.34941 19.7273 5.54737 21.2024 5.83106C21.4202 5.8736 21.6575 5.89583 21.9165 5.89395C23.0386 5.88703 24.3895 6.13079 25.537 6.56209C25.5411 6.56317 25.5452 6.56477 25.5499 6.56641C25.5499 6.56641 25.5575 6.56912 25.5728 6.57517C25.5845 6.57954 25.5962 6.5839 25.6074 6.58829C26.4847 6.92628 27.2367 7.37378 27.6658 7.90123C28.6634 9.12814 28.9723 10.3504 29.2313 10.8863C29.3974 11.2299 29.7071 11.9946 30.0217 12.4938C30.0229 12.495 30.0239 12.4967 30.0245 12.4973C30.1989 12.7738 30.3747 12.9684 30.5286 12.963C30.9598 12.948 31.8888 12.1986 32.1261 11.5021C32.3635 10.8056 32.8428 9.32635 32.9258 8.29107C33.0087 7.25585 33.4321 5.74985 33.7194 5.19499C34.0068 4.64008 34.0563 4.38027 33.7785 4.06741C33.5008 3.7545 33.0329 2.82448 33.06 2.30737C33.0871 1.79026 33.2578 1.20356 33.6482 1.14694C34.0386 1.09032 34.4577 1.51117 34.6128 1.83915C34.6128 1.83915 34.8088 1.79468 35.0613 1.49551C35.3137 1.19635 35.4888 1.14003 35.6214 1.07447C35.7539 1.00892 36.1534 0.575558 36.4938 0.445376C36.8342 0.315195 37.1344 0.336979 37.5662 0.311126C37.998 0.285326 38.288 0.296694 38.6115 0.489717C38.9351 0.68274 39.3829 0.968224 39.5809 1.09032C39.779 1.21247 39.7603 1.36363 39.7603 1.36363C39.7603 1.36363 39.8978 1.42214 40.0106 1.38C40.0374 1.37009 40.0627 1.35424 40.0849 1.3308C40.1989 1.20853 40.6238 0.699021 41.0727 0.758601C41.5215 0.81818 41.5023 0.980185 41.5495 1.31187C41.5969 1.64382 41.5669 2.21479 41.4881 2.48639Z" fill="#D9A54F"/>
<path d="M34.8926 15.5773C34.3579 15.2734 34.2211 15.1921 34.1744 13.7313C34.1278 12.2704 34.1145 11.4751 34.3258 10.844C34.5193 10.2655 34.1456 8.86206 34.2037 7.58391C34.2079 7.46785 34.1813 7.31398 34.173 7.14285C34.173 7.14285 34.1736 7.14283 34.173 7.14226C34.155 6.64106 34.1906 6.16786 34.2226 5.9439C34.2906 5.46835 34.43 4.45266 34.2959 4.13472C34.1619 3.81679 34.0131 3.37035 33.9574 2.79155C33.9016 2.2128 34.4955 1.88914 34.61 1.8386C34.7122 1.79321 34.7881 1.79353 34.9828 1.58124C35.0923 1.52695 35.1919 1.48011 35.2825 1.43964C35.8521 1.18534 36.0615 1.18492 36.087 1.17989C36.1428 1.16876 35.8151 1.58858 35.5351 2.27453C35.1595 3.19462 35.275 4.20986 35.275 4.20986C35.2648 4.59736 36.2375 5.50072 35.7466 5.82015C35.5677 5.93631 34.6253 6.0648 34.5535 6.61276C34.4817 7.16073 34.6386 7.86501 34.8554 8.24453C34.983 8.46892 35.0762 8.94834 35.1151 9.42796C35.1418 9.76158 35.1428 10.0955 35.1119 10.3433C35.0366 10.9481 34.5607 11.8149 34.7371 12.5555C34.9135 13.2968 35.5106 13.8136 35.7489 13.7838C35.9873 13.7539 35.338 14.5294 34.9442 14.0915C34.5504 13.6536 34.7114 14.3577 34.9411 14.6508C35.1715 14.9439 35.3968 15.1296 35.7254 15.2471C36.0535 15.3647 35.4279 15.8812 34.8926 15.5773Z" fill="#EBBA75"/>
<path d="M39.2094 9.16887C39.1788 9.34199 39.2099 11.8286 38.9722 12.6685C38.7345 13.5085 38.0516 15.0378 37.7079 15.437C37.3641 15.8361 37.0898 16.964 37.0434 17.4388C36.997 17.9136 35.9772 19.7128 35.6947 20.1744C35.4122 20.6359 34.5296 21.8711 33.6434 22.3538C32.8433 22.7897 30.6458 22.9878 29.7566 22.922C31.0389 22.7667 32.8173 21.6046 33.3957 20.7893C33.9741 19.9739 34.0687 17.1126 34.425 16.8851C34.7813 16.6576 34.6634 17.2639 35.2241 17.2443C35.7847 17.2248 36.2223 15.4459 36.2223 15.4459C36.2223 15.4459 36.708 15.2138 36.833 14.3922C36.9573 13.5706 37.105 11.4546 37.2707 10.6316C37.4365 9.80856 37.7627 8.99565 38.2064 8.50825C38.65 8.02086 39.1308 7.55992 39.3443 7.03195C39.5578 6.50398 40.2153 5.38417 40.2153 5.38417C40.2153 5.38417 40.2553 6.12363 40.1488 6.65163C40.0423 7.17963 39.7601 7.52595 39.7601 7.52595C39.5999 7.78782 39.4364 8.04328 39.4032 8.1406C39.3398 8.32554 39.2401 8.99575 39.2094 9.16887Z" fill="#B78337"/>
<path d="M25.6767 21.7036C25.4372 22.5606 24.2278 24.2534 23.8653 24.728L23.7643 24.7909L23.7637 24.7915C23.232 25.1256 22.6773 25.5231 22.529 25.7738C22.2692 26.213 22.3182 26.9211 22.2662 27.5036C22.2141 28.0861 22.0233 28.5444 21.8905 29.1727C21.7583 29.8011 21.375 30.9543 21.2879 31.7962C21.2007 32.638 21.3384 34.1172 21.3556 34.6113C21.3727 35.1054 21.1357 35.9309 20.8125 36.7595C20.4893 37.5881 20.0957 38.5266 19.9427 39.3923C19.7898 40.2579 19.7753 41.3553 19.8276 41.9987C19.88 42.6421 19.9993 43.2401 20.2173 43.5981C20.4353 43.9562 20.2676 44.6932 20.2517 44.9949C20.2359 45.2966 21.1614 46.2105 21.6675 46.3649C22.1735 46.5193 22.0515 47.2978 21.6144 47.3776C21.4387 47.41 21.0748 47.452 20.6469 47.4825C21.1572 47.2598 20.9547 46.7304 20.8378 46.5445C20.7186 46.3551 19.7618 46.1304 19.4768 45.8178C19.1918 45.5051 18.7674 45.3908 18.5959 44.9667C18.4244 44.5425 18.7747 44.43 18.8626 43.0504C18.9504 41.6709 19.2869 41.229 19.3865 40.4225C19.4862 39.6161 19.2907 38.4185 19.1577 37.4195C19.0247 36.4204 19.4851 35.8022 19.6925 35.6802C19.8997 35.5583 20.5428 35.3351 20.5722 34.7737C20.6017 34.2117 19.9009 34.4398 19.785 34.4624C19.669 34.4844 19.7525 33.9862 20.0853 33.6591C20.4182 33.3321 20.6373 32.4354 20.6098 31.318C20.5823 30.2006 20.3144 29.8372 20.4307 29.2596C20.5471 28.682 20.3198 27.5429 20.1502 26.9466C19.9805 26.3503 20.7669 24.4876 20.8353 24.0264C20.9031 23.5652 20.2794 23.3862 19.6522 23.306C19.0251 23.2251 18.6147 22.8422 19.509 22.7536C20.4033 22.665 21.9911 21.4457 22.9699 20.396C24.3243 18.9435 24.5812 14.4174 24.5908 13.8585C24.6176 12.2517 25.2703 13.0318 25.5292 13.5677C25.7881 14.1034 26.2622 16.0082 26.3563 16.9513C26.4504 17.8943 25.9593 20.693 25.6767 21.7036Z" fill="#B78337"/>
<path d="M7.25501 45.2764C7.20288 45.4503 6.10538 45.4456 6.10538 45.4456C6.08594 44.9946 5.84751 44.6159 5.57173 44.5395C5.29595 44.4631 4.74655 44.2678 4.6217 44.1855C4.4969 44.1032 4.42167 43.0741 4.42971 42.7727C4.43775 42.4714 4.2245 39.8549 4.15283 39.1692C4.08117 38.4834 4.05726 35.3227 3.80221 35.1811C3.54716 35.0394 2.88743 34.9764 3.42978 34.4843C3.97212 33.9922 3.8823 33.2426 3.86173 32.8132C3.84121 32.3837 3.64466 31.6163 3.81923 31.3306C3.99444 31.0449 4.01103 30.1244 3.99769 29.2601C3.9902 28.7736 4.08357 28.4768 4.35087 28.5448C4.64826 28.6204 4.83653 28.1765 4.86138 27.7025C4.88622 27.2284 4.83082 26.9205 4.58949 26.7298C4.41446 26.5916 4.07545 25.5864 4.33521 25.0109C4.65842 24.2949 5.19649 24.5937 5.1634 23.9927C5.13032 23.3916 5.15135 21.3477 5.05234 20.3618C4.95333 19.3759 5.29913 18.1164 5.52645 17.4758C5.75369 16.8358 5.75121 15.2402 5.89435 15.7944C6.0375 16.3486 6.17418 16.7524 6.43693 17.4888C6.6945 18.2099 7.27177 19.0477 7.29573 19.0821C6.94785 18.7842 7.0247 19.907 6.95808 20.6878C6.88371 21.5596 6.45245 24.3121 6.5475 24.6893C6.6425 25.0666 6.05442 26.9798 5.85778 27.4454C5.66118 27.9111 5.34371 29.0406 5.22735 29.6182C5.11098 30.1958 4.8031 33.3323 4.84256 33.675C4.88201 34.0177 4.72963 35.8297 4.7433 36.116C4.75698 36.4022 4.45608 37.2157 4.49251 37.6159C4.52895 38.0161 4.74902 40.5248 4.82859 41.0597C4.90816 41.5946 5.11374 42.1896 5.25679 42.3352C5.39984 42.4808 5.72573 43.2436 5.73486 43.4799C5.74399 43.7162 6.23552 44.1937 6.76447 44.3687C7.29341 44.5438 7.30715 45.1025 7.25501 45.2764Z" fill="#B78337"/>
<path d="M38.8913 1.53092C38.8246 1.92518 38.0924 1.71655 37.9418 1.85082C37.7913 1.98514 37.7241 2.74379 37.5789 2.75247C37.4343 2.76171 37.483 2.03889 37.2435 1.8967C37.0573 1.78613 36.4774 2.00231 36.3155 1.94343C36.2433 1.9173 36.1806 1.82449 36.1783 1.69731L36.1778 1.69674L36.1778 1.69616C36.176 1.53733 36.2671 1.32563 36.5521 1.1251C36.5521 1.1251 36.7271 0.660199 36.8905 0.554084C37.0539 0.448022 37.3769 0.149952 37.5823 0.142778C37.7877 0.135604 38.0428 0.470804 38.1268 0.510911C38.2108 0.551018 38.4856 0.785124 38.5771 0.954033C38.6687 1.12289 38.9536 1.16315 38.8913 1.53092Z" fill="#EBBA75"/>
<path d="M39.0931 3.98913C39.0761 4.31234 38.5712 4.98842 37.5646 5.01699C36.6182 5.04383 35.8332 4.3826 35.8371 4.10284C35.8391 3.96117 35.9662 3.85102 36.0915 3.7767L36.0921 3.77668C36.2137 3.70434 36.3334 3.66609 36.3334 3.66609C36.6559 3.48039 37.1171 3.42904 37.5397 3.43158C37.9091 3.43301 38.2488 3.47613 38.4398 3.50592C38.4404 3.5059 38.441 3.50588 38.4422 3.50642C38.5418 3.52146 38.6004 3.53316 38.6004 3.53316C38.6004 3.53316 38.6724 3.55156 38.7605 3.59211C38.8569 3.63592 38.9734 3.70535 39.04 3.80461C39.0755 3.85713 39.0968 3.91853 39.0931 3.98913Z" fill="#EBBA75"/>
<path d="M38.9936 3.74999C38.8019 3.94964 38.2905 4.09333 37.9761 4.03442C37.9057 4.02122 37.5944 3.93731 37.532 3.94108C37.4695 3.94485 37.0788 4.0622 36.8521 4.0932C36.4474 4.14857 36.0576 3.90946 36.0907 3.77764L36.0913 3.77762L37.5389 3.43253L37.772 3.37657C37.772 3.37657 38.1095 3.42932 38.439 3.50681C38.4396 3.50679 38.4403 3.50677 38.4414 3.50732C38.553 3.5333 38.6639 3.56227 38.7598 3.593C38.8562 3.63692 38.9114 3.67909 38.9936 3.74999Z" fill="#B78337"/>
<path d="M39.2651 3.25057C39.2559 3.42645 39 3.75571 38.5233 3.81774C38.3344 3.84233 38.1364 3.81204 37.9664 3.76655C37.7072 3.69721 37.6547 3.60427 37.5525 3.61452C37.4706 3.62274 37.1739 3.81004 36.9957 3.84895C36.5841 3.9389 36.1745 3.8175 35.9984 3.73863C35.7461 3.62554 35.7426 3.28155 35.8832 2.92537C36.0238 2.56919 36.3488 2.18682 36.5458 2.05629C36.7428 1.92576 36.9145 1.87672 37.1618 1.8693C37.3738 1.86312 37.826 1.83597 37.9496 1.82863C37.9699 1.82734 37.9814 1.82636 37.9814 1.82636C37.9814 1.82636 38.5821 1.77194 38.7834 1.93516C38.9767 2.09145 39.2787 2.9901 39.2651 3.25057Z" fill="#EBBA75"/>
<path d="M34.0408 3.08073C34.0408 3.08073 34.2766 2.66093 34.4873 2.61054C34.6979 2.56019 34.1895 2.47234 34.2191 2.38528C34.2488 2.29822 34.556 2.17816 34.7292 2.15778C34.9025 2.1374 35.229 2.14734 35.3425 2.30826C35.4561 2.46919 35.1665 2.65517 35.1731 2.80359C35.1796 2.95201 35.204 3.3096 35.2161 3.4884C35.2282 3.66719 34.9469 4.10715 34.7691 4.21377C34.5914 4.32039 34.4498 3.87365 34.5258 3.79213C34.6018 3.71061 34.8326 3.68823 34.9762 3.41075C35.1199 3.13332 34.9312 3.44819 34.7201 3.50572C34.509 3.56329 34.3285 3.45725 34.3175 3.184C34.3065 2.91081 34.1155 3.13151 34.0563 3.16632C33.9972 3.20118 34.0408 3.08073 34.0408 3.08073Z" fill="#B78337"/>
<path d="M34.2362 3.02994C34.2362 3.02994 34.3678 2.77798 34.593 2.79166C34.8183 2.80529 34.92 3.12435 34.92 3.12435C34.92 3.12435 34.6874 3.45509 34.4825 3.46224C34.2777 3.4694 34.2362 3.02994 34.2362 3.02994Z" fill="#5E431C"/>
<path d="M40.8585 2.72442C40.8585 2.72442 40.6659 2.31958 40.4598 2.28374C40.2536 2.2479 40.7731 2.1242 40.7525 2.03889C40.7319 1.95359 40.4362 1.85459 40.2645 1.84626C40.0927 1.83793 39.764 1.87074 39.6331 2.0402C39.5022 2.20966 39.7734 2.37607 39.7512 2.52549C39.729 2.67492 39.667 3.03552 39.6361 3.21582C39.6051 3.39612 39.8413 3.818 40.0085 3.91257C40.1758 4.00709 40.3648 3.54886 40.297 3.47236C40.2293 3.39587 40 3.38954 39.885 3.12115C39.7699 2.85276 39.9262 3.15553 40.132 3.19855C40.3378 3.24157 40.5302 3.1225 40.5699 2.84748C40.6096 2.57252 40.7781 2.78067 40.8339 2.81146C40.8897 2.84226 40.8585 2.72442 40.8585 2.72442Z" fill="#B78337"/>
<path d="M40.5707 2.63621C40.5707 2.63621 40.4651 2.39259 40.2376 2.42203C40.01 2.45147 39.8745 2.77881 39.8745 2.77881C39.8745 2.77881 40.0732 3.09449 40.2781 3.08734C40.4829 3.08018 40.5707 2.63621 40.5707 2.63621Z" fill="#5E431C"/>
<path d="M34.4726 3.09383C34.5292 3.09185 34.5775 3.04443 34.5804 2.9879C34.5834 2.93138 34.5399 2.88716 34.4834 2.88913C34.4268 2.89111 34.3785 2.93853 34.3756 2.99506C34.3726 3.05158 34.4161 3.0958 34.4726 3.09383Z" fill="white"/>
<path d="M40.1679 2.69881C40.2245 2.69683 40.2728 2.64941 40.2757 2.59288C40.2787 2.53636 40.2352 2.49214 40.1787 2.49411C40.1221 2.49609 40.0738 2.54351 40.0709 2.60004C40.0679 2.65656 40.1114 2.70078 40.1679 2.69881Z" fill="white"/>
<path d="M35.8151 6.8938C36.1514 6.40272 36.7237 5.80719 36.9416 5.48413C37.1594 5.16107 37.6088 4.80127 37.9191 5.44999C38.2295 6.09871 38.9396 7.33566 39.0993 7.57384C39.259 7.81202 38.6196 7.69095 38.2329 7.40338C37.8462 7.11577 37.5788 6.73801 37.3418 6.74629C37.1046 6.75457 36.5198 6.96137 36.2581 7.30029C35.9964 7.63921 35.3371 8.18699 35.2482 7.95213C35.1732 7.75398 35.535 7.30272 35.8151 6.8938Z" fill="#B78337"/>
<path d="M38.0806 1.48564C38.0806 1.48564 38.4371 1.25799 38.6417 1.25095C38.8464 1.24391 38.8833 1.36441 38.752 1.40482C38.6208 1.44528 38.0806 1.48564 38.0806 1.48564Z" fill="#5E431C"/>
<path d="M36.9851 1.52558C36.9851 1.52558 36.6313 1.43042 36.4948 1.43519C36.3582 1.43996 36.2848 1.47117 36.2936 1.57844C36.3023 1.68566 36.8614 1.55861 36.9851 1.52558Z" fill="#5E431C"/>
<path d="M39.1271 3.27064C39.0934 3.37429 38.8386 3.65061 38.514 3.55862C38.19 3.46661 38.0494 3.23127 37.9965 3.07841C37.9357 2.90312 37.8609 2.58965 37.7951 2.37621C37.7525 2.23813 37.6602 1.86933 37.7136 1.84332C37.7762 1.81284 37.9586 1.80552 38.1598 1.81919C38.3178 1.82991 38.5425 1.88771 38.6655 1.99099C38.7155 2.03297 38.8535 2.2337 38.9419 2.46603C39.0709 2.80489 39.1471 3.20912 39.1271 3.27064Z" fill="#D9A54F"/>
<path d="M20.6636 13.3644C20.6742 13.8531 20.5759 15.7301 20.7373 16.7569C20.8347 17.3761 20.4622 19.5253 19.8222 20.5741C19.4011 21.2642 18.6369 22.0048 18.4236 22.3392C18.2103 22.6736 18.2359 22.9984 18.6357 24.1315C18.7262 24.388 19.1098 24.6594 19.1892 24.9407C19.4606 25.9021 19.5038 26.6503 19.4575 27.5337C19.4112 28.4171 19.7578 31.6793 19.7132 32.1918C19.6589 32.8152 19.2998 33.4723 19.1379 33.6314C18.9807 33.7859 18.778 34.1755 18.6492 34.7495C18.5203 35.3234 18.6359 36.448 18.7382 36.9606C18.8405 37.4732 18.8371 38.5742 18.8488 39.1473C18.8605 39.7205 18.5655 39.5802 18.3927 38.4965C18.3328 38.121 18.282 37.7189 18.2369 37.3216C18.2113 37.0959 18.0152 36.8991 17.9927 36.6824C17.9701 36.4656 18.1326 36.1876 18.0969 35.926C18.0497 35.5806 17.8034 35.2557 17.7767 35.0554C17.7446 34.8159 18.0997 34.4943 18.101 34.2053C18.1041 33.5642 18.2173 33.1885 18.2912 32.6286C18.3651 32.0687 18.3897 31.5713 18.453 30.7733C18.5164 29.9753 18.2268 27.2428 18.2112 26.3257C18.1956 25.4086 18.418 24.7269 18.0538 24.0084C17.6897 23.2898 17.6191 22.1739 17.9046 21.6549C18.19 21.136 18.4182 20.067 18.2879 19.2686C18.1576 18.4702 17.9485 17.5312 18.4475 16.2233C18.9465 14.9155 20.6467 12.5907 20.6636 13.3644Z" fill="#EBBA75"/>
<path d="M19.5235 9.8123C18.552 10.6125 16.6301 10.5368 15.0209 10.851C13.4116 11.1653 9.51872 13.4377 10.481 13.146C11.4434 12.8543 13.592 12.3778 15.532 12.5968C17.472 12.8158 18.2367 14.6531 18.1002 15.2505C17.9642 15.8484 16.399 17.9576 15.8287 18.4364C15.2583 18.9151 14.0421 20.2194 11.48 19.8214C8.91806 19.4233 7.42404 17.8123 6.98652 16.8525C6.54894 15.8928 7.03276 14.3274 7.30657 14.0311C7.58038 13.7348 8.55147 12.181 8.86292 11.1664C9.16857 10.1712 10.6771 7.54541 10.7331 7.44729C10.7344 7.44544 10.7351 7.44425 10.7351 7.44425C11.1959 6.83074 11.6529 6.20002 11.959 5.75319C12.2762 5.29107 12.7457 4.79731 13.2411 4.35826C13.2423 4.35763 13.2429 4.35703 13.2441 4.35635C14.9735 3.24448 15.9747 3.21848 16.4646 3.64589C16.9544 4.0733 17.4322 5.12684 18.1254 5.82465C19.0285 6.73373 19.8328 7.31357 20.1119 7.76261C20.391 8.21166 20.3007 9.1722 19.5235 9.8123Z" fill="#EBBA75"/>
<path d="M30.2827 12.8389C30.5538 13.162 29.3081 12.9059 28.7335 12.3706C28.406 12.0656 27.4802 10.959 27.1863 9.99433C26.8925 9.02958 26.805 7.81701 26.1406 7.35271C25.4906 6.89862 25.3447 6.50946 25.5326 6.56265C25.5368 6.56373 25.5409 6.56534 25.5456 6.56698C25.5456 6.56698 25.5532 6.56968 25.5684 6.57573C25.5773 6.57898 25.589 6.5834 25.603 6.58885C26.4803 6.92684 27.2324 7.37434 27.6615 7.90179C28.659 9.1287 28.968 10.351 29.2269 10.8868C29.3931 11.2304 30.2211 12.7327 30.2827 12.8389Z" fill="#B78337"/>
<path d="M20.4877 6.00093C20.1011 5.98578 19.4798 5.51997 19.2444 5.35614C19.0091 5.1923 18.4157 4.46744 18.1198 4.09062C17.8238 3.71381 17.2608 3.23164 16.7553 3.01992C16.2499 2.80814 16.8841 2.685 16.8841 2.685L16.8859 2.68436C17.3166 2.72669 17.7577 2.912 18.1725 3.35752C19.0957 4.34928 19.7247 5.54724 21.1997 5.83092L21.2003 5.83149C21.3616 6.03909 20.8744 6.01609 20.4877 6.00093Z" fill="#B78337"/>
<path d="M38.8887 1.52965C38.822 1.92391 38.0898 1.71528 37.9392 1.84955C37.7887 1.98387 37.7215 2.74252 37.5763 2.7512C37.4317 2.76044 37.4804 2.03763 37.2409 1.89543C37.0547 1.78486 36.4748 2.00104 36.3129 1.94216C36.2407 1.91603 36.178 1.82322 36.1757 1.69604C36.181 1.71018 36.2289 1.82203 36.3757 1.8169C36.532 1.81144 36.8951 1.76113 37.0492 1.69658C37.2033 1.63203 37.4342 1.53794 37.5096 1.5353C37.5851 1.53267 37.9787 1.62108 38.1502 1.63361C38.3217 1.64684 38.7053 1.67526 38.8887 1.52965Z" fill="#B78337"/>
</svg>
