<svg width="1073" height="82" viewBox="0 0 1073 82" fill="none" xmlns="http://www.w3.org/2000/svg">
<path d="M26.1387 0.498017C26.2144 0.774716 27.7299 2.04753 29.5484 3.43103L32.9581 5.92132L36.8982 2.98831L40.9141 0.110638H33.4885C29.4726 0.110638 26.1387 0.276658 26.1387 0.498017Z" fill="#2E1408"/>
<path d="M42.66 5.47864C38.5683 8.41165 35.2344 10.9019 35.2344 10.9573C35.2344 11.068 35.9921 11.1786 36.9771 11.1786C38.1137 11.1786 40.5384 9.85049 43.9481 7.30486C46.8274 5.1466 49.5552 3.43107 49.934 3.43107C50.3887 3.43107 53.1922 5.20194 56.1473 7.3602C60.0874 10.2379 61.9817 11.234 63.194 11.068C64.5579 10.9573 63.7244 10.0718 57.4354 5.53398L50.0098 0.166021L42.66 5.47864Z" fill="#2E1408"/>
<path d="M95.47 2.54565C99.6374 6.25342 99.6374 6.25342 104.563 2.43497L107.518 0.110703H100.092H92.7422L95.47 2.54565Z" fill="#2E1408"/>
<path d="M143.057 5.64466C136.313 10.4592 135.556 11.1786 137.223 11.1786C138.587 11.1786 140.632 10.0718 144.421 7.30486C147.376 5.1466 150.028 3.43107 150.483 3.43107C150.862 3.43107 153.589 5.20194 156.544 7.3602C160.712 10.4039 162.303 11.234 163.743 11.068C165.41 10.9019 164.879 10.4039 158.211 5.47864L150.786 0.110681L143.057 5.64466Z" fill="#2E1408"/>
<path d="M160.258 0.442723C160.258 0.608742 161.849 1.88156 163.819 3.20971L167.305 5.7L171.017 3.04369C172.987 1.60486 174.654 0.332043 174.654 0.276703C174.654 0.166024 171.396 0.110684 167.456 0.110684C163.516 0.110684 160.258 0.276703 160.258 0.442723Z" fill="#2E1408"/>
<path d="M227.693 0.55336C227.693 0.77472 229.209 2.04754 231.027 3.37569L234.361 5.7553L237.847 3.43103C239.741 2.15821 241.332 0.885399 241.332 0.6087C241.332 0.332001 238.301 0.110642 234.513 0.110642C230.8 0.110642 227.693 0.332001 227.693 0.55336Z" fill="#2E1408"/>
<path d="M294.371 0.6087C294.371 0.885399 295.962 2.15821 297.857 3.43103L301.342 5.7553L305.055 3.09899C307.101 1.60482 308.768 0.332001 308.768 0.276661C308.768 0.165982 305.509 0.110642 301.569 0.110642C297.629 0.110642 294.371 0.332001 294.371 0.6087Z" fill="#2E1408"/>
<path d="M310.813 5.47858C306.797 8.41159 303.463 10.9019 303.463 11.0126C303.463 11.0679 304.221 11.1786 305.206 11.1786C306.266 11.1786 308.918 9.73974 312.404 7.30479C315.435 5.14654 318.163 3.431 318.39 3.431C318.617 3.431 321.193 5.14654 324.224 7.24945C329.301 10.7912 333.165 12.4514 332.938 11.0126C332.862 10.6252 329.528 8.02421 325.512 5.25722L318.163 0.110616L310.813 5.47858Z" fill="#2E1408"/>
<path d="M361.884 1.05141C363.097 2.15821 364.688 3.32034 366.809 4.6485C368.325 5.58927 368.476 5.53393 371.886 3.09898C373.856 1.71549 375.447 0.498011 375.447 0.331992C375.447 0.221312 372.189 0.110632 368.173 0.110632C361.354 0.110632 360.975 0.165972 361.884 1.05141Z" fill="#2E1408"/>
<path d="M411.59 5.36796C407.574 8.24563 404.24 10.7359 404.24 10.9019C404.24 11.068 405.074 11.1786 405.983 11.1786C407.195 11.1786 409.468 9.90583 412.878 7.30486C415.682 5.1466 418.334 3.43107 418.637 3.43107C419.016 3.43107 421.668 5.1466 424.623 7.30486C428.411 10.0165 430.609 11.1786 431.897 11.1786C432.958 11.1786 433.715 11.0126 433.715 10.7359C433.64 10.5146 430.306 8.02427 426.29 5.25728L418.94 0.110681L411.59 5.36796Z" fill="#2E1408"/>
<path d="M429.322 1.05149C430.534 2.15829 432.125 3.32042 434.247 4.64858C435.687 5.58936 435.914 5.53402 439.475 2.87771L443.188 0.110715H435.762C428.791 0.110715 428.412 0.166055 429.322 1.05149Z" fill="#2E1408"/>
<path d="M498.574 2.87772C500.62 4.37189 502.438 5.64471 502.59 5.64471C503.045 5.64471 509.561 0.774804 509.561 0.442765C509.561 0.276745 506.227 0.110726 502.211 0.110726H494.861L498.574 2.87772Z" fill="#2E1408"/>
<path d="M562.604 0.553399C562.604 0.774758 564.119 2.10291 566.013 3.43107L569.423 5.86602L573.439 2.98835L577.379 0.11068H569.953C565.937 0.11068 562.604 0.332039 562.604 0.553399Z" fill="#2E1408"/>
<path d="M629.281 0.387393C629.281 0.553413 630.872 1.82623 632.767 3.15438C636.101 5.534 636.252 5.58934 637.843 4.7039C638.753 4.20584 640.495 2.93302 641.632 1.93691L643.829 0.110694H636.555C632.539 0.110694 629.281 0.221374 629.281 0.387393Z" fill="#2E1408"/>
<path d="M679.518 5.58932C673.002 10.3485 672.168 11.1786 673.759 11.1786C675.047 11.1786 677.245 10.0165 680.882 7.30486C683.761 5.1466 686.337 3.43107 686.64 3.43107C686.944 3.43107 689.671 5.20194 692.626 7.3602C697.021 10.5699 698.385 11.234 700.052 11.068C701.946 10.9019 701.643 10.5699 694.596 5.47864L687.095 0.0553398L679.518 5.58932Z" fill="#2E1408"/>
<path d="M696.719 0.332016C696.719 1.05143 702.477 5.09124 703.462 5.09124C704.144 5.09124 706.19 3.98444 708.009 2.60095L711.343 0.110657H704.069C699.977 0.110657 696.719 0.221337 696.719 0.332016Z" fill="#2E1408"/>
<path d="M713.009 5.64466C706.417 10.4592 705.735 11.1786 707.326 11.1786C708.69 11.1786 710.811 10.0718 714.524 7.30486C717.403 5.1466 719.98 3.43107 720.283 3.43107C720.51 3.43107 723.086 5.1466 725.966 7.30486C730.209 10.5146 731.573 11.1786 733.543 11.1786C735.967 11.1786 735.816 11.068 728.466 5.75534C724.299 2.82233 720.813 0.33204 720.662 0.2767C720.586 0.22136 717.1 2.65631 713.009 5.64466Z" fill="#2E1408"/>
<path d="M766.731 2.82233C770.898 5.92136 771.05 5.92136 775.823 2.32427L778.854 0.110681H770.974H763.094L766.731 2.82233Z" fill="#2E1408"/>
<path d="M833.713 2.98831L837.653 5.92132L841.593 2.98831L845.609 0.110638H837.653H829.697L833.713 2.98831Z" fill="#2E1408"/>
<path d="M847.278 5.47864C843.262 8.41165 839.928 10.9019 839.928 11.0126C839.928 11.068 840.685 11.1786 841.67 11.1786C842.807 11.1786 845.232 9.85049 848.641 7.30486C851.521 5.1466 854.173 3.43107 854.476 3.43107C854.779 3.43107 857.507 5.1466 860.462 7.30486C864.326 10.0718 866.523 11.1786 867.887 11.1786C869.63 11.1786 868.948 10.5146 862.28 5.64466C858.113 2.60097 854.703 0.110681 854.703 0.110681C854.627 0.110681 851.293 2.49029 847.278 5.47864Z" fill="#2E1408"/>
<path d="M899.482 1.88151C904.635 6.032 904.18 5.97666 908.272 3.04365C910.242 1.60481 911.909 0.331999 911.909 0.276659C911.909 0.165979 908.575 0.11064 904.559 0.11064H897.209L899.482 1.88151Z" fill="#2E1408"/>
<path d="M913.804 5.64466C906.758 10.7913 906.379 11.1786 908.425 11.1786C910.092 11.1786 911.758 10.2932 915.774 7.30486C918.654 5.1466 921.306 3.43107 921.609 3.43107C921.912 3.43107 924.564 5.1466 927.443 7.30486C931.535 10.3485 933.202 11.1786 934.945 11.1786C936.99 11.1786 936.611 10.8466 929.413 5.64466C925.17 2.60097 921.609 0.110681 921.533 0.110681C921.457 0.110681 917.972 2.60097 913.804 5.64466Z" fill="#2E1408"/>
<path d="M947.674 5.58932C941.082 10.4039 940.249 11.1786 941.84 11.1786C943.128 11.1786 945.325 10.0165 949.038 7.30486C951.993 5.1466 954.645 3.43107 954.948 3.43107C955.251 3.43107 957.979 5.20194 961.01 7.3602C965.329 10.4039 966.844 11.234 968.36 11.068C970.178 10.9019 969.648 10.4592 962.828 5.4233L955.327 9.53674e-07L947.674 5.58932Z" fill="#2E1408"/>
<path d="M964.949 0.387383C964.949 0.498063 966.54 1.77088 968.435 3.15437L971.92 5.7L975.254 3.32039C977.073 1.99224 978.588 0.774762 978.588 0.498063C978.588 0.276703 975.557 0.110684 971.769 0.110684C968.056 0.110684 964.949 0.221364 964.949 0.387383Z" fill="#2E1408"/>
<path d="M980.631 5.64466C973.281 10.9019 973.054 11.1786 975.176 11.1786C976.918 11.1786 978.585 10.3485 982.904 7.19418L988.436 3.20971L993.512 6.75146C996.316 8.74369 998.741 10.5146 998.892 10.7359C999.195 11.1786 1003.59 11.3447 1003.59 10.9573C1003.59 10.6252 989.193 0.110681 988.739 0.110681C988.511 0.110681 984.874 2.60097 980.631 5.64466Z" fill="#2E1408"/>
<path d="M1033.6 1.88153C1037.77 5.25726 1038.6 5.69998 1039.66 5.0359C1042.01 3.59706 1046.03 0.719395 1046.03 0.442696C1046.03 0.276676 1042.69 0.110657 1038.68 0.110657H1031.33L1033.6 1.88153Z" fill="#2E1408"/>
<path d="M1047.99 5.7C1041.63 10.3485 1040.79 11.1786 1042.31 11.1786C1043.6 11.1786 1045.79 9.96117 1049.43 7.30486C1052.31 5.1466 1055.04 3.43107 1055.49 3.43107C1055.95 3.43107 1058.68 5.1466 1061.56 7.30486C1065.72 10.3485 1067.31 11.1786 1069.06 11.1786C1071.25 11.1786 1071.03 10.9573 1064.51 6.19806C1060.8 3.43107 1057.24 0.940778 1056.63 0.664079C1055.72 0.33204 1053.68 1.49418 1047.99 5.7Z" fill="#2E1408"/>
<path d="M8.63868 5.92136C2.80429 10.1272 1.66772 11.1786 3.0316 11.1786C4.0924 11.1786 6.7444 9.73981 10.1541 7.30486C13.185 5.1466 16.0643 3.43107 16.5189 3.43107C17.0493 3.43107 19.8528 5.1466 22.7322 7.30486C26.445 10.0165 28.5666 11.1786 29.8547 11.1786C31.5216 11.1786 30.8397 10.5146 24.6264 5.92136C20.6863 3.04369 17.1251 0.664079 16.6705 0.664079C16.2916 0.664079 12.6546 3.04369 8.63868 5.92136Z" fill="#2E1408"/>
<path d="M75.3906 5.92136C68.95 10.6252 68.4196 11.1786 70.2381 11.1786C71.6778 11.1786 73.6478 10.1272 77.5122 7.30486C80.3915 5.1466 83.1192 3.43107 83.4981 3.43107C83.8769 3.43107 86.5289 5.1466 89.4083 7.30486C92.818 9.85049 95.2427 11.1786 96.3792 11.1786C97.3643 11.1786 98.122 11.068 98.122 10.9573C98.122 10.5146 84.3316 0.940776 83.4981 0.774756C82.9677 0.719417 79.3307 2.98835 75.3906 5.92136Z" fill="#2E1408"/>
<path d="M108.959 5.75534C105.095 8.52233 101.912 10.8466 101.912 10.9573C101.912 11.068 102.821 11.1786 104.034 11.1786C105.625 11.1786 107.368 10.2379 111.308 7.30486C114.187 5.1466 116.763 3.43107 116.991 3.43107C117.294 3.43107 119.87 5.1466 122.749 7.30486C126.159 9.85049 128.584 11.1786 129.72 11.1786C130.705 11.1786 131.463 11.068 131.463 10.8466C131.463 10.2379 117.748 0.664079 116.839 0.664079C116.309 0.664079 112.747 2.93301 108.959 5.75534Z" fill="#2E1408"/>
<path d="M176.396 5.75534C172.532 8.52233 169.35 10.8466 169.35 10.9573C169.35 11.068 170.107 11.1786 171.092 11.1786C172.229 11.1786 174.654 9.85049 178.063 7.30486C180.943 5.1466 183.595 3.43107 183.973 3.43107C184.277 3.43107 187.004 5.1466 189.959 7.30486C193.521 9.85049 195.945 11.1786 197.158 11.1786C198.143 11.1786 198.9 11.068 198.9 10.9019C198.9 10.3485 185.034 0.664079 184.201 0.664079C183.746 0.664079 180.185 2.93301 176.396 5.75534Z" fill="#2E1408"/>
<path d="M210.416 5.7C206.552 8.46699 203.445 10.8466 203.445 10.9573C203.445 11.068 204.051 11.1786 204.809 11.1786C205.567 11.1786 208.522 9.40777 211.401 7.30486C214.281 5.1466 217.008 3.43107 217.463 3.43107C217.918 3.43107 220.57 5.1466 223.449 7.30486C227.541 10.2932 229.208 11.1786 230.875 11.1786C232.92 11.1786 232.617 10.8466 225.874 5.92136C221.934 3.04369 218.372 0.664079 218.069 0.664079C217.69 0.664079 214.281 2.93301 210.416 5.7Z" fill="#2E1408"/>
<path d="M242.922 5.92136C236.557 10.6252 235.951 11.1786 237.694 11.1786C239.134 11.1786 241.179 10.0718 245.044 7.30486C251.333 2.82233 250.878 2.76699 257.546 7.80291C261.107 10.5146 262.395 11.1786 264.365 11.1786C266.639 11.1786 266.563 11.068 259.516 5.92136C255.576 3.04369 251.787 0.664079 251.181 0.664079C250.575 0.664079 246.862 3.04369 242.922 5.92136Z" fill="#2E1408"/>
<path d="M277.098 5.75534C273.234 8.52233 270.127 10.9019 270.127 11.0126C270.127 11.068 270.809 11.1786 271.567 11.1786C272.4 11.1786 275.279 9.46311 278.159 7.30486C280.962 5.1466 283.69 3.43107 284.22 3.43107C284.751 3.43107 287.706 5.1466 290.737 7.30486C294.525 9.96117 296.874 11.1786 298.162 11.1786C299.754 11.1786 299.072 10.4592 292.858 5.92136C288.918 3.04369 285.357 0.664079 284.902 0.664079C284.448 0.664079 280.962 2.93301 277.098 5.75534Z" fill="#2E1408"/>
<path d="M343.698 5.92136C337.636 10.4039 336.879 11.1786 338.47 11.1786C339.682 11.1786 341.955 9.96117 345.516 7.30486C348.472 5.20194 351.199 3.43107 351.578 3.43107C352.033 3.43107 354.761 5.1466 357.64 7.30486C361.05 9.85049 363.474 11.1786 364.611 11.1786C365.596 11.1786 366.354 11.068 366.354 10.9573C366.354 10.4592 352.412 0.664079 351.654 0.664079C351.199 0.664079 347.638 3.04369 343.698 5.92136Z" fill="#2E1408"/>
<path d="M376.964 5.92136C370.069 10.9573 369.917 11.1786 372.039 11.1786C373.857 11.1786 375.373 10.4039 379.54 7.30486C382.419 5.1466 384.995 3.43107 385.223 3.43107C385.526 3.43107 388.102 5.1466 390.981 7.30486C395.149 10.3485 396.74 11.1786 398.483 11.1786C400.604 11.1786 400.377 10.9019 393.255 5.92136C389.163 3.04369 385.45 0.664079 384.995 0.664079C384.541 0.664079 380.904 3.04369 376.964 5.92136Z" fill="#2E1408"/>
<path d="M444.401 5.92136C438.112 10.5146 437.505 11.1786 439.097 11.1786C440.461 11.1786 442.582 10.0718 446.295 7.30486C449.174 5.1466 451.75 3.43107 451.978 3.43107C452.205 3.43107 454.781 5.1466 457.812 7.30486C462.131 10.4039 463.647 11.1786 465.465 11.1786C467.738 11.1786 467.587 11.0126 460.616 5.92136C456.6 3.04369 452.963 0.664079 452.432 0.664079C451.978 0.664079 448.341 3.04369 444.401 5.92136Z" fill="#2E1408"/>
<path d="M478.346 5.81068C474.633 8.57767 471.678 10.9019 471.678 11.0126C471.678 11.1233 472.284 11.1786 473.042 11.1786C473.799 11.1786 476.754 9.40777 479.634 7.30486C482.513 5.1466 485.241 3.43107 485.695 3.43107C486.15 3.43107 488.878 5.1466 491.757 7.30486C495.773 10.2379 497.516 11.1786 499.107 11.1786C501.077 11.1786 500.622 10.7359 493.803 5.92136C489.787 3.04369 486.15 0.664079 485.695 0.719419C485.317 0.719419 481.983 2.98835 478.346 5.81068Z" fill="#2E1408"/>
<path d="M511.077 5.92138C504.787 10.5146 504.106 11.1787 505.773 11.1787C507.136 11.1787 509.106 10.1825 512.213 7.80293C519.108 2.71167 518.654 2.76701 524.943 7.19419C528.125 9.46312 531.232 11.1233 532.52 11.2893C533.656 11.4554 534.566 11.4 534.566 11.234C534.566 10.4592 520.472 0.664095 519.411 0.664095C518.805 0.664095 515.017 3.04371 511.077 5.92138Z" fill="#2E1408"/>
<path d="M545.176 5.92136C539.797 9.85049 538.357 11.1786 539.569 11.1786C540.479 11.1786 543.282 9.57379 546.389 7.30486C549.268 5.20194 552.147 3.43107 552.754 3.43107C553.36 3.43107 556.239 5.20194 559.118 7.30486C562.907 10.1272 564.801 11.1786 566.241 11.1786C568.059 11.1786 567.529 10.6252 561.088 5.92136C557.148 3.04369 553.587 0.664079 553.132 0.664079C552.678 0.664079 549.117 3.04369 545.176 5.92136Z" fill="#2E1408"/>
<path d="M578.516 5.92136C572.227 10.5146 571.621 11.1786 573.212 11.1786C574.576 11.1786 576.697 10.0718 580.41 7.30486C583.289 5.1466 585.941 3.43107 586.32 3.43107C586.699 3.43107 589.503 5.1466 592.458 7.30486C596.322 10.0165 598.52 11.1786 599.883 11.1786C601.55 11.1786 600.868 10.5146 594.504 5.92136C590.412 3.04369 586.775 0.664079 586.396 0.664079C586.017 0.664079 582.456 3.04369 578.516 5.92136Z" fill="#2E1408"/>
<path d="M611.855 5.92136C605.566 10.5699 604.884 11.1786 606.627 11.1786C607.991 11.1786 610.036 10.0718 613.825 7.30486C616.704 5.20194 619.432 3.43107 619.811 3.43107C620.266 3.43107 622.993 5.1466 625.873 7.30486C629.585 10.0718 631.707 11.1786 633.071 11.1786C634.662 11.1786 634.056 10.5146 627.767 5.92136C623.827 3.04369 620.266 0.664079 619.811 0.664079C619.356 0.664079 615.795 3.04369 611.855 5.92136Z" fill="#2E1408"/>
<path d="M645.194 5.92132C638.299 10.9572 638.147 11.1786 640.269 11.1786C642.012 11.1786 643.451 10.5145 646.028 8.52229C647.922 7.08345 650.422 5.31258 651.483 4.59316L653.453 3.26501L658.985 7.19413C663.91 10.6252 665.804 11.4553 668.229 11.2339C669.214 11.1233 654.438 0.664036 653.302 0.664036C652.771 0.664036 649.134 3.04365 645.194 5.92132Z" fill="#2E1408"/>
<path d="M746.423 5.92136C740.665 10.1272 739.528 11.1786 740.892 11.1786C742.029 11.1786 744.529 9.79515 747.863 7.30486C750.742 5.1466 753.47 3.43107 753.925 3.43107C754.379 3.43107 757.107 5.1466 759.987 7.30486C764.078 10.3485 765.745 11.1786 767.488 11.1786C769.534 11.1786 769.231 10.8466 762.335 5.92136C758.244 3.04369 754.683 0.664079 754.304 0.664079C753.925 0.664079 750.364 3.04369 746.423 5.92136Z" fill="#2E1408"/>
<path d="M779.459 5.86597C774.685 9.40772 772.791 11.1233 773.548 11.3446C774.912 11.732 776.579 10.8466 782.186 6.75141C784.687 4.92519 786.96 3.43102 787.187 3.43102C787.49 3.43102 790.142 5.14655 793.173 7.30481C797.416 10.3485 799.159 11.1786 800.902 11.1786C803.024 11.1786 802.796 10.9572 795.977 5.92131C792.037 3.04364 788.248 0.664028 787.642 0.664028C787.036 0.664028 783.323 2.9883 779.459 5.86597Z" fill="#2E1408"/>
<path d="M813.329 5.92136C807.571 10.0718 806.434 11.1786 807.722 11.1786C808.783 11.1786 811.283 9.73981 814.617 7.30486C817.497 5.1466 820.3 3.43107 820.831 3.43107C821.361 3.43107 824.24 5.1466 827.195 7.30486C830.908 9.96117 833.106 11.1786 834.47 11.1786C836.061 11.1786 835.303 10.4592 829.09 5.92136C825.074 3.04369 821.588 0.664079 821.21 0.664079C820.906 0.664079 817.345 3.04369 813.329 5.92136Z" fill="#2E1408"/>
<path d="M880.16 5.92136C874.25 10.2932 873.34 11.1786 874.78 11.1786C875.917 11.1786 878.493 9.85049 882.054 7.30486C885.009 5.1466 887.813 3.43107 888.192 3.43107C888.57 3.43107 891.222 5.1466 894.102 7.30486C897.511 9.85049 899.936 11.1786 901.073 11.1786C902.058 11.1786 902.815 11.068 902.815 10.9573C902.815 10.5146 888.722 0.664079 888.04 0.664079C887.585 0.664079 884.1 3.04369 880.16 5.92136Z" fill="#2E1408"/>
<path d="M1014.43 5.9767C1008.9 10.1825 1007.83 11.1786 1009.2 11.1786C1010.18 11.1786 1012.76 9.73981 1016.09 7.30486C1018.97 5.1466 1021.7 3.43107 1022.16 3.43107C1022.61 3.43107 1025.26 5.1466 1028.14 7.30486C1031.7 10.0165 1033.82 11.1786 1035.11 11.1786C1036.1 11.1786 1036.93 11.068 1036.93 10.9573C1036.93 10.4039 1022.84 0.664078 1022.16 0.719418C1021.78 0.719418 1018.29 3.09903 1014.43 5.9767Z" fill="#2E1408"/>
<path d="M7.956 14.2223L0 20.033L8.18331 25.9544L16.2908 31.9311L24.2468 26.1204C28.6416 22.9107 32.2028 20.1437 32.2028 19.9777C32.2028 19.4243 17.2001 8.41166 16.4424 8.41166C16.1393 8.41166 12.3507 11.0126 7.956 14.2223Z" fill="#2E1408"/>
<path d="M42.2052 14.1117C37.962 17.2107 34.4766 20.033 34.4766 20.3097C34.4766 20.6418 37.8863 23.3534 42.0537 26.3971L49.6308 31.9311L57.5868 26.1204C61.9816 22.9107 65.5428 20.199 65.5428 20.033C65.5428 19.7563 52.6617 10.2379 50.3128 8.68836C50.0855 8.57768 46.4484 11.0126 42.2052 14.1117Z" fill="#2E1408"/>
<path d="M74.7869 14.3883L66.9824 20.199L74.7869 25.9544C79.0301 29.0534 82.8944 31.6544 83.349 31.6544C83.8037 31.6544 87.5165 29.1641 91.6839 26.1204C95.8513 23.0767 99.7157 20.5864 100.398 20.5864C101.004 20.5864 104.944 23.0767 109.036 26.1204C113.203 29.1641 116.764 31.6544 117.067 31.6544C117.295 31.6544 121.007 29.0534 125.402 25.8437L133.282 20.0883L125.705 14.499C121.614 11.4553 117.825 8.96503 117.446 8.96503C116.992 8.96503 113.203 11.4553 108.884 14.499C104.641 17.5427 100.928 20.033 100.549 20.033C100.17 20.033 96.3817 17.432 92.0628 14.2223C87.668 11.0126 83.8037 8.46697 83.349 8.52231C82.9702 8.52231 79.1058 11.1786 74.7869 14.3883Z" fill="#2E1408"/>
<path d="M142.527 14.2777L134.268 20.1437L142.148 25.899C146.467 29.0534 150.255 31.6544 150.558 31.6544C151.24 31.6544 166.319 20.531 166.319 20.0883C166.319 19.867 162.833 17.2107 158.59 14.1116L150.786 8.46697L142.527 14.2777Z" fill="#2E1408"/>
<path d="M175.942 14.3884L167.834 20.3097L175.79 26.1204L183.746 31.9311L192.081 25.8437L200.416 19.7563L192.535 14.1117C188.141 10.9573 184.504 8.41166 184.352 8.41166C184.201 8.41166 180.412 11.068 175.942 14.3884Z" fill="#2E1408"/>
<path d="M209.584 14.167C202.841 19.1476 201.78 20.0884 202.613 20.8078C203.371 21.4719 215.04 29.9389 217.54 31.5991C217.692 31.7651 221.556 29.2194 226.027 25.9544L234.21 19.9777L226.178 14.2224C221.783 11.0127 217.995 8.41168 217.768 8.41168C217.616 8.41168 213.903 11.0127 209.584 14.167Z" fill="#2E1408"/>
<path d="M242.999 14.1669C233.83 20.8077 233.679 19.5902 244.135 26.9504L251.258 31.8757L259.365 25.9543L267.473 20.0329L259.517 14.2223C255.122 11.0126 251.409 8.41158 251.182 8.41158C250.955 8.41158 247.242 11.0126 242.999 14.1669Z" fill="#2E1408"/>
<path d="M276.188 14.2223L268.232 20.033L276.416 25.9544L284.523 31.9311L292.479 26.1204C296.874 22.9107 300.359 20.1437 300.284 19.9223C299.981 19.3136 285.129 8.41166 284.599 8.41166C284.372 8.41166 280.583 11.0126 276.188 14.2223Z" fill="#2E1408"/>
<path d="M310.131 14.3883L302.023 20.3097L309.979 26.065L318.011 31.8204L326.195 25.8437L334.378 19.867L328.089 15.3844C324.679 12.8942 321.042 10.3485 319.981 9.68444L318.163 8.41163L310.131 14.3883Z" fill="#2E1408"/>
<path d="M343.471 14.001C339.379 17.0447 336.045 19.7563 336.045 20.1437C336.045 20.4757 339.455 23.2427 343.698 26.2311C350.669 31.267 351.427 31.6544 352.563 30.8796C353.245 30.4369 357.034 27.7806 360.974 25.0136L368.096 19.9777L360.216 14.167C355.897 11.0126 352.033 8.41166 351.578 8.467C351.199 8.467 347.486 11.0126 343.471 14.001Z" fill="#2E1408"/>
<path d="M377.113 14.1116C372.87 17.2107 369.385 19.9223 369.385 20.1437C369.385 20.5864 384.691 31.6544 385.297 31.6544C385.524 31.6544 389.237 29.0534 393.632 25.8437L401.512 20.0883L393.48 14.2223C389.161 11.0126 385.373 8.41163 385.221 8.41163C385.069 8.41163 381.432 10.9573 377.113 14.1116Z" fill="#2E1408"/>
<path d="M410.531 14.2223C406.212 17.432 402.727 20.0883 402.727 20.2543C402.727 20.6417 417.957 31.6544 418.563 31.6544C418.79 31.6544 422.579 29.0534 426.973 25.8437L434.929 20.033L426.973 14.2223C422.579 11.0126 418.866 8.41163 418.639 8.46697C418.411 8.46697 414.774 11.0679 410.531 14.2223Z" fill="#2E1408"/>
<path d="M444.17 14.3883L436.062 20.3096L444.018 26.1203L451.899 31.8757L453.566 30.7689C454.475 30.2155 458.188 27.5038 461.901 24.8475L468.568 19.9223L461.976 14.997C451.899 7.41547 453.566 7.47081 444.17 14.3883Z" fill="#2E1408"/>
<path d="M477.891 14.1116C473.648 17.2107 470.162 19.9223 470.162 20.1437C470.162 20.6971 485.013 31.6544 485.771 31.6544C486.15 31.6544 490.014 29.0534 494.409 25.8437L502.365 20.033L494.409 14.2223C490.014 11.0126 486.301 8.41163 486.074 8.41163C485.847 8.41163 482.21 10.9573 477.891 14.1116Z" fill="#2E1408"/>
<path d="M511.152 14.2776L503.271 20.1436L511.303 26.0096L519.335 31.8757L527.518 25.9543L535.626 19.9776L527.746 14.2223C523.351 11.0126 519.638 8.41158 519.411 8.41158C519.183 8.41158 515.471 11.0679 511.152 14.2776Z" fill="#2E1408"/>
<path d="M544.417 14.2223L536.461 20.033L544.644 25.9544L552.752 31.9311L560.708 26.1204C565.103 22.9107 568.664 20.199 568.664 19.9777C568.664 19.535 553.434 8.41166 552.828 8.41166C552.6 8.41166 548.812 11.0126 544.417 14.2223Z" fill="#2E1408"/>
<path d="M577.908 14.3329L570.18 20.1436L578.136 26.0096L586.167 31.8757L594.048 26.1203C598.442 22.9106 602.004 20.199 602.004 19.9776C602.004 19.5349 586.774 8.41158 586.167 8.46692C585.94 8.46692 582.227 11.1232 577.908 14.3329Z" fill="#2E1408"/>
<path d="M611.856 14.0009C607.915 17.0446 604.506 19.8116 604.354 20.1437C604.127 20.6971 618.523 31.6544 619.584 31.6544C619.887 31.6544 623.676 28.998 628.146 25.7883L636.178 19.867L628.374 14.167C624.055 11.0126 620.266 8.41163 619.812 8.46697C619.433 8.46697 615.796 10.9573 611.856 14.0009Z" fill="#2E1408"/>
<path d="M645.118 14.2777L637.086 20.1437L645.118 25.899C649.512 29.0534 653.301 31.6544 653.528 31.6544C653.756 31.6544 657.468 29.0534 661.787 25.899L669.668 20.0883L661.636 14.2777C657.241 11.0679 653.528 8.41163 653.377 8.41163C653.225 8.41163 649.512 11.0679 645.118 14.2777Z" fill="#2E1408"/>
<path d="M678.534 14.2777L670.578 20.1437L678.534 25.899C683.005 29.0534 686.793 31.6544 687.021 31.6544C687.399 31.6544 700.281 22.4126 702.099 20.8077C702.857 20.0883 701.72 19.0369 695.128 14.167C690.809 11.0126 687.096 8.41163 686.869 8.41163C686.642 8.41163 682.929 11.0679 678.534 14.2777Z" fill="#2E1408"/>
<path d="M745.742 14.3883L737.635 20.3097L745.439 26.0097C749.682 29.1087 753.471 31.6544 753.774 31.6544C754.153 31.6544 758.017 29.0534 762.488 25.8437L770.52 19.9777L762.639 14.2223C758.245 11.0126 754.532 8.41163 754.304 8.41163C754.077 8.41163 750.213 11.0679 745.742 14.3883Z" fill="#2E1408"/>
<path d="M779.308 14.2777L771.504 20.1437L779.536 26.0097L787.643 31.9311L795.751 26.0097L803.934 20.033L796.736 14.7204C792.796 11.8427 789.007 9.24176 788.325 8.96506C787.34 8.57768 785.446 9.68448 779.308 14.2777Z" fill="#2E1408"/>
<path d="M812.647 14.2223C808.328 17.3767 804.918 20.1437 805.146 20.2543C807.191 21.9699 820.603 31.6544 820.982 31.6544C821.209 31.6544 824.922 29.0534 829.317 25.8437L837.273 20.033L829.317 14.2223C824.922 11.0126 821.209 8.41163 820.982 8.41163C820.754 8.41163 817.042 11.0126 812.647 14.2223Z" fill="#2E1408"/>
<path d="M846.138 14.333L838.334 20.2544L846.29 26.0651L854.322 31.9311L862.278 26.1204C866.672 22.9107 870.158 20.1437 870.082 19.9223C869.779 19.3136 854.928 8.41166 854.398 8.41166C854.17 8.41166 850.457 11.068 846.138 14.333Z" fill="#2E1408"/>
<path d="M879.477 14.3329L871.824 20.3096L879.78 26.1203L887.66 31.8757L895.995 25.8436L904.254 19.8116L896.526 14.1116C892.282 11.0126 888.418 8.41158 887.964 8.41158C887.509 8.41158 883.72 11.0679 879.477 14.3329Z" fill="#2E1408"/>
<path d="M913.498 14.167C906.755 19.1476 905.694 20.0884 906.527 20.8078C908.194 22.302 921 31.3777 921.606 31.5437C921.909 31.5991 925.697 29.0534 930.016 25.8991L937.821 20.1437L929.865 14.2777C925.546 11.068 921.833 8.41169 921.606 8.41169C921.454 8.41169 917.817 11.0127 913.498 14.167Z" fill="#2E1408"/>
<path d="M946.613 14.333L938.506 20.3097L946.462 25.9543C950.781 29.1087 954.569 31.6544 954.948 31.6544C955.251 31.6544 959.04 29.0534 963.435 25.8437L971.391 20.033L963.435 14.2223C959.04 11.0126 955.327 8.41163 955.1 8.41163C954.872 8.41163 951.084 11.0679 946.613 14.333Z" fill="#2E1408"/>
<path d="M980.635 14.3884L972.527 20.3097L980.483 26.1204L988.439 31.9311L996.623 25.9544L1004.73 20.033L996.774 14.2223L988.818 8.41166L980.635 14.3884Z" fill="#2E1408"/>
<path d="M1013.97 14.333L1005.86 20.2543L1013.59 25.9543C1017.91 29.1087 1021.7 31.6544 1022.15 31.6544C1022.61 31.6544 1026.47 29.0534 1030.87 25.8437L1038.82 20.033L1030.87 14.2223C1026.47 11.0126 1022.76 8.41163 1022.53 8.41163C1022.31 8.41163 1018.44 11.0679 1013.97 14.333Z" fill="#2E1408"/>
<path d="M1047.77 14.2223C1041.02 19.2582 1040.11 20.199 1040.87 21.0291C1041.4 21.5271 1044.96 24.1834 1048.83 26.8951L1055.87 31.8757L1063.45 26.3417C1067.62 23.3533 1071.03 20.4757 1071.03 20.0329C1071.03 19.3135 1056.86 8.41158 1055.87 8.41158C1055.65 8.41158 1052.01 11.0126 1047.77 14.2223Z" fill="#2E1408"/>
<path d="M712.024 14.665L704.295 20.3096L712.251 26.1203L720.131 31.8757L724.905 28.5553C727.557 26.7844 731.194 24.0728 733.012 22.6339L736.422 19.9776L728.921 14.499C724.753 11.4553 721.04 8.96498 720.586 8.96498C720.131 8.96498 716.343 11.5106 712.024 14.665Z" fill="#2E1408"/>
<path d="M1.13477 28.6106C1.13477 28.7766 4.62025 31.3776 8.78768 34.4767L16.5164 40.066L23.942 34.5873C28.0336 31.599 31.4433 28.998 31.4433 28.7213C31.4433 27.3378 27.9578 28.8873 23.1085 32.4844C20.0018 34.7533 16.971 36.6349 16.4406 36.6349C15.9102 36.6349 12.9551 34.7533 9.92425 32.4844C6.43876 29.8281 3.78676 28.3339 2.80174 28.3339C1.89248 28.3339 1.13477 28.4446 1.13477 28.6106Z" fill="#2E1408"/>
<path d="M34.4766 28.7213C34.4766 28.998 37.8863 31.6543 42.0537 34.6427C46.2211 37.6864 49.6308 40.398 49.6308 40.7301C49.6308 41.0621 46.2969 43.7737 42.281 46.7068C35.9162 51.3553 35.1585 52.1301 36.7497 52.1301C38.0378 52.1301 40.1594 50.9126 44.0995 47.8689L49.6308 43.6077L55.6168 47.9242C60.2388 51.2446 61.9816 52.1854 63.3455 52.0194C64.9367 51.8534 64.3305 51.2446 57.7384 46.4854C53.7225 43.5524 50.3886 40.8407 50.3886 40.5087C50.3886 40.1767 54.0256 37.299 58.4203 34.0893C65.8459 28.7213 66.3005 28.3339 64.2547 28.3339C62.5877 28.3339 60.845 29.2194 56.4503 32.4844C53.3436 34.7534 50.4643 36.6349 50.0097 36.6349C49.5551 36.6349 46.6758 34.7534 43.5691 32.4844C39.8563 29.7174 37.3559 28.3339 36.2193 28.3339C35.2343 28.3339 34.4766 28.5 34.4766 28.7213Z" fill="#2E1408"/>
<path d="M75.3936 34.1447C79.7884 37.3544 83.4254 39.9554 83.577 39.9554C83.6527 39.9554 87.3655 37.3544 91.836 34.1447C99.2616 28.7767 99.7163 28.334 97.6704 28.334C96.0035 28.334 94.3365 29.2195 90.0933 32.4845C87.1382 34.7534 84.1831 36.635 83.577 36.635C83.0466 36.635 80.0157 34.7534 76.9091 32.4845C72.8932 29.4962 70.6958 28.334 69.3319 28.334C67.7407 28.334 68.4984 29.1088 75.3936 34.1447Z" fill="#2E1408"/>
<path d="M108.883 34.2553L117.142 40.1767L125.25 34.2553C132.978 28.6107 133.206 28.334 131.084 28.334C129.19 28.334 127.674 29.1641 123.128 32.4845C120.022 34.7534 117.218 36.6349 116.839 36.6349C116.46 36.6349 113.657 34.7534 110.626 32.4845C106.231 29.2194 104.564 28.334 102.821 28.334C100.776 28.334 101.154 28.7213 108.883 34.2553Z" fill="#2E1408"/>
<path d="M142.45 34.2553L150.482 40.1767L158.59 34.2553C165.636 29.1087 166.47 28.334 164.803 28.334C163.439 28.334 161.242 29.4961 157.226 32.4845C154.119 34.7534 151.164 36.6349 150.709 36.6349C150.179 36.6349 147.3 34.7534 144.269 32.4845C139.95 29.2194 138.283 28.334 136.616 28.334C134.57 28.334 134.949 28.7213 142.45 34.2553Z" fill="#2E1408"/>
<path d="M175.638 34.3106C180.109 37.5757 183.746 40.4534 183.746 40.7301C183.746 41.0068 180.487 43.6077 176.472 46.5407C170.107 51.1893 169.425 51.8534 170.865 52.0194C172.153 52.1854 174.047 51.1893 178.442 47.9796L184.276 43.7184L189.883 47.9242C193.899 50.9126 196.021 52.1301 197.385 52.1301C198.976 52.1301 198.218 51.4106 191.853 46.7068C187.837 43.7737 184.503 40.9514 184.503 40.4534C184.503 40.0106 187.913 37.133 192.156 34.1446C198.748 29.3854 199.582 28.6106 198.142 28.4446C196.854 28.2786 194.96 29.2747 190.641 32.4291C187.458 34.7534 184.503 36.6349 184.125 36.6349C183.67 36.6349 180.866 34.7534 177.76 32.4844C173.213 29.1087 171.774 28.3339 169.804 28.3339C167.531 28.3339 167.758 28.5553 175.638 34.3106Z" fill="#2E1408"/>
<path d="M201.93 28.5554C201.93 28.7767 217.084 39.9554 217.387 39.9554C217.463 39.9554 221.024 37.3544 225.419 34.1447C231.481 29.6622 232.996 28.334 231.708 28.334C230.723 28.334 228.071 29.8835 224.585 32.4845C221.554 34.7534 218.524 36.635 217.842 36.635C217.236 36.635 214.129 34.7534 211.022 32.4845C207.309 29.7175 204.809 28.334 203.672 28.334C202.687 28.334 201.93 28.4447 201.93 28.5554Z" fill="#2E1408"/>
<path d="M242.543 33.9786C246.938 37.133 250.651 39.7893 250.802 39.9C251.181 40.1213 266.336 29.0534 266.336 28.6107C266.336 28.4446 265.654 28.334 264.82 28.334C263.987 28.334 260.956 30.1048 257.773 32.4844C254.667 34.7534 251.787 36.6349 251.409 36.6349C250.954 36.6349 247.999 34.7534 244.892 32.4844C240.346 29.2194 238.603 28.334 236.86 28.334C234.739 28.334 235.118 28.666 242.543 33.9786Z" fill="#2E1408"/>
<path d="M269.367 28.5554C269.367 28.666 272.777 31.3224 277.02 34.4214L284.673 40.1214L292.174 34.6427C296.266 31.6544 299.676 28.9981 299.676 28.7214C299.676 27.3379 296.19 28.8874 291.341 32.4845C288.234 34.7534 285.279 36.635 284.749 36.635C284.294 36.635 281.339 34.7534 278.232 32.4845C274.747 29.9389 271.943 28.334 270.958 28.334C270.049 28.334 269.367 28.4447 269.367 28.5554Z" fill="#2E1408"/>
<path d="M302.707 28.6107C302.707 28.9981 317.634 39.9554 318.164 39.9554C318.392 39.9554 322.029 37.4097 326.348 34.2554C333.243 29.2748 333.925 28.6107 332.334 28.4447C330.97 28.2787 329.227 29.2195 324.757 32.4292C321.574 34.7534 318.619 36.635 318.24 36.635C317.786 36.635 314.906 34.7534 311.8 32.4845C308.087 29.7175 305.586 28.334 304.45 28.334C303.465 28.334 302.707 28.4447 302.707 28.6107Z" fill="#2E1408"/>
<path d="M343.776 34.2L351.808 40.1214L359.612 34.3661C366.507 29.3301 367.265 28.6107 365.75 28.4447C364.462 28.2787 362.719 29.2194 358.476 32.4292C355.445 34.7534 352.49 36.635 351.884 36.635C351.277 36.635 348.247 34.7534 345.14 32.4845C341.124 29.4961 338.927 28.334 337.563 28.334C335.896 28.334 336.729 29.1088 343.776 34.2Z" fill="#2E1408"/>
<path d="M377.189 34.2553L385.297 40.232L393.404 34.2553C401.133 28.6106 401.436 28.3339 399.315 28.3339C397.496 28.3339 395.905 29.164 391.51 32.4844C388.404 34.7533 385.524 36.6349 384.994 36.6349C384.539 36.6349 381.584 34.7533 378.478 32.4844C374.462 29.4961 372.264 28.3339 370.9 28.3339C369.233 28.3339 370.143 29.1087 377.189 34.2553Z" fill="#2E1408"/>
<path d="M410.529 34.2553L418.712 40.1767L426.668 34.366C433.715 29.2747 434.397 28.6107 432.806 28.4447C431.366 28.334 429.699 29.2194 425.456 32.4291C422.425 34.7534 419.47 36.6349 418.864 36.6349C418.333 36.6349 415.454 34.7534 412.499 32.4845C408.028 29.0534 406.664 28.334 404.694 28.334C402.421 28.334 402.649 28.5553 410.529 34.2553Z" fill="#2E1408"/>
<path d="M443.87 34.2553L451.977 40.232L460.085 34.2553C467.207 29.0533 468.041 28.3339 466.298 28.3339C464.934 28.3339 462.888 29.4407 458.872 32.4844C455.842 34.7533 452.887 36.6349 452.432 36.6349C451.977 36.6349 449.022 34.7533 445.916 32.4844C441.369 29.164 439.854 28.3339 437.96 28.3339C435.838 28.3339 436.065 28.6106 443.87 34.2553Z" fill="#2E1408"/>
<path d="M477.661 34.0893C483.799 38.6272 485.39 40.066 485.011 40.8961C484.708 41.5049 481.45 44.1612 477.737 46.8175C471.448 51.2447 470.236 52.6835 472.66 52.6835C473.191 52.6835 476.146 50.802 479.252 48.533C482.359 46.2641 485.238 44.3826 485.693 44.3826C486.072 44.3826 489.027 46.2641 492.209 48.5884C497.059 52.0748 498.271 52.7389 499.711 52.4068C501.226 52.0748 500.696 51.5214 493.725 46.4855C489.482 43.4418 486.072 40.6748 486.072 40.3427C486.072 39.9554 489.557 37.133 493.801 34.034C500.241 29.2748 501.302 28.334 499.787 28.334C498.574 28.334 496.301 29.6622 492.512 32.4845C489.557 34.7534 486.602 36.635 485.996 36.635C485.39 36.635 482.359 34.7534 479.252 32.4845C475.237 29.4961 473.039 28.334 471.675 28.334C470.084 28.334 470.842 29.1088 477.661 34.0893Z" fill="#2E1408"/>
<path d="M509.791 33.4252C513.731 36.2475 517.52 38.9039 518.202 39.3466C519.414 40.066 520.247 39.6233 527.067 34.6427C531.158 31.6543 534.568 28.998 534.568 28.7767C534.568 28.5 533.886 28.334 533.128 28.334C532.219 28.334 529.188 30.1602 526.006 32.4844C522.975 34.7534 520.02 36.6349 519.565 36.6349C519.035 36.6349 516.231 34.7534 513.276 32.4844C508.579 28.9427 507.518 28.334 505.32 28.334H502.744L509.791 33.4252Z" fill="#2E1408"/>
<path d="M537.6 28.5553C537.6 28.666 541.085 31.267 545.253 34.366L552.905 40.0107L560.634 34.3107C566.696 29.8281 567.984 28.6107 566.847 28.4447C565.862 28.2786 563.589 29.5514 559.649 32.4291C556.467 34.7534 553.436 36.6349 552.83 36.6349C552.299 36.6349 549.344 34.7534 546.313 32.4845C542.904 29.9942 540.1 28.334 539.191 28.334C538.282 28.334 537.6 28.4447 537.6 28.5553Z" fill="#2E1408"/>
<path d="M570.936 28.7767C570.936 28.998 574.345 31.6544 578.513 34.698L586.014 40.1767L587.757 39.0699C590.333 37.4097 602.002 28.832 602.002 28.5553C602.002 28.4447 601.244 28.334 600.259 28.334C599.123 28.334 596.622 29.7175 592.909 32.4845C589.803 34.7534 586.923 36.6349 586.469 36.6349C586.014 36.6349 583.135 34.7534 580.028 32.4845C576.315 29.7175 573.815 28.334 572.678 28.334C571.693 28.334 570.936 28.5 570.936 28.7767Z" fill="#2E1408"/>
<path d="M607.687 31.1563C609.808 32.7058 613.294 35.2515 615.491 36.801C617.613 38.2952 619.431 39.9554 619.431 40.4534C619.431 40.9515 616.173 43.7185 612.233 46.5961C606.323 50.8573 605.262 51.9088 606.247 52.2961C607.232 52.6835 608.899 51.7981 613.673 48.3117L619.81 43.8291L625.872 48.2563C631.403 52.3515 633.904 53.4029 634.889 52.2408C635.116 51.9641 631.858 49.3078 627.69 46.2641C623.599 43.2757 620.189 40.5641 620.189 40.2321C620.189 39.9554 623.675 37.133 627.918 34.034C634.51 29.2194 635.419 28.334 633.904 28.334C632.616 28.334 630.418 29.5515 626.554 32.4845C623.523 34.7534 620.568 36.635 619.962 36.635C619.356 36.635 616.325 34.7534 613.294 32.4845C609.278 29.4961 607.232 28.334 605.868 28.334C604.05 28.334 604.201 28.5 607.687 31.1563Z" fill="#2E1408"/>
<path d="M645.423 34.2553L653.53 40.232L661.638 34.2553C669.442 28.6106 669.67 28.3339 667.548 28.3339C665.654 28.3339 664.138 29.164 659.592 32.4844C656.485 34.7533 653.606 36.6349 653.151 36.6349C652.773 36.6349 649.893 34.7533 646.787 32.4844C642.695 29.4407 640.649 28.3339 639.209 28.3339C637.467 28.3339 638.224 29.0533 645.423 34.2553Z" fill="#2E1408"/>
<path d="M678.761 34.2553L686.869 40.232L694.976 34.2553C702.099 29.1087 702.932 28.3339 701.265 28.3339C699.901 28.3339 697.704 29.4961 693.688 32.4844C690.581 34.7533 687.626 36.6349 687.172 36.6349C686.641 36.6349 683.762 34.7533 680.731 32.4844C676.261 29.1087 674.821 28.3339 672.927 28.3339C670.654 28.3339 670.881 28.5553 678.761 34.2553Z" fill="#2E1408"/>
<path d="M711.871 34.1446C716.266 37.3543 720.055 39.9 720.358 39.8446C720.737 39.7339 724.374 37.1883 728.617 34.1446C735.739 28.9427 736.042 28.6106 734.224 28.4446C732.557 28.2786 731.269 28.998 726.798 32.4291C723.768 34.7534 720.964 36.6349 720.585 36.6349C720.131 36.6349 717.251 34.7534 714.145 32.4844C709.598 29.164 708.083 28.3339 706.189 28.3339C704.067 28.3339 704.294 28.6106 711.871 34.1446Z" fill="#2E1408"/>
<path d="M738.391 28.6107C738.391 28.7214 741.8 31.3224 745.968 34.4214C750.135 37.4651 753.545 40.1767 753.545 40.4534C753.545 41.1175 753.242 41.3389 745.362 47.2602C740.285 51.0233 739.3 52.0194 740.285 52.3515C741.194 52.5728 743.24 51.5214 747.407 48.533C750.666 46.2641 753.621 44.3826 754 44.3826C754.378 44.3826 757.258 46.2641 760.364 48.533C765.593 52.3515 767.638 53.2923 768.926 52.2961C769.23 52.1301 766.047 49.4738 761.88 46.4301C757.712 43.4418 754.303 40.6748 754.303 40.3427C754.303 39.9554 757.788 37.133 762.031 34.034C768.851 29.0534 769.608 28.334 767.866 28.334C766.426 28.334 764.532 29.4408 760.592 32.4845C757.637 34.7534 754.757 36.635 754.151 36.635C753.621 36.635 750.59 34.7534 747.483 32.4845C743.77 29.7175 741.27 28.334 740.133 28.334C739.148 28.334 738.391 28.4447 738.391 28.6107Z" fill="#2E1408"/>
<path d="M771.73 28.6107C771.73 28.8874 786.961 39.9554 787.339 39.9554C787.491 39.9554 791.128 37.4097 795.371 34.3107C802.191 29.3301 802.948 28.6107 801.433 28.4447C800.069 28.2787 798.402 29.2195 794.235 32.4292C791.204 34.7534 788.324 36.635 787.718 36.635C787.188 36.635 784.233 34.7534 781.202 32.4845C777.11 29.4962 775.064 28.334 773.625 28.334C772.564 28.334 771.73 28.4447 771.73 28.6107Z" fill="#2E1408"/>
<path d="M805.828 28.6661C805.828 28.8321 809.238 31.433 813.405 34.4767L820.982 39.9554L828.56 34.4214C832.727 31.3777 836.137 28.7214 836.137 28.6107C836.137 28.4447 835.531 28.334 834.697 28.334C833.939 28.334 830.757 30.2156 827.726 32.4845C824.695 34.7534 821.74 36.635 821.134 36.635C820.604 36.635 817.648 34.7534 814.618 32.4845C811.132 29.8282 808.556 28.334 807.495 28.334C806.586 28.334 805.828 28.5 805.828 28.6661Z" fill="#2E1408"/>
<path d="M839.168 28.7213C839.168 28.8874 842.578 31.5437 846.821 34.5874L854.398 40.1767L862.354 34.366C869.098 29.4961 870.007 28.5553 868.643 28.4447C867.431 28.2786 865.461 29.3301 861.217 32.4291C858.035 34.7534 855.08 36.6349 854.701 36.6349C854.246 36.6349 851.367 34.7534 848.261 32.4845C844.548 29.7175 842.047 28.334 840.911 28.334C839.926 28.334 839.168 28.5 839.168 28.7213Z" fill="#2E1408"/>
<path d="M875.994 31.2116C878.039 32.8165 881.601 35.4174 883.874 37.0223L888.117 39.9L895.997 34.2553C903.044 29.2194 903.65 28.6106 901.983 28.3893C900.544 28.2786 899.028 29.1087 894.633 32.4844C891.602 34.8087 888.647 36.6349 888.041 36.5242C887.511 36.4135 884.48 34.532 881.298 32.3184C877.812 29.8835 874.933 28.3339 873.948 28.3339C872.508 28.3339 872.811 28.7213 875.994 31.2116Z" fill="#2E1408"/>
<path d="M905.846 28.6107C905.846 28.9981 921.152 39.9554 921.682 39.9554C921.985 39.9554 925.698 37.3544 930.093 34.1447C937.745 28.5 937.973 28.334 935.7 28.334C933.73 28.334 932.366 29.0534 927.895 32.4845C924.94 34.7534 922.061 36.635 921.53 36.635C921 36.635 918.045 34.7534 914.938 32.4845C911.225 29.7175 908.725 28.334 907.588 28.334C906.603 28.334 905.846 28.4447 905.846 28.6107Z" fill="#2E1408"/>
<path d="M946.914 34.2553L955.098 40.232L963.054 34.4213C970.403 29.1087 970.934 28.6106 969.115 28.4446C967.524 28.2786 966.16 29.0533 961.841 32.4291C958.886 34.7533 956.007 36.6349 955.552 36.6349C955.022 36.6349 952.067 34.7533 948.96 32.4844C944.414 29.2194 942.747 28.3339 941.004 28.3339C938.958 28.3339 939.337 28.7213 946.914 34.2553Z" fill="#2E1408"/>
<path d="M980.252 34.2553L988.435 40.232L996.391 34.4213C1003.67 29.1087 1004.2 28.6106 1002.45 28.4446C1000.94 28.2786 999.498 29.1087 995.103 32.4291C992.072 34.7533 989.269 36.6349 988.814 36.6349C988.359 36.6349 985.48 34.7533 982.373 32.4844C977.827 29.164 976.312 28.3339 974.417 28.3339C972.296 28.3339 972.523 28.6106 980.252 34.2553Z" fill="#2E1408"/>
<path d="M1006.62 28.6106C1006.62 28.7766 1010.03 31.433 1014.28 34.532L1021.93 40.066L1029.81 34.366C1036.48 29.5514 1037.46 28.5553 1036.1 28.4446C1034.96 28.2786 1033.07 29.33 1029.13 32.4291C1026.1 34.7533 1023.14 36.6349 1022.54 36.6349C1021.85 36.6349 1018.82 34.7533 1015.72 32.4844C1012 29.7174 1009.5 28.3339 1008.37 28.3339C1007.38 28.3339 1006.62 28.4446 1006.62 28.6106Z" fill="#2E1408"/>
<path d="M1047.01 34.2553C1051.48 37.465 1055.12 40.3981 1055.12 40.7301C1055.12 41.0621 1051.86 43.7184 1047.92 46.5961C1042.08 50.8573 1040.95 51.9087 1042.01 52.1854C1042.99 52.4621 1044.96 51.4107 1049.51 48.1456L1055.65 43.7184L1061.25 47.9243C1065.72 51.3 1067.24 52.1301 1069.06 52.1301C1071.18 52.1301 1070.88 51.8534 1063.6 46.5961C1059.36 43.6078 1055.87 40.8408 1055.87 40.5641C1055.87 40.2874 1059.28 37.5757 1063.45 34.532C1067.62 31.4883 1071.03 28.8874 1071.03 28.666C1071.03 28.5 1070.35 28.334 1069.44 28.334C1068.45 28.334 1065.8 29.8835 1062.39 32.4845C1059.43 34.7534 1056.63 36.6349 1056.1 36.6349C1055.57 36.6349 1052.61 34.7534 1049.51 32.4845C1044.73 28.9981 1043.45 28.334 1041.32 28.334C1038.9 28.334 1038.98 28.3893 1047.01 34.2553Z" fill="#2E1408"/>
<path d="M29.0218 37.1884C26.976 38.6825 25.3848 40.1214 25.3848 40.3981C25.3848 40.6748 27.1275 42.1689 29.3249 43.7185L33.265 46.5961L37.2809 43.7185C39.4782 42.1136 41.2968 40.6194 41.2968 40.3981C41.2968 39.9553 33.9469 34.7534 33.1134 34.5874C32.8104 34.532 30.9918 35.6942 29.0218 37.1884Z" fill="#2E1408"/>
<path d="M298.918 36.2476C297.478 37.2437 295.584 38.6272 294.826 39.2913L293.311 40.5641L297.402 43.5524L301.494 46.5961L305.51 43.7185C307.707 42.1136 309.526 40.6748 309.526 40.4534C309.526 40.066 307.252 38.2952 303.388 35.6942L301.57 34.4767L298.918 36.2476Z" fill="#2E1408"/>
<path d="M431.671 37.3543C429.549 38.9592 427.73 40.4533 427.73 40.6747C427.73 41.2834 434.701 46.0427 435.535 46.0427C435.914 46.0427 437.96 44.7698 440.081 43.2757L443.946 40.4533L439.778 37.465L435.686 34.4213L431.671 37.3543Z" fill="#2E1408"/>
<path d="M565.481 37.2437C563.435 38.7379 561.844 40.1767 561.844 40.3981C561.844 40.6194 563.586 42.0583 565.632 43.5524L569.421 46.2641L573.588 43.2757L577.756 40.2874L573.816 37.3544C571.618 35.7495 569.648 34.4214 569.421 34.4767C569.194 34.4767 567.451 35.7495 565.481 37.2437Z" fill="#2E1408"/>
<path d="M766.426 37.4651L762.334 40.5087L766.426 43.5524L770.517 46.5961L774.533 43.7185C776.731 42.1136 778.549 40.5641 778.473 40.232C778.398 39.9553 776.579 38.5165 774.457 37.0777L770.517 34.4767L766.426 37.4651Z" fill="#2E1408"/>
<path d="M833.713 37.133C831.667 38.5718 830.076 40.0106 830.076 40.2873C830.076 40.5087 831.819 42.0582 833.941 43.6077L837.805 46.4854L841.897 43.4417C844.17 41.7262 845.988 40.2873 845.988 40.1767C845.988 39.9 838.335 34.698 837.805 34.5873C837.502 34.532 835.683 35.6941 833.713 37.133Z" fill="#2E1408"/>
<path d="M967.828 37.299C965.783 38.8485 964.191 40.398 964.191 40.7301C964.191 41.0621 965.934 42.5563 967.904 43.9951L971.617 46.6514L976.012 43.5524L980.331 40.4534L976.239 37.4097C974.042 35.7495 971.996 34.4213 971.769 34.4767C971.541 34.4767 969.798 35.7495 967.828 37.299Z" fill="#2E1408"/>
<path d="M96.2293 37.4651C92.1377 40.3427 92.1377 40.8961 96.8355 44.2719L100.094 46.5961L104.034 43.7185C106.231 42.1689 107.974 40.6194 107.974 40.232C107.974 39.4573 101.609 34.9748 100.473 34.9748C100.018 34.9748 98.1236 36.0816 96.2293 37.4651Z" fill="#2E1408"/>
<path d="M162.909 37.7417C159.651 40.1766 159.348 40.564 160.333 41.4495C162.076 43.1096 166.622 46.0427 167.456 46.0427C167.91 46.0427 169.88 44.7698 171.926 43.2203L175.639 40.4533L171.926 37.6863C169.956 36.1922 167.91 34.9747 167.456 34.9747C167.001 34.9747 164.955 36.1922 162.909 37.7417Z" fill="#2E1408"/>
<path d="M229.662 37.7971L225.949 40.5641L229.965 43.5524L234.057 46.5961L238.073 43.7185C240.27 42.1136 242.089 40.6194 242.089 40.3981C242.089 39.734 235.118 34.9748 234.208 35.0301C233.754 35.0301 231.708 36.3029 229.662 37.7971Z" fill="#2E1408"/>
<path d="M364.61 37.5757C362.64 39.0145 361.049 40.4533 361.049 40.7854C361.049 41.6155 367.338 46.0427 368.474 46.0427C369.384 46.0427 376.203 41.0621 376.203 40.398C376.203 39.8999 369.384 34.9747 368.626 34.9747C368.323 34.9747 366.504 36.1368 364.61 37.5757Z" fill="#2E1408"/>
<path d="M498.426 37.3543C496.608 38.6825 495.168 40.066 495.168 40.5087C495.168 41.4495 501.154 46.0427 502.366 46.0427C502.821 46.0427 504.867 44.7698 506.913 43.2757L510.625 40.5087L506.913 37.7417C504.867 36.1922 502.821 34.9747 502.366 35.03C501.987 35.03 500.169 36.0815 498.426 37.3543Z" fill="#2E1408"/>
<path d="M632.464 37.3544C630.721 38.6272 629.281 40.066 629.281 40.5087C629.281 41.0068 630.948 42.5563 632.918 43.9952L636.555 46.5961L640.495 43.6631C642.693 42.0583 644.436 40.5641 644.436 40.3427C644.436 39.568 637.843 34.9748 636.783 34.9748C636.176 35.0301 634.282 36.0816 632.464 37.3544Z" fill="#2E1408"/>
<path d="M699.52 37.631C697.55 39.0699 695.959 40.398 695.959 40.6194C695.959 40.7854 697.702 42.2242 699.823 43.7738L703.763 46.6514L707.931 43.5524L712.098 40.4534L708.385 37.6864C706.415 36.1922 704.37 34.9747 703.915 34.9747C703.46 34.9747 701.49 36.1922 699.52 37.631Z" fill="#2E1408"/>
<path d="M900.314 37.7971L896.602 40.6748L900.617 43.6078L904.633 46.5961L908.649 43.7185C910.847 42.1136 912.665 40.6748 912.665 40.4534C912.665 39.8447 905.694 34.9748 904.785 34.9748C904.33 34.9748 902.284 36.2476 900.314 37.7971Z" fill="#2E1408"/>
<path d="M1034.28 37.7971L1030.64 40.5641L1034.73 43.6078L1038.82 46.5961L1042.99 43.5524L1047.08 40.5087L1043.37 37.7418C1041.32 36.2476 1039.28 34.9748 1038.82 34.9748C1038.37 34.9748 1036.32 36.2476 1034.28 37.7971Z" fill="#2E1408"/>
<path d="M8.56036 46.2641C4.46871 49.3631 1.13477 52.0748 1.13477 52.2961C1.13477 52.5175 1.81671 52.6835 2.72597 52.6835C3.71099 52.6835 6.59031 51.0787 10.0758 48.533C13.2582 46.2641 16.1375 44.3826 16.4406 44.3826C16.8194 44.3826 19.623 46.2088 22.7296 48.4777C26.4424 51.2447 28.7156 52.5175 29.7006 52.4068C30.4583 52.2961 31.3676 52.1855 31.6706 52.1855C31.9737 52.1301 28.7156 49.5292 24.3966 46.3194C20.0018 43.1097 16.3648 40.5641 16.2133 40.5641C16.0617 40.6194 12.5762 43.1651 8.56036 46.2641Z" fill="#2E1408"/>
<path d="M75.9979 46.3194C71.9062 49.4185 68.5723 52.0748 68.5723 52.2961C68.5723 53.6243 71.7547 52.1301 76.8313 48.533C80.0895 46.2641 82.9688 44.3825 83.3477 44.3825C83.7265 44.3825 86.6059 46.2641 89.864 48.533C95.2438 52.4068 97.4412 53.3476 98.4262 52.2408C98.6535 51.9641 95.3196 49.3078 91.0764 46.2641L83.3477 40.7301L75.9979 46.3194Z" fill="#2E1408"/>
<path d="M210.115 46.3194C206.023 49.4185 202.689 52.0748 202.689 52.2961C202.689 53.4583 206.857 51.5767 211.403 48.2563C214.358 46.1534 217.086 44.3825 217.465 44.3825C217.768 44.3825 220.723 46.2641 223.981 48.533C229.361 52.4068 231.558 53.3476 232.543 52.2408C232.771 51.9641 229.437 49.3078 225.194 46.2088L217.465 40.6748L210.115 46.3194Z" fill="#2E1408"/>
<path d="M277.019 46.264C270.048 51.3553 269.442 52.0194 270.882 52.2961C272.246 52.5174 273.685 51.798 278.232 48.4776C281.414 46.2087 284.369 44.3825 284.824 44.3825C285.278 44.3825 288.006 46.1533 290.961 48.2563C295.811 51.798 299.675 53.4582 299.675 52.0747C299.675 51.798 296.341 49.0864 292.249 46.0427L284.748 40.564L277.019 46.264Z" fill="#2E1408"/>
<path d="M344.154 46.3747C339.835 49.6398 337.031 52.1854 337.486 52.3514C338.698 52.9048 340.517 51.964 345.896 48.0349C348.548 46.0427 351.125 44.3825 351.579 44.3825C352.034 44.3825 354.61 46.0427 357.262 48.0349C362.869 52.1854 363.93 52.6834 365.824 52.1854C366.885 51.9087 365.597 50.7466 359.384 46.264L351.579 40.73L344.154 46.3747Z" fill="#2E1408"/>
<path d="M411.209 46.3747C405.072 50.8572 403.784 52.0747 404.769 52.3514C405.678 52.6281 407.724 51.466 412.27 48.2009L418.483 43.6631L424.318 47.7582C427.424 50.0271 430.682 52.0747 431.516 52.3514C435.077 53.5689 433.562 51.7427 426.439 46.4301L418.862 40.7854L411.209 46.3747Z" fill="#2E1408"/>
<path d="M545.102 46.3748C537.979 51.632 537.297 52.5175 540.555 52.1301C541.161 52.0748 543.965 50.3039 546.769 48.201C549.648 46.0981 552.3 44.3825 552.679 44.3825C553.133 44.3825 556.013 46.2641 559.119 48.533C564.348 52.3515 567.151 53.4583 568.212 52.2408C568.439 52.0194 565.029 49.3078 560.786 46.2087L552.982 40.6194L545.102 46.3748Z" fill="#2E1408"/>
<path d="M679.367 46.3747C673.457 50.6912 671.941 52.0747 672.926 52.3514C673.76 52.5728 676.033 51.3553 680.504 48.1456L686.868 43.6631L692.93 48.0349C696.264 50.4145 699.446 52.4621 700.053 52.5728C702.856 53.0155 701.341 51.2446 694.521 46.2641L687.096 40.7854L679.367 46.3747Z" fill="#2E1408"/>
<path d="M813.403 46.3194C807.342 50.7466 805.978 52.0748 806.963 52.3515C807.645 52.5175 808.327 52.6835 808.478 52.6835C808.706 52.6835 811.358 50.802 814.464 48.533C817.571 46.2641 820.45 44.3826 820.829 44.3826C821.208 44.3826 824.087 46.2641 827.27 48.533C831.589 51.6874 833.407 52.6835 834.998 52.6835C837.575 52.6835 837.575 52.6282 828.027 45.7107L821.132 40.6748L813.403 46.3194Z" fill="#2E1408"/>
<path d="M846.746 46.3747C839.623 51.632 839.093 52.1301 840.987 52.1301C842.654 52.1301 844.397 51.1339 848.792 47.9242L854.475 43.6631L860.309 47.9242C864.931 51.2446 866.598 52.1854 868.038 52.0194C869.705 51.8534 869.099 51.2446 862.203 46.2087L854.55 40.6194L846.746 46.3747Z" fill="#2E1408"/>
<path d="M981.316 46.4301C976.012 50.4699 974.193 52.1301 975.254 52.1301C976.012 52.1301 979.346 50.1932 982.528 47.8689L988.438 43.5524L994.424 47.9242C998.743 51.0233 1000.79 52.1854 1001.93 52.0194C1003.29 51.9087 1002.38 50.9679 996.167 46.3194L988.742 40.7854L981.316 46.4301Z" fill="#2E1408"/>
<path d="M109.185 46.5961C102.896 51.2446 101.987 52.1301 103.502 52.1301C104.715 52.1301 107.139 50.8019 111.079 47.9242L116.838 43.7737L122.445 47.9242C126.916 51.3 128.507 52.1301 130.325 52.1301C132.447 52.1301 132.22 51.8534 125.021 46.5961C120.854 43.5524 117.293 41.0621 117.065 41.0621C116.838 41.1174 113.277 43.6077 109.185 46.5961Z" fill="#2E1408"/>
<path d="M142.524 46.5408C136.689 50.8573 135.401 52.0194 136.386 52.3515C137.068 52.5175 137.75 52.6835 137.826 52.6835C137.977 52.6835 140.857 50.6359 144.191 48.1457L150.404 43.6078L156.769 48.1457C162.451 52.1855 165.558 53.6243 165.558 52.1855C165.558 51.5767 151.237 41.0622 150.555 41.0622C150.252 41.1175 146.691 43.5524 142.524 46.5408Z" fill="#2E1408"/>
<path d="M243.303 46.5961C236.862 51.3 236.029 52.1301 237.544 52.1301C238.832 52.1301 241.181 50.8572 245.273 47.8689L251.107 43.6631L256.714 47.8689C260.276 50.5252 263.003 52.1301 263.988 52.1301C264.822 52.1301 265.58 51.9087 265.58 51.6873C265.58 51.3553 251.41 41.0621 250.956 41.0621C250.88 41.0621 247.394 43.5524 243.303 46.5961Z" fill="#2E1408"/>
<path d="M310.662 46.5961C304.373 51.2446 303.388 52.1301 304.903 52.1301C306.116 52.1301 308.464 50.8019 312.329 47.9242L318.012 43.6631L323.846 47.9242C327.559 50.6359 330.211 52.1301 331.347 52.1301C332.257 52.1301 333.014 51.964 333.014 51.7427C333.014 51.4106 318.921 41.0621 318.39 41.0621C318.315 41.0621 314.829 43.5524 310.662 46.5961Z" fill="#2E1408"/>
<path d="M377.416 46.5961C370.976 51.3553 370.142 52.1301 371.734 52.1301C373.022 52.1301 375.219 50.9679 378.856 48.2563C381.735 46.098 384.463 44.3825 384.918 44.3825C385.372 44.3825 388.1 46.098 390.98 48.2563C395.147 51.3553 396.738 52.1301 398.557 52.1301C400.678 52.1301 400.451 51.9087 393.253 46.5961C389.085 43.5524 385.524 41.1174 385.297 41.0621C385.069 41.0621 381.508 43.5524 377.416 46.5961Z" fill="#2E1408"/>
<path d="M444.776 46.5961C438.184 51.4106 437.502 52.1301 439.093 52.1301C440.457 52.1301 442.655 50.9679 446.671 47.9796L452.353 43.8291L458.112 48.0349C462.507 51.1893 464.325 52.1854 465.613 52.0194C467.129 51.8534 466.371 51.1893 460.006 46.5961C455.99 43.7184 452.581 41.2835 452.505 41.2281C452.353 41.1728 448.868 43.6077 444.776 46.5961Z" fill="#2E1408"/>
<path d="M511.458 46.5961C504.866 51.4106 504.184 52.1301 505.775 52.1301C507.139 52.1301 509.261 51.0233 512.973 48.2563C515.853 46.098 518.656 44.3825 519.262 44.3825C519.793 44.3825 522.672 46.098 525.551 48.2563C529.264 50.9126 531.462 52.1301 532.75 52.1301C534.341 52.1301 533.659 51.466 527.9 47.2602C524.188 44.6038 520.702 42.1689 520.096 41.7815C519.111 41.2281 517.671 42.0582 511.458 46.5961Z" fill="#2E1408"/>
<path d="M578.893 46.5961C573.21 50.7466 571.695 52.1301 572.907 52.1301C573.816 52.1301 576.62 50.5805 579.727 48.2563C582.606 46.1534 585.485 44.3825 586.091 44.3825C586.773 44.3825 589.653 46.098 592.532 48.2563C596.472 51.1893 598.291 52.1301 599.882 52.1301C601.852 52.1301 601.473 51.798 595.639 47.5369C592.153 45.0466 588.668 42.5563 587.834 42.0582C586.47 41.1174 586.091 41.2835 578.893 46.5961Z" fill="#2E1408"/>
<path d="M645.798 46.6514C639.736 51.1339 638.675 52.1301 640.115 52.1301C641.252 52.1301 643.676 50.8019 647.086 48.2563C649.965 46.098 652.693 44.3825 653.148 44.3825C653.602 44.3825 656.33 46.098 659.209 48.2563C663.377 51.3 664.968 52.1301 666.711 52.1301C668.908 52.1301 668.605 51.8534 661.483 46.5961C657.315 43.5524 653.754 41.0621 653.527 41.1174C653.299 41.1728 649.814 43.6631 645.798 46.6514Z" fill="#2E1408"/>
<path d="M713.009 46.5961C706.417 51.4106 705.735 52.1301 707.326 52.1301C708.69 52.1301 710.887 50.9679 714.903 47.9796L720.586 43.8291L726.345 48.0349C730.588 51.1339 732.558 52.1854 733.77 52.0194C735.134 51.9087 734.301 51.0233 728.011 46.4301L720.586 41.0621L713.009 46.5961Z" fill="#2E1408"/>
<path d="M779.686 46.5961C773.094 51.4106 772.412 52.1301 774.004 52.1301C775.368 52.1301 777.489 51.0233 781.202 48.2563C784.081 46.098 786.885 44.3825 787.339 44.3825C787.87 44.3825 790.673 46.098 793.553 48.2563C797.493 51.1339 799.311 52.1301 800.827 52.1301C802.721 52.1301 802.115 51.5767 795.144 46.5961C790.901 43.5524 787.339 41.0621 787.339 41.0621C787.264 41.0621 783.854 43.5524 779.686 46.5961Z" fill="#2E1408"/>
<path d="M880.539 46.5408C874.628 50.8573 873.416 52.0194 874.401 52.3515C875.31 52.5728 877.356 51.5214 881.524 48.533C884.782 46.2641 887.661 44.3825 888.04 44.3825C888.343 44.3825 891.147 46.2087 894.253 48.367C899.406 52.0748 901.3 52.9049 903.118 52.2408C903.725 52.0194 889.328 41.0621 888.419 41.0621C888.191 41.0621 884.63 43.4971 880.539 46.5408Z" fill="#2E1408"/>
<path d="M913.804 46.5961C907.364 51.3553 906.606 52.1301 908.197 52.1301C909.485 52.1301 911.607 50.9679 915.32 48.2563C918.199 46.098 920.927 44.3825 921.382 44.3825C921.836 44.3825 924.564 46.098 927.443 48.2563C931.611 51.3553 933.202 52.1301 935.02 52.1301C937.142 52.1301 936.915 51.9087 929.716 46.5961C925.549 43.5524 921.988 41.0621 921.76 41.0621C921.533 41.0621 917.972 43.5524 913.804 46.5961Z" fill="#2E1408"/>
<path d="M947.144 46.5961C941.006 51.0786 939.87 52.1301 941.006 52.4621C941.991 52.7388 943.886 51.6874 948.659 48.2563L955.024 43.6631L961.161 48.1456C965.026 50.968 967.829 52.5728 968.739 52.5175C969.572 52.4621 970.254 52.2961 970.254 52.1301C970.254 51.7427 955.63 41.0621 955.1 41.0621C954.872 41.0621 951.311 43.5524 947.144 46.5961Z" fill="#2E1408"/>
<path d="M1014.88 46.3194C1010.94 49.2524 1007.84 51.798 1007.91 52.0194C1008.29 53.2369 1010.34 52.2961 1015.56 48.5883C1018.82 46.2641 1021.78 44.3825 1022.16 44.3825C1022.54 44.3825 1025.41 46.2641 1028.67 48.533C1034.13 52.4068 1035.95 53.2369 1037.16 52.2961C1037.69 51.9641 1023.44 41.1174 1022.46 41.0621C1022.23 41.0621 1018.82 43.4417 1014.88 46.3194Z" fill="#2E1408"/>
<path d="M175.79 54.897L167.455 60.9844L175.638 66.9058L183.897 72.7718L192.157 66.7397L200.416 60.7077L192.308 54.7863C187.838 51.466 184.125 48.8096 184.125 48.8096C184.125 48.8096 180.336 51.5766 175.79 54.897Z" fill="#2E1408"/>
<path d="M444.397 54.6203C440.003 57.83 436.062 60.431 435.532 60.431C435.002 60.431 431.213 57.9407 427.046 54.897C422.878 51.8533 419.241 49.363 418.862 49.363C418.559 49.363 414.695 52.0194 410.3 55.1737L402.42 60.9844L410.527 66.8504L418.711 72.7164L426.743 66.8504C431.213 63.6407 435.002 60.9844 435.305 60.9844C435.532 60.9844 439.396 63.6407 443.943 66.9058L452.126 72.7718L460.385 66.7397L468.644 60.7077L460.537 54.7863C456.066 51.466 452.353 48.8096 452.353 48.8096C452.353 48.8096 448.792 51.4106 444.397 54.6203Z" fill="#2E1408"/>
<path d="M779.459 54.6204C775.216 57.8854 771.73 60.7077 771.73 60.9291C771.73 61.0951 775.292 63.8621 779.686 67.0718L787.642 72.8825L795.826 66.9058L803.933 60.9844L795.523 54.8417L787.188 48.7543L779.459 54.6204Z" fill="#2E1408"/>
<path d="M913.802 54.6757C909.634 57.8301 906.149 60.5971 906.073 60.8184C905.922 61.0951 909.407 63.8621 913.726 67.0165L921.606 72.7165L929.79 66.8505L937.973 60.9291L929.714 54.9524L921.379 48.9757L913.802 54.6757Z" fill="#2E1408"/>
<path d="M980.481 54.8971L972.146 60.9844L980.33 66.9058L988.437 72.8825L996.772 66.7951L1005.11 60.7077L996.924 54.731L988.816 48.8097L980.481 54.8971Z" fill="#2E1408"/>
<path d="M1047.31 54.897L1039.13 60.9291L1047.31 66.7397C1051.78 69.9495 1055.65 72.6058 1055.88 72.6058C1056.1 72.6058 1059.82 70.0048 1064.21 66.7951L1072.17 60.9844L1063.83 54.897L1055.5 48.865L1047.31 54.897Z" fill="#2E1408"/>
<path d="M8.78768 54.8971C4.54448 57.9961 1.13477 60.8184 1.13477 61.2058C1.13477 61.5378 4.54448 64.3048 8.71191 67.3485L16.289 72.8825L24.245 67.0718C28.6398 63.8621 32.201 61.1505 32.201 60.9844C32.201 60.7077 19.6988 51.3 17.5772 50.0272C16.5164 49.3631 15.3798 50.0272 8.78768 54.8971Z" fill="#2E1408"/>
<path d="M41.3705 55.2291L33.4902 61.0398L41.3705 66.8505C45.6894 70.0048 49.478 72.5505 49.7811 72.4951C50.0842 72.3845 53.9485 69.7281 58.3433 66.5738L66.375 60.7631L58.5706 55.0631C54.3274 51.9087 50.463 49.3631 50.0084 49.3631C49.6295 49.3631 45.6894 52.0194 41.3705 55.2291Z" fill="#2E1408"/>
<path d="M75.3935 55.1738L67.4375 60.9845L75.3935 66.7952L83.3495 72.6058L91.3055 66.7952C95.7002 63.5855 99.6403 60.9845 100.019 60.9845C100.398 60.9845 104.414 63.6408 108.884 66.9058L116.992 72.8272L125.024 67.0165C129.419 63.8622 132.98 61.0952 132.98 60.8738C132.98 60.2097 118.356 49.3631 117.447 49.3631C116.992 49.3631 113.128 51.8534 108.96 54.8971C104.717 57.9408 100.853 60.4311 100.247 60.4311C99.7161 60.4311 95.8518 57.9408 91.6843 54.8971C87.5169 51.8534 83.9557 49.3631 83.7284 49.3631C83.501 49.3631 79.7882 51.9641 75.3935 55.1738Z" fill="#2E1408"/>
<path d="M142.375 55.1738L134.268 60.9845L141.996 66.5184C146.239 69.5621 150.104 72.0524 150.558 72.0524C151.392 72.0524 166.319 61.4825 166.319 60.8738C166.319 60.4311 151.468 49.3631 150.862 49.3631C150.634 49.3631 146.846 51.9641 142.375 55.1738Z" fill="#2E1408"/>
<path d="M209.658 54.8971C205.415 57.9961 201.93 60.6524 201.93 60.8738C201.93 61.0952 205.415 63.8068 209.734 66.9612L217.463 72.6058L225.419 66.7952C229.814 63.5855 233.678 60.9845 234.057 60.9845C234.436 60.9845 238.451 63.6408 242.998 66.9058L251.181 72.8272L259.137 67.0719C263.532 63.8622 267.017 61.0952 266.942 60.8738C266.563 60.099 251.636 49.3631 250.954 49.3631C250.575 49.3631 246.862 51.8534 242.77 54.8971C238.603 57.9408 234.814 60.4311 234.284 60.4311C233.754 60.4311 229.965 57.9408 225.798 54.8971C221.63 51.8534 218.069 49.3631 217.842 49.3631C217.614 49.3631 213.977 51.8534 209.658 54.8971Z" fill="#2E1408"/>
<path d="M276.566 55.1737L268.307 61.0951L276.49 66.9611L284.673 72.7718L292.705 66.9058L300.813 60.9844L292.781 55.1184L284.749 49.2524L276.566 55.1737Z" fill="#2E1408"/>
<path d="M309.6 55.1738L301.568 60.9844L309.752 66.9058L317.859 72.8825L326.194 66.7951L334.529 60.7077L326.8 55.0631C322.481 51.9087 318.693 49.3631 318.314 49.3631C317.935 49.3631 313.995 51.9641 309.6 55.1738Z" fill="#2E1408"/>
<path d="M343.624 55.1737L335.668 60.9844L343.624 66.7951L351.58 72.6058L359.688 66.6844L367.871 60.7077L360.142 55.063C355.823 51.9087 352.186 49.363 351.959 49.363C351.732 49.363 348.019 51.964 343.624 55.1737Z" fill="#2E1408"/>
<path d="M376.888 55.1737L368.932 60.9291L377.039 66.8504L385.147 72.7718L393.178 67.0718C397.573 63.9174 401.21 61.1504 401.21 60.8737C401.21 60.3203 386.208 49.363 385.45 49.363C385.147 49.363 381.358 51.964 376.888 55.1737Z" fill="#2E1408"/>
<path d="M478.875 54.1223C475.541 56.6679 472.131 59.2689 471.298 59.8776C469.782 60.9844 469.858 60.9844 477.738 66.7951L485.694 72.6058L493.802 66.6844L501.985 60.763L494.181 55.063C489.938 51.964 486.149 49.4184 485.694 49.4737C485.315 49.4737 482.209 51.5766 478.875 54.1223Z" fill="#2E1408"/>
<path d="M510.925 55.1738L503.045 60.9291L511.228 66.9058L519.412 72.8825L527.519 66.9058L535.702 60.9844L527.746 55.1738C523.352 51.9641 519.639 49.3631 519.336 49.3631C519.108 49.3631 515.32 51.9641 510.925 55.1738Z" fill="#2E1408"/>
<path d="M544.494 55.2291L536.613 61.0398L544.645 66.9611L552.753 72.8825L560.709 67.0718C565.103 63.8621 568.665 61.1505 568.665 60.9291C568.665 60.5417 553.738 49.6951 552.904 49.5291C552.601 49.4738 548.812 52.0194 544.494 55.2291Z" fill="#2E1408"/>
<path d="M577.832 55.2291L570.027 61.1505L577.832 66.8505C582.151 70.0049 585.939 72.5505 586.318 72.4398C586.697 72.3845 590.486 69.6728 594.88 66.5185L602.761 60.7078L595.032 55.0631C590.713 51.9087 586.849 49.3631 586.394 49.3631C585.939 49.3631 582.075 52.0194 577.832 55.2291Z" fill="#2E1408"/>
<path d="M612.235 54.897C608.067 57.9961 604.506 60.597 604.354 60.763C604.127 60.8737 607.537 63.6407 611.856 66.7951L619.812 72.6058L627.919 66.6844L636.103 60.7077L628.374 55.063C624.055 51.9087 620.418 49.363 620.191 49.363C619.963 49.363 616.326 51.8533 612.235 54.897Z" fill="#2E1408"/>
<path d="M645.12 55.1738L637.164 60.9291L645.196 66.7952L653.303 72.6612L661.638 66.7398L669.973 60.7631L662.093 55.0631C657.774 51.9088 653.985 49.3631 653.682 49.3631C653.379 49.3631 649.515 51.9641 645.12 55.1738Z" fill="#2E1408"/>
<path d="M678.607 55.1184L670.727 60.8737L678.91 66.7397L687.169 72.6058L695.125 66.7951L703.081 60.9291L699.292 58.1621C694.291 54.3436 687.624 49.6951 686.942 49.4737C686.714 49.4184 682.926 51.964 678.607 55.1184Z" fill="#2E1408"/>
<path d="M711.874 55.1738L703.994 60.9291L712.102 66.9058L720.209 72.8825L728.544 66.7951L736.879 60.7077L729.15 55.0631C724.831 51.9087 721.043 49.3631 720.588 49.3631C720.133 49.3631 716.269 51.9641 711.874 55.1738Z" fill="#2E1408"/>
<path d="M745.438 55.1185L737.709 60.8185L745.741 66.7398L753.773 72.6612L761.653 66.9612C765.896 63.8622 769.457 61.0398 769.457 60.7631C769.457 60.0437 754.909 49.3631 754 49.3631C753.545 49.3631 749.681 51.9641 745.438 55.1185Z" fill="#2E1408"/>
<path d="M812.726 55.2291L804.846 61.0952L812.877 66.9612L820.909 72.8272L829.093 66.9058L837.276 60.9845L829.32 55.1738C825.001 51.9641 821.212 49.3631 820.985 49.3631C820.758 49.3631 817.045 52.0194 812.726 55.2291Z" fill="#2E1408"/>
<path d="M845.989 55.1738L838.033 60.9844L846.217 66.9058L854.324 72.8825L862.28 67.0718C866.675 63.8621 870.236 61.0951 870.236 60.8738C870.236 60.3204 855.233 49.3631 854.476 49.3631C854.173 49.3631 850.384 51.9641 845.989 55.1738Z" fill="#2E1408"/>
<path d="M880.085 54.9524C875.918 57.9961 872.508 60.763 872.508 61.0951C872.508 61.4271 875.918 64.1941 880.161 67.2378L887.738 72.7718L896.073 66.7397L904.332 60.7077L896.603 55.063C892.284 51.9087 888.571 49.363 888.192 49.363C887.889 49.363 884.252 51.8533 880.085 54.9524Z" fill="#2E1408"/>
<path d="M946.765 55.1738L938.885 60.9291L946.538 66.5184C950.781 69.5621 954.569 72.0524 955.024 72.0524C955.706 72.0524 964.874 65.633 969.345 62.0359L971.012 60.6524L963.359 55.0078C959.116 51.9087 955.479 49.3631 955.176 49.3631C954.948 49.3631 951.16 51.9641 946.765 55.1738Z" fill="#2E1408"/>
<path d="M1013.67 55.1184L1006.02 60.8184L1013.74 66.4631C1017.99 69.5068 1021.78 72.0524 1022.15 72.0524C1022.53 72.0524 1026.4 69.5068 1030.64 66.4078L1038.37 60.8184L1030.41 55.0631C1026.02 51.9087 1022.15 49.3631 1021.93 49.3631C1021.62 49.3631 1017.91 51.9641 1013.67 55.1184Z" fill="#2E1408"/>
<path d="M1.13477 69.4515C1.13477 70.2816 15.1525 80.3534 16.3648 80.3534C16.971 80.3534 20.8353 77.8632 25.0028 74.8195C32.201 69.5068 32.4284 69.2855 30.3068 69.2855C28.4882 69.2855 26.897 70.0602 22.7296 73.1593C19.8503 75.2622 17.0468 77.0331 16.5921 77.0331C16.1375 77.0331 13.334 75.3175 10.3789 73.2146C5.52951 69.7835 1.13477 68.0127 1.13477 69.4515Z" fill="#2E1408"/>
<path d="M894.634 73.3252L888.496 77.8078L882.435 73.5466C877.813 70.2815 875.994 69.2854 874.327 69.2854C872.281 69.2854 872.736 69.6728 880.086 75.0961C884.481 78.3058 888.042 80.9068 888.042 80.9068C888.042 80.9068 891.603 78.3058 895.922 75.1515C902.438 70.3922 903.499 69.3961 902.211 69.1748C901.075 68.9534 899.18 70.0049 894.634 73.3252Z" fill="#2E1408"/>
<path d="M961.312 73.3806L955.023 77.8078L949.264 73.5466C944.718 70.2263 942.975 69.2855 941.308 69.2855C939.338 69.2855 939.793 69.7282 946.915 74.8195C951.158 77.8632 954.947 80.3534 955.25 80.3534C956.084 80.3534 970.253 70.0049 970.253 69.3962C970.253 67.902 966.919 69.3962 961.312 73.3806Z" fill="#2E1408"/>
<path d="M1028.45 73.2699C1021.7 78.3611 1022.31 78.4165 1015.04 72.9378C1011.55 70.2815 1009.66 69.2854 1008.22 69.2854C1006.47 69.2854 1007.23 69.9495 1014.2 75.0961C1018.52 78.2505 1022.16 80.7961 1022.23 80.7407C1022.39 80.6854 1026.02 78.0844 1030.34 74.9854C1037.77 69.7281 1038.07 69.3407 1036.25 69.1194C1034.59 68.8427 1033.45 69.4514 1028.45 73.2699Z" fill="#2E1408"/>
<path d="M34.4766 69.5622C34.4766 70.1156 49.1762 80.3534 50.0097 80.3534C50.4643 80.3534 54.1771 77.8632 58.3446 74.8195C64.9367 70.0049 65.6186 69.2855 64.0274 69.2855C62.6635 69.2855 60.4662 70.4476 56.4503 73.436C53.3436 75.7049 50.5401 77.5865 50.1612 77.5865C49.7824 77.5865 46.9788 75.7049 43.7964 73.436C39.8563 70.5583 37.5832 69.2855 36.2951 69.2855C35.31 69.2855 34.4766 69.3962 34.4766 69.5622Z" fill="#2E1408"/>
<path d="M75.0128 74.8195C79.1802 77.8632 82.893 80.3534 83.3476 80.3534C83.8023 80.3534 87.5151 77.8632 91.6825 74.8195C98.1988 70.0602 98.9566 69.2855 97.3654 69.2855C96.0772 69.2855 93.7283 70.5583 89.6367 73.5467L83.7265 77.8632L77.8163 73.5467C73.1185 70.1709 71.4515 69.2855 69.7088 69.2855C67.5872 69.2855 67.8145 69.5622 75.0128 74.8195Z" fill="#2E1408"/>
<path d="M101.912 69.5068C101.912 69.8942 116.384 80.3534 116.915 80.3534C117.218 80.3534 120.855 77.8632 125.022 74.8195C131.236 70.2816 132.296 69.2855 130.857 69.2855C129.644 69.2855 127.296 70.669 123.507 73.436C120.476 75.7049 117.673 77.5865 117.294 77.5865C116.915 77.5865 114.111 75.7049 111.005 73.436C107.292 70.669 104.791 69.2855 103.655 69.2855C102.67 69.2855 101.912 69.3962 101.912 69.5068Z" fill="#2E1408"/>
<path d="M135.254 69.5068C135.254 70.0049 149.878 80.3534 150.56 80.3534C150.939 80.3534 154.651 77.8632 158.819 74.8195C165.562 69.9496 166.244 69.2855 164.502 69.2855C163.441 69.2855 161.925 69.7282 161.092 70.2263C160.334 70.7797 157.606 72.7166 155.03 74.5428L150.408 77.8078L144.498 73.5467C140.709 70.7797 138.057 69.2855 136.921 69.2855C136.012 69.2855 135.254 69.3962 135.254 69.5068Z" fill="#2E1408"/>
<path d="M175.79 74.8195C179.957 77.8632 183.67 80.3534 184.125 80.3534C184.579 80.3534 188.292 77.8632 192.46 74.8195C199.052 70.0049 199.734 69.2855 198.143 69.2855C196.779 69.2855 194.581 70.4476 190.565 73.436C187.459 75.7049 184.579 77.5865 184.125 77.5865C183.67 77.5865 180.791 75.7049 177.684 73.436C173.668 70.4476 171.471 69.2855 170.107 69.2855C168.516 69.2855 169.198 70.0049 175.79 74.8195Z" fill="#2E1408"/>
<path d="M209.508 75.0961L217.388 80.9068L225.117 75.4835C229.36 72.5505 232.845 69.9495 232.921 69.6728C232.921 69.4515 232.239 69.2854 231.254 69.2854C230.118 69.2854 227.617 70.6689 223.904 73.4359C220.798 75.7048 218.07 77.5864 217.843 77.5864C217.615 77.5864 214.812 75.7048 211.629 73.4359C207.159 70.2262 205.34 69.2854 203.749 69.2854C201.703 69.2854 202.158 69.7282 209.508 75.0961Z" fill="#2E1408"/>
<path d="M236.027 69.7282C236.027 70.3369 250.197 80.3534 251.106 80.3534C251.864 80.3534 266.336 70.1156 266.336 69.6175C266.336 69.4515 265.578 69.2855 264.745 69.2855C263.76 69.2855 260.805 70.9457 257.319 73.436C254.061 75.7049 251.182 77.5865 250.879 77.5865C250.575 77.5865 247.772 75.7049 244.741 73.436C241.407 71.001 238.452 69.2855 237.543 69.2855C236.709 69.2855 236.027 69.5068 236.027 69.7282Z" fill="#2E1408"/>
<path d="M276.488 75.1514L284.671 81.0728L292.173 75.5942C296.264 72.6058 299.674 69.9495 299.674 69.7281C299.674 69.4514 298.916 69.2854 298.007 69.2854C296.871 69.2854 294.219 70.7796 290.43 73.5466L284.52 77.8078L278.685 73.5466C274.063 70.1155 272.472 69.2854 270.578 69.2854C268.456 69.2854 268.759 69.5621 276.488 75.1514Z" fill="#2E1408"/>
<path d="M305.739 71.8311C312.179 76.7564 317.407 80.3534 318.089 80.3534C318.923 80.3534 333.016 70.2816 333.016 69.6729C333.016 69.4515 332.41 69.2855 331.652 69.2855C330.895 69.2855 327.788 71.167 324.757 73.436C321.726 75.7049 318.847 77.5865 318.317 77.5865C317.862 77.5865 314.907 75.7049 311.876 73.436C307.784 70.4476 305.739 69.2855 304.299 69.2855C302.48 69.2855 302.48 69.3962 305.739 71.8311Z" fill="#2E1408"/>
<path d="M343.623 75.0961L351.579 80.9068L359.383 75.2621C365.976 70.4476 366.885 69.5068 365.521 69.3961C364.309 69.2301 362.339 70.3369 357.944 73.4913L352.034 77.8078L345.972 73.5466C341.35 70.2815 339.531 69.2854 337.864 69.2854C335.819 69.2854 336.273 69.6728 343.623 75.0961Z" fill="#2E1408"/>
<path d="M376.586 74.8195C380.753 77.8632 384.466 80.3534 384.92 80.3534C385.375 80.3534 389.088 77.8632 393.255 74.8195C399.241 70.4476 400.454 69.2855 399.165 69.2855C398.105 69.2855 395.453 70.7797 391.891 73.436C388.861 75.7049 386.057 77.5865 385.678 77.5865C385.299 77.5865 382.42 75.7049 379.162 73.436C374.691 70.2263 372.873 69.2855 371.206 69.2855C369.16 69.2855 369.539 69.6729 376.586 74.8195Z" fill="#2E1408"/>
<path d="M403.48 69.5068C403.48 69.7835 417.877 80.0767 418.635 80.2427C419.241 80.4087 433.789 70.2262 433.789 69.6174C433.789 69.4514 432.956 69.2854 432.046 69.2854C430.758 69.2854 428.561 70.5582 424.772 73.4359C421.817 75.7048 419.089 77.5864 418.786 77.5864C418.483 77.5864 415.68 75.7048 412.573 73.4359C408.86 70.6689 406.36 69.2854 405.223 69.2854C404.238 69.2854 403.48 69.3961 403.48 69.5068Z" fill="#2E1408"/>
<path d="M444.022 74.8195C448.19 77.8632 451.903 80.3534 452.357 80.3534C452.812 80.3534 456.525 77.8632 460.692 74.8195C467.284 70.0049 467.966 69.2855 466.375 69.2855C465.011 69.2855 462.814 70.4476 458.798 73.436C455.691 75.7049 452.812 77.5865 452.357 77.5865C451.903 77.5865 449.023 75.7049 445.917 73.436C441.901 70.4476 439.703 69.2855 438.34 69.2855C436.748 69.2855 437.43 70.0049 444.022 74.8195Z" fill="#2E1408"/>
<path d="M477.739 75.0962C485.316 80.6855 485.695 80.8515 487.059 79.9107C489.408 78.3612 501.228 69.6729 501.228 69.4515C501.228 69.3408 500.394 69.2855 499.409 69.2855C498.197 69.2855 495.848 70.6136 492.06 73.436C488.953 75.7049 486.149 77.5865 485.695 77.5865C485.316 77.5865 482.437 75.7049 479.406 73.436C475.238 70.3369 473.344 69.2855 471.829 69.2855C470.01 69.2855 470.616 69.8942 477.739 75.0962Z" fill="#2E1408"/>
<path d="M510.926 74.8748C515.169 77.9185 518.958 80.3534 519.337 80.2428C520.17 80.0767 534.567 69.8942 534.567 69.5068C534.567 69.3962 533.809 69.2855 532.824 69.2855C531.688 69.2855 529.187 70.669 525.474 73.436C522.368 75.7049 519.564 77.5865 519.261 77.5865C518.958 77.5865 516.079 75.7049 512.972 73.436C508.653 70.3369 506.683 69.2855 505.168 69.2855C503.349 69.2855 503.879 69.8389 510.926 74.8748Z" fill="#2E1408"/>
<path d="M537.6 69.5621C537.6 69.7281 541.009 72.3845 545.253 75.4835L552.905 81.0728L560.407 75.5942C564.498 72.6058 567.908 69.9495 567.908 69.7281C567.908 69.4514 567.15 69.2854 566.241 69.2854C565.256 69.2854 562.377 70.8903 558.664 73.4913L552.678 77.7524L546.919 73.4913C543.055 70.6689 540.555 69.2854 539.342 69.2854C538.357 69.2854 537.6 69.3961 537.6 69.5621Z" fill="#2E1408"/>
<path d="M570.936 69.5068C570.936 70.0602 585.711 80.3534 586.469 80.3534C586.923 80.3534 590.636 77.8632 594.804 74.8195C601.623 69.7835 602.153 69.2855 600.335 69.2855C598.744 69.2855 596.925 70.2816 592.682 73.436C589.651 75.7049 586.848 77.5865 586.544 77.5865C586.241 77.5865 583.438 75.7049 580.255 73.436C576.315 70.5583 574.042 69.2855 572.754 69.2855C571.769 69.2855 570.936 69.3962 570.936 69.5068Z" fill="#2E1408"/>
<path d="M604.277 69.5622C604.277 70.1156 619.053 80.3534 619.81 80.3534C620.265 80.3534 623.978 77.8632 628.145 74.8195C634.662 70.0602 635.419 69.2855 633.828 69.2855C632.54 69.2855 630.191 70.5583 626.1 73.5467L620.265 77.8078L614.203 73.5467C609.884 70.4476 607.687 69.2855 606.247 69.2855C605.187 69.2855 604.277 69.3962 604.277 69.5622Z" fill="#2E1408"/>
<path d="M644.815 74.8195C648.982 77.8632 652.695 80.3534 653.15 80.3534C653.604 80.3534 657.317 77.8632 661.485 74.8195C667.471 70.4476 668.683 69.2855 667.395 69.2855C666.334 69.2855 663.682 70.7797 660.121 73.436C657.014 75.7049 654.135 77.5865 653.68 77.5865C653.301 77.5865 650.422 75.7049 647.315 73.436C642.845 70.1709 641.178 69.2855 639.435 69.2855C637.389 69.2855 637.692 69.6175 644.815 74.8195Z" fill="#2E1408"/>
<path d="M671.713 69.5621C671.713 70.1155 686.261 80.4087 686.867 80.2427C687.625 80.0213 702.021 69.8941 702.021 69.5068C702.021 69.3961 701.264 69.2854 700.279 69.2854C699.142 69.2854 696.793 70.6689 693.156 73.4359C690.125 75.7048 687.398 77.5864 687.019 77.5864C686.716 77.5864 683.912 75.7048 680.805 73.4359C677.093 70.6689 674.592 69.2854 673.456 69.2854C672.471 69.2854 671.713 69.3961 671.713 69.5621Z" fill="#2E1408"/>
<path d="M712.249 74.8195C716.416 77.8632 720.053 80.3534 720.432 80.3534C721.038 80.3534 735.359 70.0049 735.359 69.5622C735.359 69.3962 734.753 69.2855 733.92 69.2855C733.162 69.2855 729.979 71.167 726.949 73.436C723.842 75.7049 720.963 77.5865 720.584 77.5865C720.129 77.5865 717.25 75.7049 714.143 73.436C710.127 70.4476 707.93 69.2855 706.566 69.2855C704.975 69.2855 705.657 70.0049 712.249 74.8195Z" fill="#2E1408"/>
<path d="M745.968 75.0961C750.287 78.2505 753.924 80.7961 754.075 80.7407C755.136 80.132 769.457 69.6174 769.457 69.4514C769.457 69.3961 768.624 69.2854 767.639 69.2854C766.35 69.2854 764.002 70.5582 759.986 73.4912C755.212 76.9776 754.075 77.5864 753.09 76.9776C752.484 76.6456 749.757 74.764 747.105 72.8272C743.468 70.2262 741.649 69.2854 740.134 69.2854C738.239 69.2854 738.77 69.8388 745.968 75.0961Z" fill="#2E1408"/>
<path d="M772.49 69.6727C772.49 70.4475 786.887 80.464 787.645 80.2427C788.099 80.132 791.66 77.697 795.676 74.8194C801.89 70.2815 802.647 69.5621 801.208 69.3961C799.995 69.23 798.101 70.2815 793.782 73.3805C790.6 75.7048 787.645 77.5863 787.266 77.5863C786.811 77.5863 784.007 75.7048 780.901 73.4359C776.051 69.8388 772.49 68.2893 772.49 69.6727Z" fill="#2E1408"/>
<path d="M812.271 74.8195C816.438 77.8632 820.378 80.3534 820.985 80.3534C821.667 80.3534 825.531 77.8632 829.698 74.8195C836.897 69.5622 837.124 69.2855 835.002 69.2855C833.26 69.2855 831.593 70.1709 826.895 73.5467L821.06 77.7525L815.226 73.5467C810.452 70.1156 808.861 69.2855 807.043 69.2855C804.77 69.2855 804.997 69.5068 812.271 74.8195Z" fill="#2E1408"/>
<path d="M845.91 74.8195C850.153 77.8632 854.018 80.3534 854.472 80.3534C855.382 80.3534 869.475 70.3923 869.475 69.7282C869.475 69.5068 868.717 69.2855 867.808 69.2855C866.672 69.2855 864.247 70.7243 860.61 73.436C857.655 75.7049 854.851 77.5865 854.548 77.5865C854.169 77.5865 851.366 75.7049 848.259 73.436C843.713 70.0602 842.197 69.2855 840.303 69.2855C838.106 69.2855 838.409 69.5622 845.91 74.8195Z" fill="#2E1408"/>
<path d="M913.046 74.8195C917.213 77.8632 920.926 80.3534 921.381 80.3534C921.835 80.3534 925.548 77.8632 929.716 74.8195C936.384 69.9496 937.066 69.2855 935.323 69.2855C933.883 69.2855 932.065 70.3369 928.125 73.436C925.245 75.7049 922.517 77.5865 922.139 77.5865C921.684 77.5865 918.805 75.7049 915.698 73.436C911.152 70.1156 909.636 69.2855 907.742 69.2855C905.62 69.2855 905.848 69.5068 913.046 74.8195Z" fill="#2E1408"/>
<path d="M980.481 74.8195C984.649 77.8632 988.286 80.3534 988.513 80.3534C989.044 80.3534 1003.59 69.8389 1003.59 69.4515C1003.59 69.3962 1002.83 69.2855 1002 69.2855C1001.02 69.2855 998.439 70.835 995.03 73.436C992.15 75.7049 989.347 77.5865 988.892 77.5865C988.437 77.5865 985.482 75.7049 982.376 73.436C978.36 70.4476 976.162 69.2855 974.799 69.2855C973.207 69.2855 973.889 70.0049 980.481 74.8195Z" fill="#2E1408"/>
<path d="M1047.16 74.8194C1051.33 77.863 1055.12 80.298 1055.65 80.2427C1056.48 80.0766 1071.03 69.9495 1071.03 69.5067C1071.03 69.3961 1070.27 69.2854 1069.29 69.2854C1068.15 69.2854 1065.65 70.6689 1061.94 73.4359C1058.83 75.7048 1055.95 77.5863 1055.5 77.5863C1055.12 77.5863 1052.24 75.7048 1049.21 73.4359C1045.04 70.3368 1043.15 69.2854 1041.63 69.2854C1039.81 69.2854 1040.34 69.8388 1047.16 74.8194Z" fill="#2E1408"/>
<path d="M968.51 77.4757C966.54 78.9146 964.949 80.2981 964.949 80.5194C964.949 80.7408 968.056 80.9068 971.769 80.9068C975.936 80.9068 978.588 80.6854 978.588 80.3534C978.588 80.0214 977.148 78.6379 975.33 77.3097L972.072 74.8194L968.51 77.4757Z" fill="#2E1408"/>
<path d="M29.3968 77.8078C27.5783 79.1359 26.1387 80.3534 26.1387 80.5194C26.1387 81.0175 39.3229 81.0175 40.0048 80.5748C40.3837 80.2427 33.7916 75.3728 32.9581 75.4282C32.7308 75.4282 31.1396 76.4796 29.3968 77.8078Z" fill="#2E1408"/>
<path d="M96.8343 77.6417C95.0158 78.8592 93.5762 80.0767 93.5762 80.3534C93.5762 80.6854 96.5313 80.9068 100.396 80.9068C104.184 80.9068 107.215 80.7408 107.215 80.5194C107.215 80.0214 101.002 75.3728 100.396 75.3728C100.168 75.3728 98.5771 76.4243 96.8343 77.6417Z" fill="#2E1408"/>
<path d="M163.44 77.7525C161.697 79.0253 160.258 80.2981 160.258 80.5195C160.258 81.0729 173.745 81.0175 174.2 80.4088C174.654 79.9661 168.214 75.3729 167.153 75.3729C166.85 75.3729 165.183 76.4243 163.44 77.7525Z" fill="#2E1408"/>
<path d="M230.876 77.7524C229.133 79.0252 227.693 80.2981 227.693 80.5194C227.693 80.7408 230.8 80.9068 234.513 80.9068C238.301 80.9068 241.332 80.7408 241.332 80.5194C241.332 80.0214 235.119 75.3728 234.513 75.3728C234.285 75.3728 232.619 76.4243 230.876 77.7524Z" fill="#2E1408"/>
<path d="M298.009 77.5311C293.765 80.5748 294.144 80.9068 301.57 80.9068C305.358 80.9068 308.01 80.6854 308.01 80.3534C308.01 79.8553 302.327 75.7602 301.267 75.5388C301.039 75.4835 299.524 76.3689 298.009 77.5311Z" fill="#2E1408"/>
<path d="M364.991 77.7524C363.248 79.0252 361.809 80.2981 361.809 80.5194C361.809 80.7408 364.915 80.9068 368.628 80.9068C372.417 80.9068 375.447 80.7408 375.447 80.5194C375.447 80.0214 369.234 75.3728 368.628 75.3728C368.401 75.3728 366.734 76.4243 364.991 77.7524Z" fill="#2E1408"/>
<path d="M431.671 77.7525C429.928 79.0806 428.716 80.2981 428.943 80.5195C429.701 81.0175 442.885 81.0175 442.885 80.5195C442.885 80.0767 435.99 75.3729 435.308 75.3729C435.081 75.3729 433.414 76.4243 431.671 77.7525Z" fill="#2E1408"/>
<path d="M499.104 77.7524C497.362 79.0252 495.922 80.2981 495.922 80.5194C495.922 80.7408 499.029 80.9068 502.741 80.9068C506.53 80.9068 509.561 80.7408 509.561 80.5194C509.561 80.0214 503.347 75.3728 502.741 75.3728C502.514 75.3728 500.847 76.4243 499.104 77.7524Z" fill="#2E1408"/>
<path d="M565.861 77.8631C564.118 79.1359 562.906 80.4088 563.133 80.5748C563.739 80.9622 576.999 81.0175 576.999 80.6301C576.999 80.2427 569.877 75.3728 569.422 75.4282C569.195 75.4282 567.603 76.535 565.861 77.8631Z" fill="#2E1408"/>
<path d="M632.92 77.6971C631.329 78.9146 630.041 80.132 630.041 80.4087C630.041 80.6854 633.148 80.9068 636.86 80.9068C640.649 80.9068 643.68 80.7961 643.68 80.6301C643.68 80.0767 637.088 75.3728 636.406 75.4282C636.027 75.4835 634.436 76.5349 632.92 77.6971Z" fill="#2E1408"/>
<path d="M699.901 77.7524C698.158 79.0252 696.719 80.2981 696.719 80.5194C696.719 80.7408 699.977 80.9068 703.917 80.9068C707.857 80.9068 711.115 80.7961 711.115 80.6854C711.115 80.2427 704.372 75.3728 703.765 75.3728C703.387 75.3728 701.644 76.4243 699.901 77.7524Z" fill="#2E1408"/>
<path d="M767.412 77.6417C765.594 78.8592 764.154 80.0767 764.154 80.3534C764.154 80.6854 767.109 80.9068 770.974 80.9068C774.762 80.9068 777.793 80.7408 777.793 80.5194C777.793 80.0214 771.58 75.3728 770.974 75.3728C770.746 75.3728 769.155 76.4243 767.412 77.6417Z" fill="#2E1408"/>
<path d="M834.014 77.8078C832.272 79.1359 830.832 80.4087 830.832 80.5748C830.832 80.7408 833.939 80.9068 837.651 80.9068C841.44 80.9068 844.471 80.7408 844.471 80.5194C844.471 80.0214 838.258 75.3728 837.651 75.3728C837.424 75.3728 835.757 76.4796 834.014 77.8078Z" fill="#2E1408"/>
<path d="M901.376 77.5864C899.709 78.8039 898.27 80.0213 898.27 80.3534C898.27 80.9621 910.544 81.1281 911.378 80.5747C911.757 80.2427 905.695 75.3728 904.937 75.3728C904.71 75.3728 903.119 76.3689 901.376 77.5864Z" fill="#2E1408"/>
<path d="M1035.57 77.7524C1033.83 79.0252 1032.39 80.2981 1032.39 80.5194C1032.39 80.7408 1035.49 80.9068 1039.21 80.9068C1042.99 80.9068 1046.03 80.7408 1046.03 80.5194C1046.03 80.0214 1039.81 75.3728 1039.21 75.3728C1038.98 75.3728 1037.31 76.4243 1035.57 77.7524Z" fill="#2E1408"/>
</svg>
