<svg width="42" height="42" viewBox="0 0 42 42" fill="none" xmlns="http://www.w3.org/2000/svg">
<path d="M5.18359 31.1071C5.18359 32.4822 5.72982 33.8009 6.70211 34.7731C7.67439 35.7454 8.9931 36.2917 10.3681 36.2917C11.7431 36.2917 13.0618 35.7454 14.0341 34.7731C15.0064 33.8009 15.5526 32.4822 15.5526 31.1071C15.5526 29.7321 15.0064 28.4134 14.0341 27.4411C13.0618 26.4688 11.7431 25.9226 10.3681 25.9226C8.9931 25.9226 7.67439 26.4688 6.70211 27.4411C5.72982 28.4134 5.18359 29.7321 5.18359 31.1071Z" fill="black" stroke="black" stroke-width="1.3333" stroke-linecap="round" stroke-linejoin="round"/>
<path d="M25.9219 29.3789C25.9219 30.7539 26.4681 32.0726 27.4404 33.0449C28.4127 34.0172 29.7314 34.5634 31.1064 34.5634C32.4814 34.5634 33.8001 34.0172 34.7724 33.0449C35.7447 32.0726 36.2909 30.7539 36.2909 29.3789C36.2909 28.0038 35.7447 26.6851 34.7724 25.7128C33.8001 24.7406 32.4814 24.1943 31.1064 24.1943C29.7314 24.1943 28.4127 24.7406 27.4404 25.7128C26.4681 26.6851 25.9219 28.0038 25.9219 29.3789Z" fill="black" stroke="black" stroke-width="1.3333" stroke-linecap="round" stroke-linejoin="round"/>
<path d="M36.2908 5.18457L15.5527 10.3691V17.2818L36.2908 12.0973V5.18457Z" fill="black"/>
<path d="M15.5527 31.1072V17.2818M15.5527 17.2818V10.3691L36.2908 5.18457V12.0973M15.5527 17.2818L36.2908 12.0973M36.2908 29.379V12.0973" stroke="black" stroke-width="1.3333" stroke-linecap="round" stroke-linejoin="round"/>
</svg>
