<svg width="35" height="35" viewBox="0 0 35 35" fill="none" xmlns="http://www.w3.org/2000/svg">
<path d="M26.4436 34.7413C25.909 34.7413 25.3938 34.58 24.9551 34.2741L17.1885 28.8724L9.61206 34.2592C9.16842 34.5746 8.64602 34.7413 8.10194 34.7413C7.56167 34.7413 7.04308 34.5769 6.60135 34.2657C5.69848 33.6295 5.29365 32.4885 5.59385 31.4262L8.29371 21.8698L0.997691 16.1463C0.123737 15.4607 -0.219831 14.2945 0.142763 13.2448C0.505357 12.195 1.49536 11.4896 2.60635 11.4896H11.7686L14.731 1.84112C15.0681 0.742689 16.0668 0.00266333 17.2163 0C18.3668 0 19.3686 0.73546 19.7103 1.83047L22.7221 11.49H31.8383C32.947 11.49 33.9367 12.1939 34.3 13.2413C34.6641 14.288 34.3244 15.4534 33.4542 16.1406L26.1666 21.9014L28.9456 31.4041C29.2549 32.463 28.8611 33.6071 27.9662 34.2509C27.5192 34.5716 26.993 34.7413 26.4436 34.7413Z" fill="url(#paint0_radial_687_2051)"/>
<path d="M26.4432 34.22C26.0155 34.22 25.6038 34.091 25.2527 33.8464L17.1847 28.2355L9.30956 33.8342C8.95457 34.0869 8.53719 34.22 8.10154 34.22C7.66932 34.22 7.25423 34.0884 6.90076 33.8395C6.17862 33.3305 5.85521 32.4177 6.09529 31.5681L8.89028 21.6753L1.31956 15.7361C0.62024 15.1875 0.345921 14.2549 0.635464 13.4148C0.925767 12.5751 1.71715 12.0109 2.60633 12.0109H12.154L15.2294 1.99406C15.4988 1.11516 16.2982 0.523143 17.2181 0.52124C18.14 0.52124 18.9398 1.10946 19.213 1.98531L22.3378 12.0112H31.8379C32.7248 12.0112 33.5162 12.574 33.8073 13.4122C34.0987 14.2496 33.8267 15.1818 33.1312 15.7319L25.5677 21.7103L28.4445 31.5502C28.6918 32.3972 28.3771 33.3122 27.6611 33.8274C27.3038 34.0842 26.8826 34.22 26.4432 34.22Z" fill="white"/>
<path d="M26.4418 33.6989C26.1211 33.6989 25.8125 33.6022 25.5489 33.4188L17.1795 27.5983L9.00614 33.4097C8.74019 33.5992 8.42667 33.6989 8.10022 33.6989C7.77606 33.6989 7.46445 33.6 7.19964 33.4135C6.65784 33.0319 6.41548 32.347 6.59545 31.7101L9.48516 21.481L1.63974 15.3261C1.11544 14.9148 0.909226 14.2151 1.12648 13.5854C1.34373 12.9557 1.93804 12.5322 2.60463 12.5322H12.537L15.7257 2.14713C15.9278 1.48814 16.527 1.04412 17.2172 1.0426C17.9085 1.0426 18.5089 1.48395 18.7136 2.14066L21.9534 12.5322H31.837C32.5021 12.5322 33.096 12.9546 33.314 13.5827C33.5324 14.2105 33.3285 14.9098 32.8068 15.3226L24.9675 21.5191L27.9428 31.6964C28.1285 32.3314 27.8926 33.0182 27.3557 33.4044C27.0871 33.5973 26.7713 33.6989 26.4418 33.6989Z" fill="url(#paint1_radial_687_2051)"/>
<path d="M26.4448 33.4381C26.1846 33.4381 25.9247 33.3605 25.701 33.2049L17.181 27.2797L8.85806 33.1973C8.63206 33.3578 8.36725 33.4381 8.10319 33.4381C7.84029 33.4381 7.57738 33.3586 7.35214 33.1999C6.90013 32.8815 6.69848 32.3127 6.84915 31.7808L9.78643 21.3839L1.80365 15.1212C1.36648 14.778 1.19451 14.1955 1.37638 13.6705C1.55748 13.1454 2.05211 12.7927 2.6076 12.7927H12.7325L15.9779 2.22347C16.1453 1.67749 16.6495 1.30424 17.2206 1.3031C17.2217 1.3031 17.2225 1.3031 17.2236 1.3031C17.7935 1.3031 18.2977 1.67368 18.4678 2.21815L21.7646 12.7927H31.8396C32.3943 12.7927 32.8886 13.1439 33.0701 13.6682C33.2523 14.1921 33.0826 14.7742 32.6477 15.1182L24.6707 21.4238L27.6954 31.7697C27.8503 32.3001 27.6547 32.8705 27.2062 33.1931C26.9786 33.3563 26.7119 33.4381 26.4448 33.4381Z" fill="url(#paint2_radial_687_2051)"/>
<path d="M33.0689 13.6683C32.9813 13.4172 32.8219 13.2076 32.6188 13.0554C32.618 13.133 32.5841 13.2079 32.521 13.2582L24.5439 19.5638C24.2106 19.8271 24.0706 20.2665 24.1897 20.6744L27.2145 31.0199C27.2453 31.1257 27.2065 31.2406 27.1167 31.3045C27.0604 31.3452 27.0025 31.3536 26.9645 31.3536C26.9272 31.3536 26.8713 31.3456 26.8161 31.3072L18.2961 25.3817C18.1169 25.2569 17.9088 25.1948 17.701 25.1948C17.4891 25.1948 17.278 25.2591 17.0972 25.3877L8.77393 31.3053C8.71838 31.3452 8.66054 31.3536 8.62287 31.3536C8.58521 31.3536 8.52852 31.3452 8.47221 31.3057C8.3828 31.2425 8.34209 31.1284 8.37177 31.0222L11.3094 20.6249C11.4243 20.2182 11.282 19.7822 10.9495 19.5216L2.96634 13.2589C2.87921 13.1904 2.84458 13.0736 2.88073 12.9686C2.91725 12.8636 3.0158 12.7932 3.1269 12.7932H2.60564C2.05015 12.7932 1.55515 13.1455 1.37442 13.671C1.19256 14.196 1.36453 14.7785 1.8017 15.1217L9.78447 21.3844L6.8472 31.7813C6.69691 32.3132 6.89856 32.8824 7.35018 33.2004C7.57542 33.3591 7.83795 33.4386 8.10124 33.4386C8.36529 33.4386 8.63049 33.3583 8.85611 33.1978L17.179 27.2802L25.699 33.2054C25.9228 33.361 26.1826 33.4386 26.4429 33.4386C26.71 33.4386 26.9767 33.3568 27.2042 33.1932C27.6528 32.8706 27.8483 32.2999 27.6935 31.7698L24.6687 21.4239L32.6458 15.1183C33.0814 14.7744 33.2515 14.1922 33.0689 13.6683Z" fill="url(#paint3_radial_687_2051)"/>
<path d="M21.2913 12.0607C21.364 12.2947 21.5158 12.4864 21.7102 12.6158L18.4682 2.21815C18.3868 1.95791 18.2281 1.73913 18.0234 1.57971L21.2913 12.0607Z" fill="url(#paint4_radial_687_2051)"/>
<path d="M14.2525 12.0565L17.4979 1.48725C17.5143 1.43398 17.5466 1.38985 17.5877 1.35751C17.4717 1.32365 17.3507 1.3031 17.2255 1.3031C17.2244 1.3031 17.2236 1.3031 17.2225 1.3031C16.6514 1.30424 16.1476 1.67749 15.9798 2.22347L12.7344 12.7927H13.2556C13.7137 12.7927 14.1182 12.494 14.2525 12.0565Z" fill="url(#paint5_radial_687_2051)"/>
<path d="M24.9843 22.5001L24.1484 23.161L27.1002 33.2566C27.1356 33.2356 27.1721 33.217 27.2052 33.193C27.6538 32.8704 27.8493 32.2997 27.6945 31.7697L24.9843 22.5001Z" fill="url(#paint6_radial_687_2051)"/>
<path d="M33.0689 13.6682C32.8874 13.1443 32.3932 12.7927 31.8385 12.7927H21.7635L18.4666 2.21815C18.2969 1.67368 17.7928 1.3031 17.2225 1.3031C17.2213 1.3031 17.2206 1.3031 17.2194 1.3031C16.6483 1.30424 16.1446 1.67749 15.9768 2.22347L12.7313 12.7927H2.60648C2.05098 12.7927 1.55598 13.145 1.37526 13.6705C1.25579 14.0167 1.29193 14.3862 1.45401 14.697C1.64311 14.5916 1.85846 14.53 2.08522 14.53H12.2105L15.4555 3.96073C15.623 3.41474 16.1271 3.0415 16.6986 3.04036C16.6993 3.04036 16.7001 3.04036 16.7012 3.04036C17.2712 3.04036 17.7753 3.41094 17.9454 3.9554L21.2426 14.53H31.3172C31.8149 14.53 32.2616 14.8134 32.4799 15.2498L32.6466 15.1178C33.0815 14.7742 33.2516 14.1921 33.0689 13.6682Z" fill="url(#paint7_radial_687_2051)"/>
<path d="M27.2267 32.1352C26.9665 32.1352 26.7066 32.0576 26.4829 31.9019L17.9629 25.9768L9.63994 31.8943C9.41394 32.0549 9.14913 32.1352 8.88508 32.1352C8.62217 32.1352 8.35926 32.056 8.13402 31.8974C7.68201 31.5789 7.48036 31.0101 7.63102 30.4782L10.5683 20.0809L2.58553 13.8183C2.29446 13.59 2.12439 13.2552 2.09433 12.9021C1.76484 13.044 1.49851 13.3164 1.37638 13.6703C1.19451 14.1953 1.36648 14.7778 1.80365 15.121L9.78643 21.3837L6.84915 31.7806C6.69886 32.3125 6.90051 32.8817 7.35214 33.1997C7.57738 33.3584 7.83991 33.4379 8.10319 33.4379C8.36725 33.4379 8.63244 33.3576 8.85806 33.1971L17.181 27.2795L25.701 33.2047C25.9247 33.3603 26.1846 33.4379 26.4448 33.4379C26.7119 33.4379 26.9786 33.3561 27.2062 33.1925C27.5828 32.9216 27.7784 32.4753 27.7403 32.0252C27.5764 32.0964 27.4021 32.1352 27.2267 32.1352Z" fill="url(#paint8_radial_687_2051)"/>
<path d="M13.5148 11.4901L16.5917 1.46948C16.3041 1.62928 16.0792 1.89409 15.9784 2.22397L13.1328 11.4901H13.5148Z" fill="url(#paint9_radial_687_2051)"/>
<path d="M25.4492 20.1208L25.6121 20.6774L32.6444 15.1183C32.9773 14.8554 33.1531 14.4532 33.1367 14.0442L25.4492 20.1208Z" fill="url(#paint10_radial_687_2051)"/>
<path d="M31.8375 12.7927H21.7625L18.4657 2.21815C18.296 1.67368 17.7919 1.3031 17.2215 1.3031H17.2185C16.6474 1.30424 16.1436 1.67749 15.9759 2.22347L12.7304 12.7927H6.32812C9.1349 17.3588 15.6662 20.5598 23.2761 20.5598C24.1778 20.5598 25.0635 20.5126 25.9306 20.4258L32.6457 15.1178C33.0809 14.7739 33.2506 14.1917 33.068 13.6678C32.8865 13.1443 32.3923 12.7927 31.8375 12.7927Z" fill="url(#paint11_radial_687_2051)"/>
<defs>
<radialGradient id="paint0_radial_687_2051" cx="0" cy="0" r="1" gradientUnits="userSpaceOnUse" gradientTransform="translate(17.2221 17.3707) scale(17.2965)">
<stop stop-opacity="0.1"/>
<stop offset="1" stop-opacity="0.0969"/>
</radialGradient>
<radialGradient id="paint1_radial_687_2051" cx="0" cy="0" r="1" gradientUnits="userSpaceOnUse" gradientTransform="translate(17.2205 17.3709) scale(16.2541 16.2541)">
<stop stop-opacity="0.1"/>
<stop offset="1" stop-opacity="0.0969"/>
</radialGradient>
<radialGradient id="paint2_radial_687_2051" cx="0" cy="0" r="1" gradientUnits="userSpaceOnUse" gradientTransform="translate(26.2319 8.05119) scale(23.8551 23.8551)">
<stop offset="0.0039" stop-color="#FFE100"/>
<stop offset="0.3835" stop-color="#FFD600"/>
<stop offset="1" stop-color="#FFBB00"/>
</radialGradient>
<radialGradient id="paint3_radial_687_2051" cx="0" cy="0" r="1" gradientUnits="userSpaceOnUse" gradientTransform="translate(26.2307 17.1283) scale(16.0604 16.0604)">
<stop stop-color="#F25E00" stop-opacity="0.2"/>
<stop offset="1" stop-color="#E03A00" stop-opacity="0.1"/>
</radialGradient>
<radialGradient id="paint4_radial_687_2051" cx="0" cy="0" r="1" gradientUnits="userSpaceOnUse" gradientTransform="translate(20.91 3.89742) scale(7.93794 7.93795)">
<stop stop-color="#F25E00" stop-opacity="0.2"/>
<stop offset="1" stop-color="#E03A00" stop-opacity="0.1"/>
</radialGradient>
<radialGradient id="paint5_radial_687_2051" cx="0" cy="0" r="1" gradientUnits="userSpaceOnUse" gradientTransform="translate(16.5347 3.71593) scale(8.28507 8.28506)">
<stop stop-color="#F25E00" stop-opacity="0.2"/>
<stop offset="1" stop-color="#E03A00" stop-opacity="0.1"/>
</radialGradient>
<radialGradient id="paint6_radial_687_2051" cx="0" cy="0" r="1" gradientUnits="userSpaceOnUse" gradientTransform="translate(24.6673 6.31344) scale(34.3656 34.3657)">
<stop offset="0.0016" stop-color="white" stop-opacity="0.4"/>
<stop offset="1" stop-color="white" stop-opacity="0.1"/>
</radialGradient>
<radialGradient id="paint7_radial_687_2051" cx="0" cy="0" r="1" gradientUnits="userSpaceOnUse" gradientTransform="translate(24.6672 6.31371) scale(34.3654 34.3654)">
<stop offset="0.0016" stop-color="white" stop-opacity="0.4"/>
<stop offset="1" stop-color="white" stop-opacity="0.1"/>
</radialGradient>
<radialGradient id="paint8_radial_687_2051" cx="0" cy="0" r="1" gradientUnits="userSpaceOnUse" gradientTransform="translate(22.0623 12.0471) scale(40.9409 40.9409)">
<stop stop-color="#F25E00" stop-opacity="0.2"/>
<stop offset="1" stop-color="#E03A00" stop-opacity="0.1"/>
</radialGradient>
<radialGradient id="paint9_radial_687_2051" cx="0" cy="0" r="1" gradientUnits="userSpaceOnUse" gradientTransform="translate(22.0626 12.0472) scale(40.9431 40.9431)">
<stop stop-color="#F25E00" stop-opacity="0.2"/>
<stop offset="1" stop-color="#E03A00" stop-opacity="0.1"/>
</radialGradient>
<radialGradient id="paint10_radial_687_2051" cx="0" cy="0" r="1" gradientUnits="userSpaceOnUse" gradientTransform="translate(22.0588 12.0472) scale(40.9405 40.9405)">
<stop stop-color="#F25E00" stop-opacity="0.2"/>
<stop offset="1" stop-color="#E03A00" stop-opacity="0.1"/>
</radialGradient>
<radialGradient id="paint11_radial_687_2051" cx="0" cy="0" r="1" gradientUnits="userSpaceOnUse" gradientTransform="translate(26.0037 8.22134) scale(39.7748 39.7748)">
<stop offset="0.0016" stop-color="white" stop-opacity="0.4"/>
<stop offset="1" stop-color="white" stop-opacity="0.1"/>
</radialGradient>
</defs>
</svg>
