<svg width="59" height="50" viewBox="0 0 59 50" fill="none" xmlns="http://www.w3.org/2000/svg">
<path d="M54.8272 30.2657H51.1819V47.3905C51.1819 48.7136 50.0595 49.7857 48.6752 49.7857H38.339C36.9547 49.7857 35.8323 48.7136 35.8323 47.3905V37.0978C35.8323 35.7513 34.6891 34.66 33.2795 34.66H25.0776C23.668 34.66 22.5248 35.7513 22.5248 37.0978V47.3905C22.5248 48.7136 21.4024 49.7857 20.0181 49.7857H9.68185C8.29758 49.7857 7.1752 48.7136 7.1752 47.3905V30.2657H3.52992C0.35752 30.2657 -1.1988 26.5731 1.08942 24.4739L26.7381 0.938454C28.1016 -0.312818 30.2557 -0.312818 31.6191 0.938454L57.2679 24.4739C59.5559 26.5731 57.9996 30.2657 54.8272 30.2657Z" fill="black"/>
</svg>
