<svg width="44" height="42" viewBox="0 0 44 42" fill="none" xmlns="http://www.w3.org/2000/svg">
<g clip-path="url(#clip0_676_1239)">
<path fill-rule="evenodd" clip-rule="evenodd" d="M22.1735 0.703336C19.1814 0.656012 16.2941 1.73132 14.1468 3.6927C11.9995 5.65408 10.7681 8.34087 10.7235 11.162L10.6719 14.4225C9.04079 15.1263 7.62601 16.2085 6.55951 17.5681C5.49301 18.9276 4.80951 20.5204 4.57275 22.1977C4.37082 23.6801 4.21738 25.2097 4.19261 26.7761C4.16788 28.3396 4.27287 29.8732 4.42787 31.3584C4.68868 33.7343 5.83969 35.9462 7.67396 37.5963C9.50823 39.2464 11.9054 40.2265 14.4346 40.3604C19.1705 40.5941 23.9135 40.6691 28.6544 40.5853C31.1865 40.5314 33.6135 39.6276 35.4991 38.0364C37.3846 36.4451 38.605 34.2707 38.9408 31.9042C39.1427 30.4248 39.2962 28.8923 39.3209 27.3288C39.3457 25.7624 39.2407 24.2316 39.0857 22.7436C38.9018 21.0593 38.2686 19.4455 37.245 18.0529C36.2215 16.6602 34.841 15.534 33.2324 14.7793L33.284 11.5188C33.3286 8.69819 32.1832 5.97425 30.0996 3.94604C28.0161 1.91783 25.1651 0.751421 22.1735 0.703336ZM28.6331 13.72L28.6691 11.4458C28.7014 10.6095 28.5563 9.77516 28.2422 8.99179C27.9281 8.20842 27.4514 7.49178 26.84 6.8839C26.2286 6.27602 25.4949 5.78914 24.6819 5.4518C23.8688 5.11447 22.9928 4.93347 22.1053 4.91943C21.2177 4.9054 20.3364 5.0586 19.5131 5.37005C18.6898 5.68151 17.9411 6.14494 17.3108 6.73319C16.6805 7.32143 16.1814 8.02264 15.8427 8.79568C15.504 9.56872 15.3325 10.398 15.3383 11.235L15.3024 13.5092C17.525 13.4765 19.7482 13.4788 21.9709 13.516C24.3152 13.5531 26.5052 13.6196 28.6331 13.72ZM21.8179 23.1872C22.4299 23.1968 23.0131 23.4353 23.4394 23.8502C23.8657 24.265 24.1 24.8222 24.0909 25.3992L24.0451 28.2971C24.036 28.8741 23.7841 29.4236 23.3449 29.8248C22.9057 30.2259 22.3152 30.4459 21.7032 30.4362C21.0913 30.4265 20.508 30.188 20.0817 29.7732C19.6555 29.3583 19.4211 28.8011 19.4302 28.2241L19.4761 25.3233C19.4852 24.7463 19.7371 24.1968 20.1763 23.7957C20.6154 23.3945 21.2059 23.1775 21.8179 23.1872Z" fill="#D55A1F"/>
</g>
<defs>
<clipPath id="clip0_676_1239">
<rect width="43.0773" height="40.6158" fill="white" transform="translate(0.642578) rotate(0.90613)"/>
</clipPath>
</defs>
</svg>
