<svg width="12" height="13" viewBox="0 0 12 13" fill="none" xmlns="http://www.w3.org/2000/svg">
<path d="M11.9372 6.38892L11.8904 6.31227L10.2953 4.51084C10.2011 4.3583 10.263 4.13523 10.4351 4.07897C10.6771 3.9993 10.907 3.85828 11.1048 3.65492C11.7698 2.96731 11.7994 1.8359 11.1645 1.14918C10.5593 0.429954 9.5161 0.411726 8.85204 1.1015C8.65572 1.3055 8.5155 1.54833 8.43176 1.80717C8.37187 1.99073 8.16375 2.04775 8.02772 1.93919L6.43824 0.130911L6.36932 0.0770767C6.2692 -0.0269381 6.10852 -0.0261733 6.00456 0.0823879L4.16105 1.9991C4.04666 2.00734 3.93411 1.93842 3.89907 1.80628C3.74242 1.21907 3.29169 0.712127 2.52754 0.551984C2.44922 0.535285 2.36588 0.534521 2.28673 0.549733C0.721669 0.848053 0.318644 2.61159 1.15978 3.56846C1.33787 3.77105 1.55199 3.91445 1.78194 3.99858C1.90593 4.04417 1.96101 4.18073 1.93878 4.30905L0.0846931 6.23715C-0.0230705 6.34886 -0.0284809 6.53003 0.0712464 6.64165L1.74787 8.53644L1.77771 8.56151L1.7877 8.57289C1.92992 8.73444 2.1785 8.64878 2.23059 8.42711C2.38422 7.78683 2.87259 7.21539 3.68789 7.04148C3.84031 7.02946 3.99378 7.04008 4.14298 7.07428C4.4861 7.17588 4.75836 7.3534 4.96126 7.57723C5.15817 7.80727 5.30999 8.11005 5.38753 8.48639C5.41297 8.64878 5.41638 8.815 5.39835 8.98033C5.20062 9.85532 4.65196 10.3584 4.05505 10.495C3.84893 10.5427 3.75857 10.8076 3.90122 10.9685L3.91126 10.9798L3.93329 11.014L5.60353 12.9141C5.70267 13.0272 5.87013 13.0287 5.97731 12.9179L7.83744 10.9957C7.95704 10.9776 8.08041 11.0444 8.11686 11.1802C8.18476 11.4337 8.30695 11.672 8.48582 11.8738C9.32994 12.8276 10.9723 12.4702 11.3183 10.7894C11.3357 10.7036 11.3389 10.6134 11.3267 10.5284C11.2133 9.69356 10.766 9.18215 10.2328 8.98645C10.1128 8.94234 10.0529 8.81721 10.0669 8.69429L11.9158 6.78421C12.0201 6.67649 12.0278 6.5028 11.9372 6.38892Z" fill="#7175D0"/>
</svg>
