<svg width="18" height="21" viewBox="0 0 18 21" fill="none" xmlns="http://www.w3.org/2000/svg">
<path d="M17.6989 10.0629L16.6615 9.79658C13.1346 8.89018 10.3782 5.67628 9.60293 1.56162L9.37473 0.351228C9.28571 -0.117076 8.71434 -0.117076 8.62532 0.351228L8.39711 1.56162C7.62021 5.67628 4.86538 8.89207 1.33854 9.79658L0.301052 10.0629C-0.100351 10.1667 -0.100351 10.8333 0.301052 10.9371L1.33854 11.2034C4.86538 12.1098 7.62182 15.3237 8.39711 19.4384L8.62532 20.6488C8.71434 21.1171 9.28571 21.1171 9.37473 20.6488L9.60293 19.4384C10.3798 15.3237 13.1346 12.1098 16.6615 11.2034L17.6989 10.9371C18.1004 10.8333 18.1004 10.1648 17.6989 10.0629Z" fill="#AE8634"/>
</svg>
