<svg width="22" height="23" viewBox="0 0 22 23" fill="none" xmlns="http://www.w3.org/2000/svg">
<g clip-path="url(#clip0_740_27)">
<path d="M17.125 3.625H18.625C19.3154 3.625 19.875 4.18464 19.875 4.875V19.5625C19.875 20.2529 19.3154 20.8125 18.625 20.8125H17.125C16.4346 20.8125 15.875 20.2529 15.875 19.5625V4.875C15.875 4.18464 16.4346 3.625 17.125 3.625Z" fill="white" stroke="#D55A1F" stroke-width="1.5"/>
<path d="M10.25 9.375H11.75C12.4404 9.375 13 9.93464 13 10.625V19.5625C13 20.2529 12.4404 20.8125 11.75 20.8125H10.25C9.55964 20.8125 9 20.2529 9 19.5625V10.625C9 9.93464 9.55964 9.375 10.25 9.375Z" fill="white" stroke="#D55A1F" stroke-width="1.5"/>
<path d="M6.875 19.5625C6.875 20.6671 5.97957 21.5625 4.875 21.5625H3.375C2.27043 21.5625 1.375 20.6671 1.375 19.5625V14.9375C1.375 13.8329 2.27043 12.9375 3.375 12.9375H4.875C5.97957 12.9375 6.875 13.8329 6.875 14.9375V19.5625Z" fill="#62D51F"/>
</g>
<defs>
<clipPath id="clip0_740_27">
<rect width="22" height="23" fill="white"/>
</clipPath>
</defs>
</svg>
