<svg width="62" height="59" viewBox="0 0 62 59" fill="none" xmlns="http://www.w3.org/2000/svg">
<g clip-path="url(#clip0_656_1286)">
<path fill-rule="evenodd" clip-rule="evenodd" d="M5.55025 3.77181C6.60432 1.56431 8.91456 -0.0150532 11.5034 0.000108225H49.9252L49.9155 0.000170193L49.9327 2.09195V0.000108225H49.9252C52.514 -0.0150532 54.8241 1.56431 55.8785 3.77181L55.8825 3.78025L59.8604 12.2104H1.56821L5.54625 3.78025L5.55025 3.77181ZM0 17.44H61.4286V23.1512C61.4286 24.2554 61.0148 25.3517 60.2197 26.1907C59.4181 27.0367 58.2804 27.5582 57.0408 27.5582H4.38776C3.14812 27.5582 2.0103 27.0367 1.20864 26.1907C0.413625 25.3517 0 24.2554 0 23.1512V17.44ZM4.38776 34.9184C4.38776 33.763 5.37 32.8265 6.58163 32.8265H54.8469C56.0584 32.8265 57.0408 33.763 57.0408 34.9184V54.3878C57.0408 55.4973 56.5784 56.5616 55.7556 57.346C54.9329 58.1309 53.8167 58.5714 52.6531 58.5714H47.1442V42.7161C47.1442 42.4727 47.0337 42.2392 46.8367 42.0668C46.6396 41.8949 46.3729 41.798 46.0942 41.798H37.3517C37.0733 41.798 36.8062 41.8949 36.6093 42.0668C36.4124 42.2392 36.3018 42.4727 36.3018 42.7161V58.5714H8.77551C7.61179 58.5714 6.49576 58.1309 5.67288 57.346C4.85005 56.5616 4.38776 55.4973 4.38776 54.3878V34.9184ZM10.9778 41.8367V47.1119C10.9778 48.267 11.9601 49.2038 13.1717 49.2038H26.3964C27.6081 49.2038 28.5903 48.267 28.5903 47.1119V41.8367C28.5903 40.6815 27.6081 39.745 26.3964 39.745H13.1717C11.9601 39.745 10.9778 40.6815 10.9778 41.8367Z" fill="black"/>
</g>
<defs>
<clipPath id="clip0_656_1286">
<rect width="61.4286" height="58.5714" fill="white"/>
</clipPath>
</defs>
</svg>
