<svg width="25" height="17" viewBox="0 0 25 17" fill="none" xmlns="http://www.w3.org/2000/svg">
<mask id="path-1-outside-1_656_734" maskUnits="userSpaceOnUse" x="-3.26442" y="-3.87858" width="30.6292" height="23.5798" fill="black">
<rect fill="white" x="-3.26442" y="-3.87858" width="30.6292" height="23.5798"/>
<path d="M7.91136 12.7578C7.76837 12.8044 7.60829 12.8206 7.43988 12.7892L2.84664 12.0647C2.4752 12.0061 2.1678 11.7468 2.04916 11.3828C1.93264 11.0253 2.0282 10.6347 2.2937 10.3684L5.57771 7.07628C5.68651 6.96892 5.82328 6.88119 5.97065 6.82597C6.41261 6.68191 6.90652 6.85165 7.15245 7.25321C7.19737 7.32485 7.22718 7.39423 7.25048 7.46572C7.36912 7.82968 7.27568 8.22683 6.99718 8.49736L5.10387 10.3871L7.74925 10.8046C8.1358 10.8656 8.44744 11.1379 8.56184 11.4888C8.60845 11.6318 8.61818 11.794 8.59117 11.9538C8.53673 12.3382 8.26232 12.6434 7.91136 12.7578ZM11.6085 13.9757C11.4395 14.0308 11.2557 14.0403 11.0679 13.9937C10.7162 13.907 10.452 13.648 10.3482 13.3296C10.291 13.1541 10.2793 12.9638 10.3324 12.7739L12.7466 2.77668C12.8224 2.43563 13.0772 2.15845 13.4086 2.05041L13.4476 2.0377C13.7898 1.94054 14.1653 2.03383 14.4188 2.28195C14.5369 2.40164 14.6246 2.53841 14.6733 2.6879C14.7327 2.86988 14.7379 3.06231 14.6912 3.25007L12.2749 13.2408C12.1969 13.597 11.9335 13.8698 11.6085 13.9757ZM19.0318 9.13301C18.6808 9.24741 18.2793 9.16259 18.0023 8.8862C17.8863 8.77302 17.8072 8.64062 17.7606 8.49764C17.6441 8.14017 17.7354 7.73653 18.0118 7.4595L19.903 5.56325L17.2597 5.15222C16.8753 5.09778 16.5636 4.82549 16.445 4.46152C16.4238 4.39653 16.4091 4.32942 16.3988 4.25369C16.3565 3.79295 16.6383 3.35599 17.0716 3.20755C17.2341 3.15458 17.4028 3.14274 17.5691 3.16762L22.1623 3.89211C22.5337 3.95079 22.8411 4.21008 22.9577 4.56755C23.0763 4.93151 22.9807 5.32216 22.7152 5.58845L19.4312 8.88058C19.3202 9.00306 19.1813 9.08428 19.0318 9.13301Z"/>
</mask>
<path d="M7.91136 12.7578C7.76837 12.8044 7.60829 12.8206 7.43988 12.7892L2.84664 12.0647C2.4752 12.0061 2.1678 11.7468 2.04916 11.3828C1.93264 11.0253 2.0282 10.6347 2.2937 10.3684L5.57771 7.07628C5.68651 6.96892 5.82328 6.88119 5.97065 6.82597C6.41261 6.68191 6.90652 6.85165 7.15245 7.25321C7.19737 7.32485 7.22718 7.39423 7.25048 7.46572C7.36912 7.82968 7.27568 8.22683 6.99718 8.49736L5.10387 10.3871L7.74925 10.8046C8.1358 10.8656 8.44744 11.1379 8.56184 11.4888C8.60845 11.6318 8.61818 11.794 8.59117 11.9538C8.53673 12.3382 8.26232 12.6434 7.91136 12.7578ZM11.6085 13.9757C11.4395 14.0308 11.2557 14.0403 11.0679 13.9937C10.7162 13.907 10.452 13.648 10.3482 13.3296C10.291 13.1541 10.2793 12.9638 10.3324 12.7739L12.7466 2.77668C12.8224 2.43563 13.0772 2.15845 13.4086 2.05041L13.4476 2.0377C13.7898 1.94054 14.1653 2.03383 14.4188 2.28195C14.5369 2.40164 14.6246 2.53841 14.6733 2.6879C14.7327 2.86988 14.7379 3.06231 14.6912 3.25007L12.2749 13.2408C12.1969 13.597 11.9335 13.8698 11.6085 13.9757ZM19.0318 9.13301C18.6808 9.24741 18.2793 9.16259 18.0023 8.8862C17.8863 8.77302 17.8072 8.64062 17.7606 8.49764C17.6441 8.14017 17.7354 7.73653 18.0118 7.4595L19.903 5.56325L17.2597 5.15222C16.8753 5.09778 16.5636 4.82549 16.445 4.46152C16.4238 4.39653 16.4091 4.32942 16.3988 4.25369C16.3565 3.79295 16.6383 3.35599 17.0716 3.20755C17.2341 3.15458 17.4028 3.14274 17.5691 3.16762L22.1623 3.89211C22.5337 3.95079 22.8411 4.21008 22.9577 4.56755C23.0763 4.93151 22.9807 5.32216 22.7152 5.58845L19.4312 8.88058C19.3202 9.00306 19.1813 9.08428 19.0318 9.13301Z" fill="white"/>
<path d="M7.43988 12.7892L7.8063 10.8231L7.77896 10.818L7.75149 10.8137L7.43988 12.7892ZM2.84664 12.0647L2.53456 14.0402L2.53503 14.0403L2.84664 12.0647ZM2.2937 10.3684L0.877745 8.95594L0.877406 8.95628L2.2937 10.3684ZM5.57771 7.07628L4.17293 5.65269L4.16732 5.65823L4.16175 5.66382L5.57771 7.07628ZM5.97065 6.82597L5.35083 4.92444L5.30952 4.9379L5.26882 4.95316L5.97065 6.82597ZM7.15245 7.25321L5.4469 8.29776L5.45241 8.30677L5.45802 8.31571L7.15245 7.25321ZM6.99718 8.49736L5.60366 7.06275L5.59391 7.07222L5.58429 7.08181L6.99718 8.49736ZM5.10387 10.3871L3.69099 8.97157L0.907747 11.7496L4.79206 12.3627L5.10387 10.3871ZM7.74925 10.8046L7.43744 12.7802L7.4378 12.7802L7.74925 10.8046ZM8.59117 11.9538L6.61914 11.6205L6.61468 11.6469L6.61093 11.6734L8.59117 11.9538ZM7.91136 12.7578L7.29154 10.8563C7.44023 10.8078 7.61939 10.7883 7.8063 10.8231L7.43988 12.7892L7.07347 14.7554C7.59719 14.853 8.09651 14.801 8.53117 14.6593L7.91136 12.7578ZM7.43988 12.7892L7.75149 10.8137L3.15824 10.0892L2.84664 12.0647L2.53503 14.0403L7.12828 14.7648L7.43988 12.7892ZM2.84664 12.0647L3.15872 10.0892C3.52791 10.1476 3.83579 10.4105 3.95069 10.763L2.04916 11.3828L0.147628 12.0026C0.499804 13.0831 1.4225 13.8646 2.53456 14.0402L2.84664 12.0647ZM2.04916 11.3828L3.95069 10.763C4.0701 11.1293 3.96843 11.5213 3.71 11.7805L2.2937 10.3684L0.877406 8.95628C0.0879644 9.74806 -0.204817 10.9214 0.147628 12.0026L2.04916 11.3828ZM2.2937 10.3684L3.70966 11.7809L6.99367 8.48875L5.57771 7.07628L4.16175 5.66382L0.877745 8.95594L2.2937 10.3684ZM5.57771 7.07628L6.98248 8.49987C6.88988 8.59125 6.78672 8.65597 6.67248 8.69878L5.97065 6.82597L5.26882 4.95316C4.85985 5.10642 4.48314 5.34659 4.17293 5.65269L5.57771 7.07628ZM5.97065 6.82597L6.59047 8.7275C6.18768 8.85879 5.70351 8.71677 5.4469 8.29776L7.15245 7.25321L8.85801 6.20867C8.10953 4.98653 6.63754 4.50503 5.35083 4.92444L5.97065 6.82597ZM7.15245 7.25321L5.45802 8.31571C5.43107 8.27273 5.40769 8.2287 5.38812 8.18554C5.36883 8.14301 5.35627 8.10799 5.34895 8.08554L7.25048 7.46572L9.15201 6.8459C9.08836 6.65061 8.99475 6.42653 8.84688 6.19071L7.15245 7.25321ZM7.25048 7.46572L5.34895 8.08554C5.23529 7.73685 5.32496 7.33346 5.60366 7.06275L6.99718 8.49736L8.3907 9.93196C9.2264 9.1202 9.50294 7.92252 9.15201 6.8459L7.25048 7.46572ZM6.99718 8.49736L5.58429 7.08181L3.69099 8.97157L5.10387 10.3871L6.51675 11.8027L8.41006 9.9129L6.99718 8.49736ZM5.10387 10.3871L4.79206 12.3627L7.43744 12.7802L7.74925 10.8046L8.06105 8.82909L5.41567 8.41156L5.10387 10.3871ZM7.74925 10.8046L7.4378 12.7802C7.08493 12.7246 6.77998 12.4758 6.66031 12.1087L8.56184 11.4888L10.4634 10.869C10.1149 9.79996 9.18667 9.00654 8.0607 8.82904L7.74925 10.8046ZM8.56184 11.4888L6.66031 12.1087C6.59707 11.9146 6.59773 11.7472 6.61914 11.6205L8.59117 11.9538L10.5632 12.2871C10.6386 11.8408 10.6198 11.349 10.4634 10.869L8.56184 11.4888ZM8.59117 11.9538L6.61093 11.6734C6.66886 11.2643 6.95392 10.9663 7.29154 10.8563L7.91136 12.7578L8.53117 14.6593C9.57072 14.3205 10.4046 13.4122 10.5714 12.2342L8.59117 11.9538ZM11.0679 13.9937L11.5502 12.0527L11.5463 12.0517L11.0679 13.9937ZM10.3324 12.7739L12.2584 13.313L12.2681 13.2783L12.2765 13.2434L10.3324 12.7739ZM12.7466 2.77668L14.6907 3.24616L14.695 3.22833L14.699 3.21043L12.7466 2.77668ZM13.4476 2.0377L12.9013 0.11375L12.8644 0.124252L12.8278 0.136166L13.4476 2.0377ZM14.4188 2.28195L15.8424 0.877182L15.8303 0.864911L15.8179 0.85285L14.4188 2.28195ZM14.6912 3.25007L12.7502 2.76786L12.7473 2.77992L14.6912 3.25007ZM12.2749 13.2408L10.3309 12.7706L10.3259 12.7917L10.3212 12.8128L12.2749 13.2408ZM11.6085 13.9757L10.9887 12.0741C11.17 12.015 11.368 12.0074 11.5502 12.0527L11.0679 13.9937L10.5857 15.9347C11.1434 16.0732 11.709 16.0465 12.2283 15.8772L11.6085 13.9757ZM11.0679 13.9937L11.5463 12.0517C11.8799 12.1339 12.144 12.3856 12.2497 12.7098L10.3482 13.3296L8.44665 13.9494C8.75993 14.9105 9.55237 15.6802 10.5896 15.9357L11.0679 13.9937ZM10.3482 13.3296L12.2497 12.7098C12.301 12.867 12.3232 13.0816 12.2584 13.313L10.3324 12.7739L8.40644 12.2348C8.23538 12.846 8.28099 13.4412 8.44665 13.9494L10.3482 13.3296ZM10.3324 12.7739L12.2765 13.2434L14.6907 3.24616L12.7466 2.77668L10.8025 2.3072L8.3883 12.3044L10.3324 12.7739ZM12.7466 2.77668L14.699 3.21043C14.6193 3.56924 14.3603 3.84378 14.0284 3.95194L13.4086 2.05041L12.7888 0.148877C11.794 0.473126 11.0255 1.30201 10.7942 2.34293L12.7466 2.77668ZM13.4086 2.05041L14.0284 3.95194L14.0674 3.93923L13.4476 2.0377L12.8278 0.136166L12.7888 0.148877L13.4086 2.05041ZM13.4476 2.0377L13.9939 3.96165C13.6562 4.05754 13.2866 3.97244 13.0196 3.71106L14.4188 2.28195L15.8179 0.85285C15.0441 0.0952135 13.9235 -0.176466 12.9013 0.11375L13.4476 2.0377ZM14.4188 2.28195L12.9952 3.68673C12.9265 3.61712 12.8322 3.49307 12.7718 3.30771L14.6733 2.6879L16.5749 2.06808C16.417 1.58376 16.1473 1.18615 15.8424 0.877182L14.4188 2.28195ZM14.6733 2.6879L12.7718 3.30771C12.7105 3.11967 12.71 2.92971 12.7502 2.76787L14.6912 3.25007L16.6322 3.73228C16.7657 3.19492 16.7548 2.62009 16.5749 2.06808L14.6733 2.6879ZM14.6912 3.25007L12.7473 2.77992L10.3309 12.7706L12.2749 13.2408L14.2189 13.7109L16.6352 3.72023L14.6912 3.25007ZM12.2749 13.2408L10.3212 12.8128C10.4012 12.4476 10.6672 12.1789 10.9887 12.0741L11.6085 13.9757L12.2283 15.8772C13.1997 15.5606 13.9925 14.7463 14.2286 13.6688L12.2749 13.2408ZM18.0023 8.8862L19.4149 7.47035L19.407 7.46254L19.3991 7.45482L18.0023 8.8862ZM18.0118 7.4595L19.4276 8.87207L19.4279 8.87182L18.0118 7.4595ZM19.903 5.56325L21.3191 6.97557L24.096 4.19123L20.2103 3.587L19.903 5.56325ZM17.2597 5.15222L17.567 3.17597L17.5536 3.17388L17.5401 3.17198L17.2597 5.15222ZM16.3988 4.25369L14.4072 4.43667L14.4112 4.48012L14.4171 4.52335L16.3988 4.25369ZM17.0716 3.20755L16.4518 1.30601L16.4376 1.31064L16.4235 1.31547L17.0716 3.20755ZM17.5691 3.16762L17.8807 1.19204L17.8729 1.19082L17.8651 1.18965L17.5691 3.16762ZM22.1623 3.89211L22.4744 1.91661L22.4739 1.91653L22.1623 3.89211ZM22.7152 5.58845L24.1312 7.00091L24.1315 7.00057L22.7152 5.58845ZM19.4312 8.88058L18.0153 7.46811L17.9816 7.50182L17.9497 7.5371L19.4312 8.88058ZM19.0318 9.13301L18.412 7.23147C18.7554 7.11953 19.1445 7.20061 19.4149 7.47035L18.0023 8.8862L16.5897 10.3021C17.4141 11.1246 18.6062 11.3753 19.6516 11.0345L19.0318 9.13301ZM18.0023 8.8862L19.3991 7.45482C19.5231 7.57578 19.6123 7.72509 19.6621 7.87782L17.7606 8.49764L15.859 9.11745C16.002 9.55616 16.2495 9.97025 16.6054 10.3176L18.0023 8.8862ZM17.7606 8.49764L19.6621 7.87782C19.7773 8.23127 19.6853 8.61384 19.4276 8.87207L18.0118 7.4595L16.5959 6.04693C15.7855 6.85922 15.5108 8.04907 15.859 9.11745L17.7606 8.49764ZM18.0118 7.4595L19.4279 8.87182L21.3191 6.97557L19.903 5.56325L18.4869 4.15093L16.5957 6.04718L18.0118 7.4595ZM19.903 5.56325L20.2103 3.587L17.567 3.17597L17.2597 5.15222L16.9524 7.12847L19.5957 7.5395L19.903 5.56325ZM17.2597 5.15222L17.5401 3.17198C17.9397 3.22857 18.2376 3.50766 18.3465 3.8417L16.445 4.46152L14.5435 5.08134C14.8896 6.14332 15.8108 6.96699 16.9793 7.13246L17.2597 5.15222ZM16.445 4.46152L18.3465 3.8417C18.3683 3.90868 18.3774 3.96109 18.3805 3.98402L16.3988 4.25369L14.4171 4.52335C14.4408 4.69774 14.4793 4.88438 14.5435 5.08134L16.445 4.46152ZM16.3988 4.25369L18.3904 4.0707C18.4317 4.51961 18.1679 4.9461 17.7197 5.09962L17.0716 3.20755L16.4235 1.31547C15.1086 1.76587 14.2813 3.06629 14.4072 4.43667L16.3988 4.25369ZM17.0716 3.20755L17.6914 5.10908C17.544 5.15713 17.3982 5.16432 17.2731 5.14559L17.5691 3.16762L17.8651 1.18965C17.4074 1.12115 16.9242 1.15204 16.4518 1.30601L17.0716 3.20755ZM17.5691 3.16762L17.2575 5.1432L21.8507 5.86769L22.1623 3.89211L22.4739 1.91653L17.8807 1.19204L17.5691 3.16762ZM22.1623 3.89211L21.8502 5.86761C21.4887 5.8105 21.1755 5.5537 21.0561 5.18736L22.9577 4.56755L24.8592 3.94773C24.5068 2.86646 23.5788 2.09107 22.4744 1.91661L22.1623 3.89211ZM22.9577 4.56755L21.0561 5.18736C20.9412 4.83486 21.035 4.441 21.2989 4.17632L22.7152 5.58845L24.1315 7.00057C24.9265 6.20331 25.2114 5.02817 24.8592 3.94773L22.9577 4.56755ZM22.7152 5.58845L21.2993 4.17598L18.0153 7.46811L19.4312 8.88058L20.8472 10.293L24.1312 7.00091L22.7152 5.58845ZM19.4312 8.88058L17.9497 7.5371C18.1078 7.36273 18.2845 7.27302 18.412 7.23147L19.0318 9.13301L19.6516 11.0345C20.0781 10.8955 20.5326 10.6434 20.9128 10.2241L19.4312 8.88058Z" fill="#C0DFDA" mask="url(#path-1-outside-1_656_734)"/>
</svg>
