<svg width="26" height="23" viewBox="0 0 26 23" fill="none" xmlns="http://www.w3.org/2000/svg">
<g clip-path="url(#clip0_740_34)">
<path d="M21.3993 11.3321C20.9413 10.938 20.4959 10.5327 20.0635 10.1165C19.12 9.24559 18.2622 8.30512 17.4993 7.30537C17.3498 7.06761 17.2995 6.79086 17.3574 6.52366C17.4152 6.25646 17.5775 6.01576 17.8158 5.84372C18.1707 5.50216 18.7083 5.14394 19.3414 5.54701C20.1047 6.08332 20.8294 6.66137 21.5111 7.27777C21.9681 7.66434 22.4072 8.06719 22.8273 8.48527C23.6431 9.25951 24.4103 10.0726 25.1257 10.921C25.2651 11.0342 25.3763 11.1718 25.4524 11.3251C25.5285 11.4784 25.5678 11.644 25.5678 11.8114C25.5678 11.9787 25.5285 12.1443 25.4524 12.2976C25.3763 12.4509 25.2651 12.5885 25.1257 12.7017C24.4071 13.548 23.64 14.3612 22.8273 15.138C21.9319 16.0289 20.9512 16.8496 19.8958 17.591C19.0248 18.1608 17.5311 16.9245 17.3576 16.1236C17.2996 15.8563 17.3497 15.5794 17.4993 15.3416C18.2644 14.3466 19.1221 13.41 20.0635 12.5413C20.4975 12.1286 20.9429 11.7254 21.3993 11.3321Z" fill="#00034A" stroke="#00034A" stroke-miterlimit="10"/>
<path d="M15.0055 5.19402C14.8249 5.12447 14.6305 5.08758 14.4335 5.08554C14.2367 5.0835 14.0413 5.11635 13.8589 5.18216C13.6766 5.24796 13.511 5.34539 13.3719 5.4687C13.2328 5.592 13.123 5.73869 13.049 5.90012C12.2097 7.54813 11.4991 9.24513 10.9222 10.9791C10.2837 12.6974 9.78026 14.4526 9.41548 16.2323C9.34977 16.4883 9.37297 16.756 9.48211 17.0002C9.59124 17.2444 9.78124 17.4537 10.0271 17.6008C10.3651 17.8032 10.8721 18.0499 11.2764 18.1206C11.4561 18.1902 11.6497 18.2274 11.8458 18.2297C12.0419 18.2321 12.2365 18.1998 12.4183 18.1346C12.6 18.0694 12.7652 17.9726 12.904 17.85C13.0427 17.7274 13.1524 17.5815 13.2264 17.4208C14.0717 15.7741 14.7846 14.0767 15.3597 12.3413C15.9985 10.6213 16.5019 8.86436 16.8664 7.0829C16.9319 6.82685 16.9086 6.55925 16.7994 6.31516C16.6903 6.07101 16.5005 5.86166 16.2548 5.7144C15.9168 5.512 15.4098 5.26532 15.0055 5.19402Z" fill="#00034A" stroke="#00034A" stroke-miterlimit="10"/>
<path d="M5.9653 5.55791C4.91 6.29927 3.92918 7.11997 3.0338 8.01087C2.22936 8.78419 1.47295 9.59557 0.767898 10.4414C0.628653 10.5547 0.517497 10.6923 0.441464 10.8456C0.36543 10.9989 0.326172 11.1644 0.326172 11.3318C0.326172 11.4992 0.36543 11.6647 0.441464 11.8179C0.517497 11.9712 0.628653 12.1088 0.767898 12.2222C1.48626 13.0685 2.25318 13.8816 3.06565 14.6584C3.85094 15.436 4.70162 16.1599 5.6104 16.8239C5.94645 17.0884 6.29095 17.3437 6.64391 17.5909C7.27701 17.9883 7.81521 17.63 8.1701 17.2885C8.40839 17.1165 8.5707 16.8758 8.62855 16.6086C8.6864 16.3413 8.63616 16.0646 8.48666 15.8268C7.72122 14.8339 6.86348 13.8992 5.9224 13.0323C5.4884 12.6195 5.04301 12.2161 4.58665 11.8225C5.04459 11.4286 5.49001 11.0235 5.9224 10.6076C6.85425 9.73898 7.70139 8.80219 8.45481 7.80732C8.60431 7.56956 8.65455 7.29281 8.5967 7.02561C8.53885 6.75841 8.37654 6.51771 8.13826 6.34567C7.62865 5.85462 6.72386 5.05479 5.9653 5.55791Z" fill="#00034A" stroke="#00034A" stroke-miterlimit="10"/>
<path d="M16.1574 6.76205C16.2012 6.59202 16.2058 6.41596 16.1713 6.24432C16.1367 6.07268 16.0636 5.90886 15.9562 5.7627C15.8488 5.61648 15.7093 5.49082 15.546 5.39313C15.3827 5.29546 15.199 5.22775 15.0056 5.19402C14.825 5.12447 14.6306 5.08758 14.4337 5.08554C14.2368 5.0835 14.0414 5.11635 13.8591 5.18216C13.6768 5.24796 13.5111 5.34539 13.372 5.4687C13.2329 5.592 13.1231 5.73869 13.0491 5.90012C12.2098 7.54813 11.4993 9.24513 10.9223 10.9791C10.2838 12.6974 9.78039 14.4526 9.41561 16.2323C9.37187 16.4023 9.36719 16.5784 9.40177 16.75C9.43635 16.9217 9.50947 17.0855 9.61685 17.2316C9.72423 17.3779 9.86372 17.5036 10.027 17.6012C10.1903 17.6989 10.374 17.7666 10.5674 17.8003C10.7471 17.8702 10.9407 17.9074 11.1369 17.91C11.3331 17.9124 11.5279 17.8801 11.7097 17.8148C11.8916 17.7494 12.0568 17.6525 12.1955 17.5298C12.3342 17.407 12.4437 17.2609 12.5174 17.1C13.3626 15.4535 14.0755 13.7562 14.6507 12.021C15.2895 10.3009 15.793 8.54369 16.1574 6.76205Z" fill="white" stroke="#D55A1F" stroke-miterlimit="10"/>
<path d="M5.275 12.5414C4.84099 12.1287 4.39561 11.7255 3.93925 11.3321C4.39721 10.938 4.84263 10.5327 5.275 10.1166C6.2069 9.24805 7.05406 8.31126 7.80741 7.31634C7.95704 7.07863 8.00735 6.80188 7.9495 6.53462C7.89158 6.26736 7.72927 6.02667 7.49085 5.85469C7.1366 5.51315 6.57306 5.15492 5.9653 5.558C4.91 6.29933 3.92918 7.12003 3.0338 8.01094C2.22936 8.78425 1.47295 9.59564 0.767898 10.4415C0.628653 10.5548 0.517497 10.6924 0.441464 10.8457C0.36543 10.9989 0.326172 11.1645 0.326172 11.3318C0.326172 11.4992 0.36543 11.6648 0.441464 11.8181C0.517497 11.9713 0.628653 12.109 0.767898 12.2222C1.48626 13.0685 2.25318 13.8817 3.06565 14.6585C3.96158 15.5454 4.94239 16.3623 5.99715 17.1C6.6296 17.4979 7.16781 17.1396 7.52271 16.7975C7.761 16.6255 7.9233 16.3848 7.98115 16.1176C8.039 15.8504 7.98876 15.5736 7.83926 15.3359C7.07381 14.343 6.21609 13.4082 5.275 12.5414Z" fill="white" stroke="#D55A1F" stroke-miterlimit="10"/>
<path d="M20.0655 10.0559C20.4979 10.472 20.9432 10.8773 21.4012 11.2714C20.9448 11.6649 20.4994 12.0683 20.0655 12.4812C19.1241 13.3499 18.2663 14.2866 17.5012 15.2815C17.3519 15.5192 17.3017 15.7958 17.3596 16.0628C17.4175 16.3299 17.5797 16.5705 17.8178 16.7426C18.1727 17.0841 18.7356 17.4429 19.3433 17.045C20.3986 16.3037 21.3794 15.483 22.2748 14.5921C23.0873 13.8154 23.8542 13.0025 24.5726 12.1564C24.7119 12.043 24.8231 11.9054 24.8993 11.752C24.9754 11.5987 25.0146 11.4331 25.0146 11.2657C25.0146 11.0982 24.9754 10.9326 24.8993 10.7793C24.8231 10.626 24.7119 10.4883 24.5726 10.375C23.8574 9.52665 23.0904 8.71354 22.2748 7.9393C21.3794 7.0484 20.3986 6.2277 19.3433 5.48634C18.7102 5.08327 18.172 5.44149 17.8178 5.78305C17.5795 5.95509 17.4172 6.19579 17.3593 6.46299C17.3015 6.73019 17.3517 7.00694 17.5012 7.2447C18.2641 8.24469 19.122 9.18475 20.0655 10.0559Z" fill="white" stroke="#D55A1F" stroke-miterlimit="10"/>
</g>
<defs>
<clipPath id="clip0_740_34">
<rect width="26" height="23" fill="white"/>
</clipPath>
</defs>
</svg>
