<svg width="42" height="42" viewBox="0 0 42 42" fill="none" xmlns="http://www.w3.org/2000/svg">
<path d="M12 1.5H4.5C2.84314 1.5 1.5 2.84314 1.5 4.5V37.5C1.5 39.1569 2.84314 40.5 4.5 40.5H12C13.6568 40.5 15 39.1569 15 37.5V4.5C15 2.84314 13.6568 1.5 12 1.5Z" fill="black" stroke="white" stroke-linecap="round" stroke-linejoin="round"/>
<path d="M37.5 1.5H30C28.3432 1.5 27 2.84314 27 4.5V37.5C27 39.1569 28.3432 40.5 30 40.5H37.5C39.1569 40.5 40.5 39.1569 40.5 37.5V4.5C40.5 2.84314 39.1569 1.5 37.5 1.5Z" fill="black" stroke="white" stroke-linecap="round" stroke-linejoin="round"/>
</svg>
