<svg width="17" height="17" viewBox="0 0 17 17" fill="none" xmlns="http://www.w3.org/2000/svg">
<g clip-path="url(#clip0_740_21)">
<path d="M13.8389 11.6282C14.2192 11.704 14.5384 11.9269 14.709 12.2473C14.9693 12.7369 15.3282 13.5076 15.5918 14.4485C15.7439 14.9926 15.3296 15.5606 14.6426 15.5872C13.5976 15.6275 11.7125 15.6721 8.49902 15.6721C5.28554 15.6721 3.40039 15.6275 2.35547 15.5872C1.66858 15.5606 1.25417 14.9925 1.40625 14.4485C1.66988 13.5076 2.02877 12.7369 2.28906 12.2473C2.45937 11.9272 2.77837 11.7043 3.1582 11.6282C3.33385 11.8421 3.50964 12.0474 3.68848 12.2385C4.98848 13.628 6.43761 14.5738 7.11523 14.9807C7.96312 15.4898 9.03496 15.4898 9.88281 14.9807C10.5604 14.5738 12.0086 13.6279 13.3086 12.2385C13.4874 12.0474 13.6633 11.842 13.8389 11.6282Z" fill="white" stroke="#D55A1F"/>
<path d="M8.5 1.32764C11.4665 1.32778 13.8251 3.60928 13.8252 6.36865C13.8252 8.13829 12.8798 9.67467 11.7617 10.8696C10.6464 12.0615 9.38024 12.8916 8.78418 13.2495C8.63202 13.3409 8.44428 13.3521 8.2832 13.2837L8.21582 13.2495L7.96191 13.0933C7.30498 12.6782 6.2132 11.9126 5.2373 10.8696C4.11927 9.67467 3.17383 8.13829 3.17383 6.36865C3.17397 3.60919 5.53339 1.32764 8.5 1.32764ZM8.5 3.77588C7.04328 3.77588 5.81543 4.90113 5.81543 6.34521C5.81565 7.78912 7.04341 8.91357 8.5 8.91357C9.95647 8.91343 11.1844 7.78902 11.1846 6.34521C11.1846 4.90122 9.9566 3.77603 8.5 3.77588Z" fill="white" stroke="#D55A1F"/>
</g>
<defs>
<clipPath id="clip0_740_21">
<rect width="17" height="17" fill="white"/>
</clipPath>
</defs>
</svg>
