<svg width="12" height="15" viewBox="0 0 12 15" fill="none" xmlns="http://www.w3.org/2000/svg">
<path d="M11.8172 7.98627L11.1663 7.66226C8.95367 6.56005 7.57906 4.01402 7.64688 1.1392L7.66674 0.2935C7.67394 -0.033803 7.2947 -0.11364 7.16933 0.188786L6.84654 0.970712C5.74848 3.62865 3.46484 5.40587 0.995933 5.52121L0.26963 5.55529C-0.0114942 5.56903 -0.105839 6.01719 0.145885 6.1431L0.796804 6.46711C3.00939 7.56933 4.38402 10.1154 4.31621 12.9902L4.29635 13.8359C4.28915 14.1632 4.66839 14.243 4.79376 13.9406L5.11655 13.1587C6.21461 10.5007 8.49795 8.72477 10.9671 8.60816L11.6934 8.57408C11.9745 8.56034 12.0692 8.11092 11.8172 7.98627Z" fill="#F9B121"/>
</svg>
