<svg width="12" height="12" viewBox="0 0 12 12" fill="none" xmlns="http://www.w3.org/2000/svg">
<path d="M6.77094 1.56662L4.96747 3.37041C4.87956 3.45835 4.75671 3.49691 4.63899 3.47382L2.22096 2.99915C1.92444 2.94087 1.68255 3.26192 1.81173 3.54241L2.86574 5.82846C2.91697 5.93983 2.91148 6.07177 2.85064 6.18118L1.60395 8.42767C1.4509 8.70326 1.66514 9.03202 1.96634 8.98418L4.42129 8.59315C4.54098 8.57407 4.66026 8.61688 4.74045 8.70776L6.38788 10.571C6.59 10.7997 6.96411 10.6819 7.02087 10.3718L7.48409 7.84397C7.50664 7.72089 7.58606 7.61536 7.69642 7.56212L9.96153 6.46701C10.2394 6.33269 10.2566 5.9311 9.99051 5.78724L7.82188 4.61601C7.71633 4.55887 7.64597 4.45108 7.63398 4.32714L7.38615 1.78723C7.35562 1.47574 6.99204 1.34532 6.77094 1.56662Z" fill="#F9B121"/>
<path d="M9.98965 5.78724L7.82101 4.61601C7.71546 4.55887 7.64517 4.45087 7.63312 4.32714L7.38529 1.78723C7.35504 1.47559 6.99146 1.34518 6.77015 1.56641L5.07398 3.26295C4.90382 4.92726 5.79722 6.7774 7.43599 8.10209L7.48322 7.84397C7.50577 7.72089 7.5852 7.61536 7.69555 7.56212L9.96066 6.46701C10.2386 6.33269 10.2558 5.93088 9.98965 5.78724Z" fill="#FFCB30"/>
</svg>
