<svg width="85" height="78" viewBox="0 0 85 78" fill="none" xmlns="http://www.w3.org/2000/svg">
<path d="M29.1152 23.9167C29.1152 27.153 30.4973 30.2567 32.9573 32.5451C35.4173 34.8335 38.7538 36.1191 42.2328 36.1191C45.7118 36.1191 49.0483 34.8335 51.5083 32.5451C53.9683 30.2567 55.3504 27.153 55.3504 23.9167C55.3504 20.6805 53.9683 17.5767 51.5083 15.2883C49.0483 13 45.7118 11.7144 42.2328 11.7144C38.7538 11.7144 35.4173 13 32.9573 15.2883C30.4973 17.5767 29.1152 20.6805 29.1152 23.9167Z" fill="black" stroke="black" stroke-width="1.3333" stroke-linecap="round" stroke-linejoin="round"/>
<path d="M63.2203 55.6427C63.2203 50.4647 61.0091 45.4987 57.0731 41.8373C53.137 38.1759 47.7986 36.1189 42.2322 36.1189C36.6658 36.1189 31.3274 38.1759 27.3914 41.8373C23.4554 45.4987 21.2441 50.4647 21.2441 55.6427" stroke="black" stroke-width="1.3333" stroke-linecap="round" stroke-linejoin="round"/>
<path d="M42.2322 36.1189C36.6658 36.1189 31.3274 38.1759 27.3914 41.8373C23.4554 45.4987 21.2441 50.4647 21.2441 55.6427H63.2203C63.2203 53.0788 62.6775 50.54 61.6227 48.1713C60.568 45.8025 59.022 43.6502 57.0731 41.8373C55.1241 40.0243 52.8104 38.5862 50.264 37.6051C47.7176 36.6239 44.9884 36.1189 42.2322 36.1189Z" fill="black" stroke="black" stroke-width="1.3333" stroke-linecap="round" stroke-linejoin="round"/>
</svg>
